<svg id="letters-end.svg" version="1.1" viewBox="0 0 1920 1080" xmlns="http://www.w3.org/2000/svg" xmlns:xlink="http://www.w3.org/1999/xlink">
 <defs>
  <linearGradient id="linearGradientSlvr" x1="-1869" x2="-1869" y1="794.4" y2="828" gradientTransform="matrix(1.301,0,0,1.301,1365,-35.3)" gradientUnits="userSpaceOnUse">
   <stop style="stop-color:#696969" offset="0"/>
   <stop style="stop-color:#c7c7c9" offset=".17"/>
   <stop style="stop-color:#f9f9ff" offset=".36"/>
   <stop style="stop-color:#ccccce" offset=".73"/>
   <stop style="stop-color:#696969" offset="1"/>
  </linearGradient>
  <linearGradient id="linearGradient5990" x1="-1869" x2="-1869" y1="794.4" y2="828" gradientTransform="matrix(1.192 0 0 1.192 3023 -423.5)" gradientUnits="userSpaceOnUse" xlink:href="#linearGradientSlvr"/>
  <linearGradient id="linearGradient7643" x1="-1080" x2="-1080" y1="31.71" y2="108.7" gradientTransform="matrix(1.085 0 0 1.085 2445 776)" gradientUnits="userSpaceOnUse" xlink:href="#linearGradientSlvr"/>
  <linearGradient id="linearGradientPurp" x1="96.87" x2="96.87" y1=".6183" y2="84.13" gradientTransform="scale(.7835 1.276)" gradientUnits="userSpaceOnUse">
   <stop style="stop-color:#1c072d" offset="0"/>
   <stop style="stop-color:#5700aa" offset=".29"/>
   <stop style="stop-color:#4b127b" offset=".64"/>
   <stop style="stop-color:#290a43" offset="1"/>
  </linearGradient>
  <linearGradient id="linearGradientBlk" x1="884.1" x2="884.1" y1="-861.1" y2="-669.4" gradientTransform="matrix(.5122 0 0 .5116 -456 447.2)" gradientUnits="userSpaceOnUse">
   <stop style="stop-color:#141414" offset="0"/>
   <stop style="stop-color:#0a0a0a" offset=".15"/>
   <stop style="stop-color:#6d6d6d" offset=".3"/>
   <stop style="stop-color:#000000" offset=".44"/>
   <stop style="stop-color:#141414" offset=".62"/>
   <stop style="stop-color:#262626" offset=".75"/>
   <stop style="stop-color:#040404" offset="1"/>
  </linearGradient>
  <linearGradient id="linearGradient3769" x1="-1869" x2="-1869" y1="794.4" y2="828" gradientTransform="matrix(1.192 0 0 1.192 3022 -423.4)" gradientUnits="userSpaceOnUse" xlink:href="#linearGradientSlvr"/>
  <linearGradient id="linearGradient3771" x1="-1869" x2="-1869" y1="794.4" y2="828" gradientTransform="matrix(1.192 0 0 1.192 3021 -423.8)" gradientUnits="userSpaceOnUse" xlink:href="#linearGradientSlvr"/>
  <linearGradient id="linearGradient3773" x1="-1869" x2="-1869" y1="794.4" y2="828" gradientTransform="matrix(1.192 0 0 1.192 3020 -423.5)" gradientUnits="userSpaceOnUse" xlink:href="#linearGradientSlvr"/>
  <linearGradient id="linearGradient3775" x1="-1869" x2="-1869" y1="794.4" y2="828" gradientTransform="matrix(1.192 0 0 1.192 3020 -423.8)" gradientUnits="userSpaceOnUse" xlink:href="#linearGradientSlvr"/>
  <linearGradient id="linearGradient3777" x1="-1869" x2="-1869" y1="794.4" y2="828" gradientTransform="matrix(1.192 0 0 1.192 3019 -423.5)" gradientUnits="userSpaceOnUse" xlink:href="#linearGradientSlvr"/>
  <linearGradient id="linearGradient3779" x1="-1869" x2="-1869" y1="794.4" y2="828" gradientTransform="matrix(1.192 0 0 1.192 3020 -423.8)" gradientUnits="userSpaceOnUse" xlink:href="#linearGradientSlvr"/>
  <linearGradient id="linearGradient3781" x1="-1869" x2="-1869" y1="794.4" y2="828" gradientTransform="matrix(1.192 0 0 1.192 3020 -423.8)" gradientUnits="userSpaceOnUse" xlink:href="#linearGradientSlvr"/>
  <linearGradient id="linearGradient3783" x1="-1869" x2="-1869" y1="794.4" y2="828" gradientTransform="matrix(1.192 0 0 1.192 3020 -423.7)" gradientUnits="userSpaceOnUse" xlink:href="#linearGradientSlvr"/>
  <linearGradient id="linearGradient3785" x1="-1869" x2="-1869" y1="794.4" y2="828" gradientTransform="matrix(1.192 0 0 1.192 3020 -423.8)" gradientUnits="userSpaceOnUse" xlink:href="#linearGradientSlvr"/>
  <linearGradient id="linearGradient3787" x1="-1869" x2="-1869" y1="794.4" y2="828" gradientTransform="matrix(1.192 0 0 1.192 3022 -423.4)" gradientUnits="userSpaceOnUse" xlink:href="#linearGradientSlvr"/>
  <linearGradient id="linearGradient3789" x1="-1869" x2="-1869" y1="794.4" y2="828" gradientTransform="matrix(1.192 0 0 1.192 3024 -423.8)" gradientUnits="userSpaceOnUse" xlink:href="#linearGradientSlvr"/>
  <linearGradient id="linearGradient3791" x1="-1869" x2="-1869" y1="794.4" y2="828" gradientTransform="matrix(1.192 0 0 1.192 3023 -423.5)" gradientUnits="userSpaceOnUse" xlink:href="#linearGradientSlvr"/>
  <linearGradient id="linearGradient3793" x1="-1869" x2="-1869" y1="794.4" y2="828" gradientTransform="matrix(1.192 0 0 1.192 3021 -423.5)" gradientUnits="userSpaceOnUse" xlink:href="#linearGradientSlvr"/>
  <linearGradient id="linearGradient5665" x1="-1080" x2="-1080" y1="31.71" y2="108.7" gradientTransform="matrix(1.188 0 0 1.188 1929 389.6)" gradientUnits="userSpaceOnUse" xlink:href="#linearGradientSlvr"/>
  <linearGradient id="linearGradient5669" x1="96.87" x2="96.87" y1=".6183" y2="84.13" gradientTransform="matrix(.7154 0 0 1.165 683 421.8)" gradientUnits="userSpaceOnUse" xlink:href="#linearGradientPurp"/>
  <linearGradient id="linearGradient5673" x1="884.1" x2="884.1" y1="-861.1" y2="-669.4" gradientTransform="matrix(.4677 0 0 .4671 266.6 830.1)" gradientUnits="userSpaceOnUse" xlink:href="#linearGradientBlk"/>
  <linearGradient id="linearGradient5675" x1="-1080" x2="-1080" y1="31.71" y2="108.7" gradientTransform="matrix(1.188 0 0 1.188 1929 388.8)" gradientUnits="userSpaceOnUse" xlink:href="#linearGradientSlvr"/>
  <linearGradient id="linearGradient5679" x1="96.87" x2="96.87" y1=".6183" y2="84.13" gradientTransform="matrix(.7154 0 0 1.165 683 421.1)" gradientUnits="userSpaceOnUse" xlink:href="#linearGradientPurp"/>
  <linearGradient id="linearGradient5681" x1="884.1" x2="884.1" y1="-861.1" y2="-669.4" gradientTransform="matrix(.4677 0 0 .4671 266.6 829.4)" gradientUnits="userSpaceOnUse" xlink:href="#linearGradientBlk"/>
  <linearGradient id="linearGradient5683" x1="-1080" x2="-1080" y1="31.71" y2="108.7" gradientTransform="matrix(1.188 0 0 1.188 1929 390.3)" gradientUnits="userSpaceOnUse" xlink:href="#linearGradientSlvr"/>
  <linearGradient id="linearGradient5687" x1="96.87" x2="96.87" y1=".6183" y2="84.13" gradientTransform="matrix(.7154 0 0 1.165 683 422.5)" gradientUnits="userSpaceOnUse" xlink:href="#linearGradientPurp"/>
  <linearGradient id="linearGradient5691" x1="884.1" x2="884.1" y1="-861.1" y2="-669.4" gradientTransform="matrix(.4677 0 0 .4671 266.6 830.8)" gradientUnits="userSpaceOnUse" xlink:href="#linearGradientBlk"/>
  <linearGradient id="linearGradient5693" x1="-1080" x2="-1080" y1="31.71" y2="108.7" gradientTransform="matrix(1.188 0 0 1.188 1929 390.6)" gradientUnits="userSpaceOnUse" xlink:href="#linearGradientSlvr"/>
  <linearGradient id="linearGradient5697" x1="96.87" x2="96.87" y1=".6183" y2="84.13" gradientTransform="matrix(.7154 0 0 1.165 683 422.9)" gradientUnits="userSpaceOnUse" xlink:href="#linearGradientPurp"/>
  <linearGradient id="linearGradient5701" x1="884.1" x2="884.1" y1="-861.1" y2="-669.4" gradientTransform="matrix(.4677 0 0 .4671 266.6 831.2)" gradientUnits="userSpaceOnUse" xlink:href="#linearGradientBlk"/>
  <linearGradient id="linearGradient5713" x1="-1080" x2="-1080" y1="31.71" y2="108.7" gradientTransform="matrix(1.188 0 0 1.188 1929 389.6)" gradientUnits="userSpaceOnUse" xlink:href="#linearGradientSlvr"/>
  <linearGradient id="linearGradient5717" x1="96.87" x2="96.87" y1=".6183" y2="84.13" gradientTransform="matrix(.7154 0 0 1.165 683 421.9)" gradientUnits="userSpaceOnUse" xlink:href="#linearGradientPurp"/>
  <linearGradient id="linearGradient5721" x1="884.1" x2="884.1" y1="-861.1" y2="-669.4" gradientTransform="matrix(.4677 0 0 .4671 266.6 830.2)" gradientUnits="userSpaceOnUse" xlink:href="#linearGradientBlk"/>
 </defs>
 <path id="tp1T" d="m683 522.2v7.591h11.65v35.98h8.909v-35.98h11.71v-7.591z" style="fill:#290a43;stroke-width:.9313"/>
 <path id="ts1T" d="m685.1 528.2v-3.891h28.16v3.891h-11.51v35.39h-5.188v-35.39z" style="fill:url(#linearGradient3791);stroke-width:.9158"/>
 <path id="tp1R" d="m735.3 547.9c0.8784 0.1748 1.83 0.106 2.686 0.0325 2.275 1.189 3.35 4.573 4.006 6.648 0.4972 1.598 0.9441 3.271 1.476 5.345 0.5319 2.074 1.239 4.038 2.225 6.152h9.468l-1.159-2.567c-1.595-3.375-2.216-6.825-3.02-9.404-0.8043-2.582-1.454-4.164-2.253-5.606-0.5414-1.021-1.304-1.898-2.157-2.706 3.678-2.383 6.015-6.376 6.06-10.38-0.2482-3.889-1.857-7.409-4.591-9.724-3.434-2.804-7.714-3.937-11.73-3.959-4.019-0.0218-8.049 0.6042-11.61 1.301l-1.467 0.2873v42.76h8.856c-6e-3 -12.03 0.0146-25.48 0.0136-36.45 1.404-0.2768 3.085-0.3959 4.605-0.2601 1.673 0.2606 3.197 0.7867 4.742 1.815 1.325 1.152 1.771 2.515 2.017 4.12 0 1.797-0.8441 3.157-1.889 4.342-1.27 1.118-2.607 2.389-4.207 2.634-1.48 0.0457-2.877 0.6805-3.863 1.68-0.9258 0.9386-1.392 2.647-1.398 3.027 1.087 0.4412 1.866 0.7527 3.198 0.9115z" style="fill:#290a43;stroke-width:.9313"/>
 <path id="ts1R" d="m748.8 541.3c-1.189 1.622-2.72 2.9-4.594 3.837l-1.297 0.4322 1.081 0.4323c1.333 0.9007 2.342 2 3.027 3.297 0.7206 1.297 1.315 2.738 1.783 4.323 0.5044 1.549 0.9724 3.207 1.405 4.972 0.4684 1.729 1.117 3.512 1.946 5.35h-5.404c-0.7206-1.549-1.297-3.207-1.729-4.972-0.3964-1.766-0.8467-3.459-1.351-5.08-0.5046-1.622-1.153-3.062-1.946-4.323-0.7566-1.261-1.837-2.162-3.242-2.702-0.1081 0.0361-0.2702 0.0541-0.4864 0.0541-0.7926 0.072-1.639 0.09-2.54 0.054-0.9007-0.072-1.855-0.2342-2.864-0.4865 0.3964-0.9368 0.9907-1.711 1.783-2.324 0.8287-0.6125 1.82-0.9368 2.972-0.9724 0.9368-0.036 1.874-0.2521 2.81-0.6484 1.913-0.85 3.45-2.283 4.323-3.999 0.9423-2.149 1.071-4.203 0-6.053-1.055-1.976-2.798-3.342-4.701-4.053-2.099-0.7203-4.085-0.6286-6.161-0.5404-0.8287 0.0361-1.892 0.1802-3.188 0.4322v35.61h-5.134v-38.8c2.018-0.3963 3.873-0.7025 5.566-0.9185 1.694-0.2161 3.531-0.3241 5.512-0.3241 4.348 0.0439 7.637 1.081 10.37 3.459 2.908 2.205 3.87 5.454 3.891 8.467 0 1.909-0.6125 3.818-1.837 5.476z" style="fill:url(#linearGradient3789);stroke-width:.9158"/>
 <path id="tp1A" d="m786.6 552.3c-0.9277-1.559-2.35-3.066-4.316-3.13l-5.571-0.1826 4.336-12.8 10.24 29.58h9.487l-15.7-43.58h-7.661l-15.71 43.58h9.102l3.385-10.11h13.6s-0.6517-2.45-1.196-3.364z" style="fill:#290a43;stroke-width:.9313"/>
 <path id="ts1A" d="m783.5 524.3 14.16 39.29h-5.512l-10.97-31.66-0.3783-1.567-0.3783 1.567-6.053 17.35-0.5945 1.135 0.6486-0.1081h7.296q1.946 0 2.972 1.189 1.027 1.135 1.622 2.702h-13.62l-3.242 9.404h-5.134l14.16-39.29z" style="fill:url(#linearGradient3787);stroke-width:.9158"/>
 <path id="tp1N" d="m807.7 522.2v43.58h8.086v-28.47l17.83 28.47h7.493v-43.58h-8.251v27.35l-17.12-27.35z" style="fill:#290a43;stroke-width:.9313"/>
 <path id="ts1N" d="m814.8 532.2-0.7566-1.837 0.1082 1.837v31.4h-4.377v-39.29h5.134l19.08 30.48 0.6485 1.783-0.1081-1.892v-30.38h4.54v39.29h-4.594z" style="fill:url(#linearGradient3793);stroke-width:.9158"/>
 <path id="tpS" d="m853.6 524.8c-2.337 2.295-3.58 5.264-3.667 8.365 0.1541 4.425 2.306 7.79 5.374 10.11 3.068 2.317 6.232 3.551 9.167 5.34 2.215 1.307 3.411 2.848 3.922 5.213 0 1.446-0.4497 2.47-1.55 3.49-2.933 1.881-5.886 1.574-8.909 0.9916-2.438-0.5323-4.103-1.267-6.289-2.239l-2.76 6.902c2.547 1.305 5.463 2.286 7.92 2.807 1.994 0.3539 3.917 0.5176 5.825 0.58 4.045-0.0971 7.957-1.171 10.82-3.7 2.501-2.378 3.992-5.508 4.019-8.72-0.1474-4.494-2.315-7.954-5.549-10.45-2.965-2.203-6.156-3.65-9.118-5.439-1.266-0.7664-2.274-1.579-3.05-2.415-1.045-1.406-1.168-2.707-0.6392-4.059 0.7087-1.497 2.452-2.313 4.288-2.516 2.548 0.0819 5.025 0.4459 7.387 1.131l1.574 0.4759 2.878-6.925-1.899-0.5966c-3.499-1.091-7.093-1.72-10.55-1.683-3.453 0.0376-6.775 1.135-9.204 3.345z" style="fill:#290a43;stroke-width:.9313"/>
 <path id="tsS" d="m860.5 528.1c-1.58 0.612-2.497 1.797-3.188 3.135-0.781 2.087-0.2817 4.394 0.9724 5.836 0.9007 0.9724 2.035 1.874 3.405 2.702 2.994 1.861 6.179 3.25 8.809 5.242 1.369 1.045 2.504 2.27 3.405 3.675 1.755 3.141 1.779 6.195 0.4864 9.079-1.475 3.076-3.534 4.697-6.485 5.675-1.585 0.5765-3.405 0.8647-5.458 0.8647-1.865-0.0572-3.695-0.2274-5.404-0.5404-2.077-0.4122-4.045-1.037-5.836-1.892l1.405-3.513c1.622 0.7206 3.242 1.243 4.864 1.567 1.657 0.3242 3.116 0.4864 4.377 0.4864 2.558 0 4.54-0.6305 5.945-1.892 1.405-1.297 2.107-2.883 2.107-4.756-0.1634-3.194-2.359-5.175-4.701-6.647-1.333-0.8287-2.792-1.622-4.377-2.378-3.073-1.554-5.941-3.537-7.728-6.215-1.705-3.419-1.862-5.722-0.5945-8.863 1.236-2.514 3.344-4.322 5.728-5.242 1.333-0.5044 2.81-0.7566 4.432-0.7566 3.42 8e-3 6.822 0.7005 9.779 1.622l-1.459 3.513c-1.549-0.4683-2.99-0.7745-4.323-0.9185-2.084-0.2363-4.297-0.5278-6.161 0.2162z" style="fill:url(#linearGradient3785);stroke-width:.9158"/>
 <path id="tpP" d="m897.4 548.9c2.695 0.3227 5.76-0.1159 8.084-0.987 3.428-1.387 6.28-3.586 7.948-6.683 1.632-3.642 1.642-7.624 0.0836-10.98-1.827-3.647-5.017-6.127-8.509-7.367-2.017-0.7388-4.224-1.098-6.599-1.098l-5e-3 5e-3c-2.056 0-3.973 0.0932-5.759 0.2819-2.781 0.2772-4.765 0.6396-7.316 1.139v42.72l8.856 0.1855c-3.6e-4 -12.07 9.1e-4 -25.53 9.1e-4 -36.46 1.476-0.0942 2.988-0.2286 4.613-0.2428 1.624-0.0142 3.242 0.6997 4.706 1.849 1.469 1.153 2.125 2.799 2.225 4.424-0.2646 3.714-2.922 6.289-5.968 7.203-1.512 0.306-2.88 0.4955-3.968 1.376-0.9952 0.8053-1.989 3.286-1.989 3.286s2.324 1.201 3.596 1.352z" style="fill:#290a43;stroke-width:.9313"/>
 <path id="tsP" d="m911.6 540.5c-1.546 2.882-4.083 4.813-6.863 5.891-1.513 0.5765-3.081 0.9368-4.701 1.081-0.7926 0.072-1.639 0.09-2.54 0.054-0.9007-0.036-1.855-0.198-2.864-0.4862 0.3963-0.9368 0.9907-1.711 1.783-2.324 0.8287-0.6485 1.82-0.9724 2.972-0.9724 0.9368 0 1.874-0.1981 2.81-0.5945 1.932-0.8752 3.439-2.365 4.323-4.107 0.8784-2.107 0.907-4.397 0-6.323-0.4684-0.9724-1.099-1.82-1.892-2.54-1.811-1.526-4.054-2.256-6.215-2.27-2.018 0-3.999 0.1081-5.945 0.3242v35.73l-5.134-0.108v-38.8c2.018-0.3963 3.873-0.6665 5.566-0.8106 3.899-0.319 7.882-0.5606 11.4 0.7026 3.235 1.223 5.997 3.384 7.35 6.323 1.26 3.065 1.376 6.454-0.0541 9.24z" style="fill:url(#linearGradient3783);stroke-width:.9158"/>
 <path id="tp1O" d="m934.5 523.4c-3.877 1.588-7.773 5.821-9.952 11.41-2.183 5.594-2.378 12.45-0.2442 18.11 2.133 5.652 6.001 9.761 10.87 12.01 5.239 2.013 10.95 1.999 15.97-0.2138 5.019-2.212 8.778-6.649 10.72-11.5 2.014-5.986 2.067-12.23 0.311-17.85-1.822-5.433-5.607-9.879-10.34-12.19-2.657-1.036-5.404-1.605-8.105-1.685-2.7-0.079-5.341 0.3278-9.222 1.916zm16.1 9.395c2.593 3.309 3.541 7.253 3.617 11.12-0.1136 3.942-0.9633 7.818-3.094 10.6-2.131 2.778-4.956 4.303-8.018 4.405-3.266-0.0847-5.988-1.692-7.847-3.975-2.373-3.334-3.23-7.337-3.248-11.02 0.0212-5.413 2.189-11.77 6.893-13.97 3.634-1.699 9.104-0.475 11.7 2.834z" style="fill:#290a43;stroke-width:.9313"/>
 <path id="ts1O" d="m926.4 534.9c2.125-4.667 5.724-8.391 10.16-10.16 4.665-1.696 10.02-1.571 14.22 0.3783 2.27 1.081 4.179 2.558 5.728 4.432 5.239 6.797 6.028 15.47 3.242 22.86-1.949 4.756-5.454 8.584-9.779 10.54-4.673 1.832-9.806 1.764-14.11 0-4.743-2.081-7.975-6.105-9.669-10.43-1.784-5.85-2.022-12.18 0.2162-17.62zm3.891 9.025c0.0491 4.369 1.105 8.638 3.566 11.94 2.409 2.87 5.688 4.565 9.131 4.594 3.824-0.1518 7.096-2 9.185-4.81 2.487-3.554 3.492-7.768 3.513-11.72-0.1029-4.385-1.159-8.785-3.729-12.05-2.37-2.771-5.6-4.404-8.971-4.432-3.666 0.1343-6.863 1.838-8.971 4.432-2.7 3.608-3.709 7.991-3.729 12.05z" style="fill:url(#linearGradient3781);stroke-width:.9158"/>
 <path id="tp2R" d="m986.5 548.4c0.4668 0.2038 1.379 1.774 1.801 2.262 1.657 2.88 2.485 6.166 3.142 9.024v0.0353c0.642 2.455 1.371 4.311 2.365 6.441h9.468c-1.168-2.523-2.373-5.314-3.037-7.733-0.4023-1.585-0.9633-3.618-1.439-5.094-0.9295-2.84-2.095-5.527-4.114-7.453 1.468-0.9587 2.803-2.072 3.835-3.477 1.469-1.989 2.225-4.363 2.225-6.904-0.2483-3.889-1.856-7.409-4.59-9.724-3.434-2.804-7.715-3.938-11.73-3.961-4.017-0.0251-8.045 0.6002-11.61 1.297l-1.467 0.2889v42.76h8.855c0-12.05-0.069-25.5 0.0141-36.44 2.375-0.4032 5.043-0.2593 7.027 0.2241h0.0281c2.568 1.185 4.27 2.846 4.313 5.437 0.0457 2.792-1.428 4.914-3.542 6.057-1.158 1.073-4.242 0.8439-5.709 2.101-1.897 1.624-2.031 2.312-2.316 3.45 2.205 1.586 3.942 1.115 6.491 1.402z" style="fill:#290a43;stroke-width:.9313"/>
 <path id="ts2R" d="m996.9 541.3c-1.189 1.622-2.72 2.9-4.594 3.837l-1.297 0.4322 1.081 0.4323c1.333 0.9007 2.342 2 3.027 3.297 0.7206 1.297 1.315 2.738 1.783 4.323 0.5044 1.549 0.9724 3.207 1.405 4.972 0.4684 1.729 1.117 3.513 1.946 5.35h-5.404c-0.7206-1.549-1.297-3.207-1.729-4.972-0.3963-1.766-0.8467-3.459-1.351-5.08-0.5046-1.622-1.153-3.062-1.946-4.323-0.7566-1.261-1.837-2.162-3.242-2.702-0.1081 0.0361-0.2703 0.0541-0.4864 0.0541-0.7926 0.072-1.639 0.09-2.54 0.054-0.9007-0.072-1.855-0.2342-2.864-0.4865 0.3963-0.9368 0.9907-1.711 1.783-2.324 0.8287-0.6125 1.82-0.9368 2.972-0.9724 0.9368-0.036 1.874-0.2521 2.81-0.6484 1.913-0.85 3.45-2.283 4.323-3.999 0.8615-2.009 0.9295-4.223 0-6.053-1.055-1.976-2.798-3.342-4.701-4.053-2.099-0.7203-4.085-0.6285-6.161-0.5404-0.8287 0.0361-1.892 0.1801-3.188 0.4322v35.61h-5.134v-38.8c2.018-0.3963 3.873-0.7025 5.566-0.9185 3.894-0.3912 7.86-0.6059 11.4 0.5946 3.184 1.223 5.983 3.32 7.35 6.215 1.47 3.475 1.246 7.415-0.8106 10.27z" style="fill:url(#linearGradient3779);stroke-width:.9158"/>
 <path id="tp2T" d="m1010 522.2v7.591h11.65v35.98h8.91v-35.98h11.71v-7.591z" style="fill:#290a43;stroke-width:.9313"/>
 <path id="ts2T" d="m1012 528.2v-3.891h28.16v3.891h-11.51v35.39h-5.188v-35.39z" style="fill:url(#linearGradient3777);stroke-width:.9158"/>
 <path id="tp2A" d="m1066 522.2-15.71 43.58h9.102l3.295-9.56h13.88l3.312 9.56h9.478l-15.7-43.58zm3.632 14 5.74 15.93c-1.05-1.225-1.277-2.772-4.206-3.232l-5.871-0.271z" style="fill:#290a43;stroke-width:.9313"/>
 <path id="ts2A" d="m1072 524.3 14.16 39.29h-5.512l-10.97-31.66-0.3783-1.567-0.3783 1.567-6.053 17.35-0.5945 1.135 0.6485-0.1081h7.296q1.946 0 2.972 1.189 1.027 1.135 1.622 2.702h-13.62l-3.242 9.404h-5.134l14.16-39.29z" style="fill:url(#linearGradient3775);stroke-width:.9158"/>
 <path id="tp3T" d="m1096 522.2v7.591h11.65v35.98h8.909v-35.98h11.71v-7.591z" style="fill:#290a43;stroke-width:.9313"/>
 <path id="ts3T" d="m1098 528.2v-3.891h28.16v3.891h-11.51v35.39h-5.188v-35.39z" style="fill:url(#linearGradient3773);stroke-width:.9158"/>
 <path id="tpI" d="m1137 522.2v43.58h8.69v-43.58z" style="fill:#290a43;stroke-width:.9313"/>
 <path id="tsI" d="m1143 563.6h-4.972v-39.29h4.972z" style="fill:url(#linearGradient3771);stroke-width:.9158"/>
 <path id="tp2O" d="m1165 523.4c-3.879 1.589-7.776 5.822-9.952 11.41-2.181 5.594-2.374 12.45-0.2409 18.11 2.133 5.652 6 9.761 10.87 12.01 5.239 2.013 10.95 1.999 15.97-0.2137 5.019-2.212 8.777-6.648 10.72-11.5 2.016-5.986 2.069-12.23 0.3128-17.85-1.823-5.432-5.607-9.879-10.34-12.19-5.928-2.386-12.45-1.733-17.33 0.2304zm16.32 9.404c2.368 3.302 3.316 7.251 3.392 11.12-0.114 3.942-0.9633 7.818-3.095 10.59-2.132 2.778-4.953 4.303-8.016 4.405-3.266-0.0847-5.988-1.692-7.847-3.975-2.373-3.334-3.23-7.337-3.248-11.02 0.087-4.06 0.7931-8.215 3.392-11.12 2.077-2.321 5.136-3.754 8.008-3.74 2.872 0.0151 5.61 1.514 7.412 3.73z" style="fill:#290a43;stroke-width:.9313"/>
 <path id="ts2O" d="m1157 534.9c2.185-4.99 5.724-8.391 10.16-10.16 4.705-1.857 10.02-1.571 14.22 0.3783 4.636 2.316 7.728 6.122 9.24 10.92 1.667 5.623 1.622 11.35-0.2703 16.37-1.949 4.978-5.272 8.564-9.779 10.54-4.754 1.974-9.806 1.764-14.11 0-5.005-2.121-7.995-6.024-9.669-10.43-1.825-5.524-2.057-12.1 0.2162-17.62zm4.81 15.72c1.187 3.939 3.503 7.018 6.701 8.647 3.392 1.727 7.215 1.556 10.27-0.1081 3.5-1.88 5.538-5.348 6.593-8.755 1.261-4.251 1.295-8.889-0.1081-13.29-1.215-3.842-3.512-6.92-6.756-8.539-3.366-1.63-6.851-1.427-9.834 0-3.874 2.051-5.666 5.172-6.81 8.539-1.342 4.69-1.326 9.222-0.054 13.51z" style="fill:url(#linearGradient3769);stroke-width:.9131"/>
 <path id="tp2N" d="m1202 522.2v43.58h8.086v-28.47l17.83 28.47h7.493v-43.58h-8.251v27.35l-17.12-27.35z" style="fill:#290a43;stroke-width:.9313"/>
 <path id="ts2N" d="m1209 532.2-0.7565-1.837 0.1081 1.837v31.4h-4.377v-39.29h5.134l19.08 30.48 0.6485 1.783-0.1081-1.892v-30.38h4.54v39.29h-4.594z" style="fill:url(#linearGradient5990);stroke-width:.9158"/>
 <path id="rsR" d="m705.9 427.3c-6.831 0.3873-13.31 1.405-19.43 2.546v87.13h13.24v-79.01c4.161-0.86 8.752-0.9706 12.51-0.9733 4.943 0.1734 9.815 1.742 13.37 4.734 3.387 3.097 5.55 7.405 5.588 11.65-0.1262 4.522-2.107 8.655-5.101 11.52-1.458 1.456-3.16 2.63-5.102 3.52-1.944 0.809-2.88 1.617-4.824 1.698-2.591 0.1616-4.778 1.274-6.56 2.973-1.782 1.699-2.754 2.69-3.645 4.794 1.863 0.4854 3.25 0.5456 4.95 0.7072 1.782 0.1615 3.471 0.194 5.01 0.1131 0.7711 0.047 1.622-0.0362 2.308-0.1211 2.914 1.375 4.177 4.115 5.796 6.946 1.62 2.831 2.956 6.027 4.008 9.587 1.134 3.479 2.146 7.159 3.037 11.05 0.8909 3.802 2.147 7.402 3.766 10.8h13.72c-1.944-4.207-3.441-8.373-4.494-12.5-0.9715-4.207-2.066-8.13-3.282-11.77-1.214-3.722-2.752-6.999-4.615-9.834-1.782-2.912-4.415-5.215-7.897-6.915l3.037-1.095c4.131-2.104 7.451-4.974 9.961-8.616 4.557-7.155 4.869-16.09 1.333-23.3-3.611-7.136-10.34-11.61-17.13-13.83-6.688-1.879-13.17-2.32-19.57-1.819l3e-3 4e-5z" style="fill:url(#linearGradient5665);stroke-width:6.64;stroke:url(#linearGradient5665)"/>
 <path id="rpR" d="m705.8 427.3c-6.831 0.3873-13.31 1.405-19.43 2.546v87.13h13.24v-79.01c4.161-0.86 8.752-0.9706 12.51-0.9733 4.943 0.1734 9.815 1.742 13.37 4.734 3.387 3.097 5.833 7.324 5.588 11.65 0.1563 4.967-1.864 8.937-5.101 11.52-2.829 3.189-6.825 4.67-10.56 4.855-2.591 0.1616-4.778 1.092-6.56 2.79-1.782 1.698-3.12 3.6-4.01 5.704 1.863 0.4854 3.647 0.8097 5.348 0.9715 1.782 0.1615 3.44 0.202 4.979 0.1211 0.7711 0.047 1.622-0.0362 2.308-0.1211 2.914 1.375 4.816 3.478 6.436 6.308 1.62 2.831 2.956 6.027 4.008 9.587 1.134 3.479 2.146 7.159 3.037 11.05 0.8909 3.802 2.147 7.402 3.766 10.8h13.72c-1.944-4.207-3.441-8.373-4.494-12.5-0.9715-4.207-2.066-8.13-3.282-11.77-1.214-3.722-2.752-6.999-4.615-9.834-1.782-2.912-4.415-5.215-7.897-6.915l3.037-1.095c4.291-1.862 7.209-4.45 9.961-8.616 2.511-3.722 3.899-7.154 3.764-12.86 0.2568-4.692-0.8103-7.201-2.431-10.44-3.611-7.459-10.34-11.61-17.13-13.83-6.688-1.879-13.17-2.32-19.57-1.819z" style="fill:url(#linearGradient5669);stroke-width:3.255;stroke:url(#linearGradient5669)"/>
 <path id="rbR" d="m686.5 429.9v87.12h13.25v-79.01c4.161-0.8589 8.753-0.9697 12.51-0.9724 2.591 0 5.024 0.4438 7.292 1.334 6.964 2.528 11.58 8.363 11.67 15.05-0.0367 6.976-4.969 12.53-10.21 15.05-1.944 0.809-3.886 1.255-5.83 1.336-2.591 0.1616-4.779 1.092-6.561 2.791-1.782 1.698-3.121 3.598-4.011 5.702 1.863 0.4854 3.647 0.811 5.348 0.9724 2.204 0.207 4.002 0.1198 6.075 0.1198 0.405 0 0.8105-0.0383 1.216-0.1198 2.916 1.375 5.184 3.477 6.805 6.308 3.532 6.653 5.487 13.88 7.046 20.63 0.891 3.802 2.147 7.401 3.766 10.8h13.73c-1.945-4.207-3.443-8.373-4.496-12.5-1.923-7.637-3.836-15.34-7.898-21.6-1.782-2.912-4.416-5.215-7.899-6.915l3.039-1.097c4.132-2.104 7.453-4.974 9.961-8.615 4.67-7.041 4.868-16.08 1.334-23.3-3.61-7.135-10.34-11.61-17.13-13.83-3.968-1.375-8.384-2.063-13.25-2.063-8.772 0.3211-17.73 1.219-25.76 2.798z" style="fill:url(#linearGradient5673);stroke-width:.914"/>
 <path id="rs1E" d="m759.6 427.9v88.23h52.97v-9.834h-39.72v-68.57h37.9v-9.824zm32.08 37.68c-1.538 0-2.913-0.0816-4.128 0.485-1.134 0.5662-2.147 1.113-3.037 2.003-1.647 1.807-3.082 4.009-3.766 6.006h28.05v-8.493z" style="fill:url(#linearGradient5675);stroke-width:6.64;stroke:url(#linearGradient5675)"/>
 <path id="rp1E" d="m759.6 427.9v88.23h52.97v-9.834h-39.72v-68.57h37.9v-9.824zm31.26 37.13c-1.538 0-2.912 0.2829-4.128 0.8495-3.65 1.759-6.589 8.266-6.803 8.736h29.34v-9.587z" style="fill:url(#linearGradient9323);stroke-width:3.255;stroke:url(#linearGradient5679)"/>
 <path id="rb1E" d="m760 427.9v88.23h52.98v-9.824h-39.72v-68.57h37.91v-9.824zm31.26 37.13c-1.538 0-2.916 0.2827-4.131 0.8493-3.696 1.976-5.479 4.725-6.806 8.736h29.16v-9.587z" style="fill:url(#linearGradient5681);stroke-width:.9131"/>
 <path id="rsS" d="m838.6 428.1c-6.245 2.159-10.84 6.283-13.37 11.53-2.877 7.003-2.418 14.84 1.213 20.51 2.025 3.075 4.536 5.745 7.532 8.01 6.353 4.627 13.41 7.416 19.69 11.29 3.077 1.78 5.629 3.804 7.654 6.069 3.34 4.109 3.834 9.569 1.822 13.83-1.888 3.759-4.933 6.191-8.745 7.401-5.837 1.927-11.92 1.004-17.13 0-3.725-0.7282-7.53-1.981-11.41-3.76l-3.523 8.858c4.535 2.185 9.11 3.681 13.72 4.489 4.616 0.89 8.666 1.335 12.14 1.335 4.616 0 8.749-0.6065 12.39-1.82 6.774-2.184 12.05-6.335 14.94-12.5 1.377-2.912 2.066-6.027 2.066-9.35 0-4.612-1.012-8.493-3.037-11.65-2.024-3.237-4.576-6.029-7.654-8.375-3.078-2.427-6.397-4.53-9.961-6.308-6.306-3.497-12.81-6.601-17.61-11.53-2.025-2.185-3.037-4.812-3.037-7.887 0-3.317 1.172-6.15 3.522-8.496 2.349-2.347 5.668-3.612 9.961-3.612 2.349 0 4.981 0.2951 7.897 0.6997 2.997 0.3239 6.277 1.013 9.843 2.064l3.643-8.738c-4.455-1.375-8.423-2.346-11.91-2.912-7.052-0.9952-14.04-1.377-20.65 0.8555z" style="fill:url(#linearGradient5683);stroke-width:6.64;stroke:url(#linearGradient5683)"/>
 <path id="rpS" d="m830.5 432.6c-5.112 4.359-7.128 10.31-7.169 16.14 0 4.531 1.012 8.333 3.037 11.4 2.025 3.075 4.536 5.745 7.532 8.01 6.353 4.627 13.41 7.416 19.69 11.29 5.684 3.271 10.67 7.567 10.69 14.44-0.1353 4.449-1.899 7.503-4.615 9.952-3.709 2.868-8.034 4.044-12.51 4.005-2.914 0-6.237-0.3643-9.961-1.093-3.725-0.7282-7.53-1.981-11.41-3.76l-3.523 8.858c4.535 2.185 9.11 3.681 13.72 4.489 8.533 1.739 17.02 1.957 24.53-0.4843 6.748-2.272 12.2-6.638 14.94-12.5 3.134-6.691 2.708-15.14-0.9706-21-2.024-3.237-4.576-6.029-7.654-8.375-3.078-2.427-6.397-4.53-9.961-6.308-6.306-3.497-12.81-6.601-17.61-11.53-2.025-2.185-3.037-4.812-3.037-7.887 0-3.317 1.172-6.15 3.522-8.496 5.391-4.733 11.75-3.754 17.86-2.913 2.997 0.3239 6.277 1.013 9.843 2.064l3.643-8.738c-4.455-1.375-8.423-2.346-11.91-2.912-3.482-0.5662-7.004-0.8502-10.61-0.8467-6.905 0.1993-13.2 2.01-18.06 6.193z" style="fill:url(#linearGradient5687);stroke-width:3.619;stroke:url(#linearGradient5687)"/>
 <path id="rbS" d="m838.6 428.1c-6.264 2.118-10.79 6.064-13.37 11.53-2.805 6.613-2.417 14.84 1.214 20.51 2.026 3.075 4.536 5.745 7.533 8.01 6.844 4.983 13.11 7.138 19.69 11.29 3.078 1.78 5.63 3.803 7.655 6.068 3.691 4.126 3.642 10.44 1.821 13.83-2.161 4.307-5.19 6.15-8.747 7.403-5.535 1.886-11.69 0.9852-17.12 0-3.726-0.7282-7.532-1.98-11.41-3.76l-3.525 8.858c4.536 2.185 9.112 3.68 13.73 4.49 8.44 1.704 16.47 2.05 24.55-0.4861 6.765-2.494 11.98-6.172 14.94-12.5 1.377-2.912 2.066-6.027 2.066-9.35 0-4.612-1.011-8.494-3.037-11.65-4.45-7.033-11.02-11.36-17.62-14.68-6.306-3.498-12.65-6.447-17.62-11.53-4.62-5.182-3.569-12.63 0.487-16.38 2.349-2.347 5.669-3.521 9.961-3.521 6.156 0.1203 12.31 1.016 17.74 2.672l3.643-8.74c-4.456-1.375-8.426-2.345-11.92-2.911-3.607-0.3889-7.324-0.8293-10.77-0.835-3.45-6e-3 -6.811 0.5602-9.888 1.693z" style="fill:url(#linearGradient5691);stroke-width:.914"/>
 <path id="rsO" d="m884 472c0 6.957 1.051 13.27 3.156 18.94 3.922 11.05 11.87 19.94 21.87 23.78 11.12 4.244 22.94 4.283 33.41-0.2412 10.4-4.527 18.35-13.68 21.99-23.91 4.124-10.63 4.184-24.53 0.6092-35.8-3.444-11.54-10.94-20.32-20.89-24.88-11.55-4.725-23.05-5.079-34.22-0.5834-11.17 4.496-18.34 12.98-21.54 20.91-3.201 7.923-4.375 14.43-4.375 21.79zm61.58-26.09c5.812 7.66 7.299 16.35 7.899 26.09-0.1535 9.441-2.486 18.71-7.777 25.85-4.992 6.406-12.36 10.13-19.8 10.2-8.349-0.1178-15.59-4.031-20.04-10.32-5.562-7.727-7.611-17.07-7.653-25.72 0.1866-9.432 2.375-18.85 7.775-25.97 5.004-6.722 12.55-9.888 20.26-9.843 7.711 0.0425 14.86 3.456 19.34 9.715z" style="fill:url(#linearGradient5693);stroke-width:6.64;stroke:url(#linearGradient5693)"/>
 <path id="rpO" d="m884 472c0 6.957 1.051 13.27 3.156 18.94 3.922 11.05 11.81 19.42 21.87 23.78 11.12 4.244 22.94 4.283 33.41-0.2412 10.4-4.527 18.35-13.68 21.99-23.91 4.124-10.63 4.184-24.53 0.6092-35.8-3.444-11.54-10.94-20.32-20.89-24.88-11.55-4.725-23.05-5.079-34.22-0.5834-11.17 4.496-18.34 12.98-21.54 20.91-3.201 7.923-4.375 14.43-4.375 21.79zm69.47 0c-0.1535 9.441-2.486 18.71-7.777 25.85-12.45 14.25-30.14 13.07-39.84-0.1188-5.562-7.727-7.611-17.07-7.653-25.72 0.1866-9.432 2.375-18.85 7.775-25.97 5.004-6.722 12.55-9.888 20.26-9.843 7.713 0.0457 14.86 3.456 20 10.42 5.146 6.958 7.279 15.81 7.233 25.38z" style="fill:url(#linearGradient5697);stroke-width:3.255;stroke:url(#linearGradient5697)"/>
 <path id="rbO" d="m910.2 429.3c-11.25 4.678-19.16 13.65-22.67 23.26-5.101 12.75-4.267 27.73-0.3676 38.39 4.122 10.9 12.02 19.46 21.83 23.74 11.21 4.192 22.62 4.376 33.34-0.241 11.16-4.693 18.16-13.97 21.96-23.87 4.225-11.11 4.174-24.49 0.6068-35.74-3.554-11.12-10.18-19.85-20.86-24.83-12.71-4.773-23.33-4.857-33.85-0.7103zm26.45 9.45c8.523 4.576 12.25 11.38 14.54 18.65 2.611 9.797 2.825 19.9 0 29.07-2.584 8.465-7.484 15.18-14.43 18.9-7.366 3.829-15.67 3.397-22.31 0-7.461-4.306-12.07-11.67-14.43-19.02-2.455-9.697-2.669-19.77 0.1213-28.83 2.557-7.995 6.855-14.63 14.43-18.65 7.452-3.325 14.6-3.717 22.06-0.1232z" style="fill:url(#linearGradient5701);stroke-width:.914"/>
 <path id="rsL" d="m976.6 427.9v88.23h48.71c-0.092-3.289 0.1183-6.944 0.1212-9.952h-35.47v-78.28z" style="fill:url(#linearGradient5675);stroke-width:6.64;stroke:url(#linearGradient5675)"/>
 <path id="rpL" d="m976.6 427.9v88.23h48.71c-0.092-3.289 0.1183-6.944 0.1212-9.952h-35.47v-78.28z" style="fill:url(#linearGradient5679);stroke-width:3.255;stroke:url(#linearGradient5679)"/>
 <path id="rbL" d="m976.6 427.9v88.32h48.72c-0.093-3.289 0.1187-6.944 0.1217-9.952h-35.48v-78.37z" style="fill:url(#linearGradient5681);stroke-width:.914"/>
 <path id="rsU" d="m1032 427.2 0.1833 55.16c0.1375 9.468 2.807 18.73 8.868 25.24 6.817 6.715 15.3 9.523 24.66 9.341 10.01 0.0143 18.09-3.325 24.16-9.468 6.824-6.592 9.185-16.47 9.231-25.12v-55.16h-12.99v57.1c-0.4316 6.684-1.781 12.41-5.712 16.75-3.991 4.155-9.505 6.032-14.7 6.066-6.764 0.1839-11.11-2.254-14.82-6.066-4.051-4.845-5.844-10.75-5.589-16.75l-0.1831-57.1z" style="fill:url(#linearGradient5713);stroke-width:6.64;stroke:url(#linearGradient5713)"/>
 <path id="rpU" d="m1032 427.2 0.1833 55.16c0.018 5.34 0.7697 10.15 2.309 14.44 1.538 4.207 3.723 7.806 6.558 10.8 2.914 2.994 6.439 5.301 10.56 6.919 4.131 1.618 8.829 2.425 14.1 2.425 5.02 0 9.56-0.8075 13.6-2.425 4.131-1.698 7.651-4.047 10.56-7.041 2.914-3.074 5.183-6.715 6.802-10.92 1.62-4.289 2.43-9.02 2.43-14.2v-55.16h-12.99v57.1c0.2393 12.34-8.149 23.26-20.41 22.82-5.794-0.0444-11.11-2.254-14.82-6.066-4.051-4.845-5.559-11.08-5.589-16.75l-0.1831-57.1z" style="fill:url(#linearGradient5717);stroke-width:3.255;stroke:url(#linearGradient5717)"/>
 <path id="rbU" d="m1032 427.1v55.34c0.122 10.78 2.81 18.74 8.868 25.25 7.897 7.415 16.43 9.295 24.94 9.35 10.36 8e-3 18.1-3.318 24.17-9.468 7.25-7.652 9.185-16.46 9.231-25.12v-55.34h-13.28v57.28c-0.091 6.609-1.781 12.41-5.713 16.75-4.17 4.605-8.846 5.923-14.43 6.067-5.796-0.0441-10.62-1.763-14.82-6.067-4.434-5.282-5.557-11.08-5.587-16.75v-57.28z" style="fill:url(#linearGradient5721);stroke-width:.914"/>
 <path id="rsT" d="m1108 427.9v9.834h24.91v78.39h13.36v-78.39h25.03v-9.834z" style="fill:url(#linearGradient5675);stroke-width:6.64;stroke:url(#linearGradient5675)"/>
 <path id="rpT" d="m1108 427.9v9.834h24.91v78.39h13.36v-78.39h25.03v-9.834z" style="fill:url(#linearGradient5679);stroke-width:3.255;stroke:url(#linearGradient5679)"/>
 <path id="rbT" d="m1108 427.9v9.834h24.9v78.39h13.37v-78.39h25.03v-9.834z" style="fill:url(#linearGradient5681);stroke-width:.914"/>
 <path id="rs2E" d="m1180 427.9v88.23h52.97v-9.834h-39.72v-68.57h37.9v-9.824zm32.08 37.68c-1.538 0-2.913-0.0816-4.128 0.485-1.134 0.5662-2.147 1.113-3.037 2.003-1.647 1.807-3.082 4.009-3.766 6.006h28.05v-8.493z" style="fill:url(#linearGradient7643);stroke-width:6.64;stroke:url(#linearGradient7643)"/>
 <path id="rp2E" d="m1180 427.9v88.23h52.97v-9.834h-39.72v-68.57h37.9v-9.824zm31.26 37.13c-1.538 0-2.912 0.2829-4.128 0.8495-3.933 1.824-5.541 4.924-6.803 8.736h29.34v-9.587z" style="fill:url(#linearGradient9323);stroke-width:3.255;stroke:url(#linearGradient5679)"/>
 <path id="rb2E" d="m1180 427.9v88.23h52.98v-9.824h-39.72v-68.57h37.91v-9.824zm31.26 36.95c-1.538 0-3.099 0.4651-4.313 1.032-3.696 1.976-5.479 4.908-6.806 8.92h29.62l-3e-4 -9.952z" style="fill:url(#linearGradient5681);stroke-width:.914"/>
</svg>
