<svg width="77.02" height="20" preserveAspectRation="xMinYMin meet" version="1.1" viewBox="0 0 77.016465 20.000001" xmlns="http://www.w3.org/2000/svg" xmlns:xlink="http://www.w3.org/1999/xlink">
 <defs>
  <linearGradient id="linearGradientSlvr" x1="-1869" x2="-1869" y1="794.4" y2="828" gradientTransform="matrix(1.301,0,0,1.301,1365,-35.3)" gradientUnits="userSpaceOnUse">
   <stop style="stop-color:#696969" offset="0"/>
   <stop style="stop-color:#c7c7c9" offset=".17"/>
   <stop style="stop-color:#f9f9ff" offset=".36"/>
   <stop style="stop-color:#ccccce" offset=".73"/>
   <stop style="stop-color:#696969" offset="1"/>
  </linearGradient>
  <linearGradient id="linearGradient5990" x1="-1869" x2="-1869" y1="794.4" y2="828" gradientTransform="matrix(1.072 0 0 1.072 1895 -816)" gradientUnits="userSpaceOnUse" xlink:href="#linearGradientSlvr"/>
  <linearGradient id="linearGradient7643" x1="-1080" x2="-1080" y1="31.71" y2="108.7" gradientTransform="matrix(.8779 0 0 .8779 -646.2 -5425)" gradientUnits="userSpaceOnUse" xlink:href="#linearGradientSlvr"/>
  <linearGradient id="linearGradientPurp" x1="96.87" x2="96.87" y1=".6183" y2="84.13" gradientTransform="scale(.7835 1.276)" gradientUnits="userSpaceOnUse">
   <stop style="stop-color:#1c072d" offset="0"/>
   <stop style="stop-color:#5700aa" offset=".29"/>
   <stop style="stop-color:#4b127b" offset=".64"/>
   <stop style="stop-color:#290a43" offset="1"/>
  </linearGradient>
  <linearGradient id="linearGradientBlk" x1="884.1" x2="884.1" y1="-861.1" y2="-669.4" gradientTransform="matrix(.5122 0 0 .5116 -456 447.2)" gradientUnits="userSpaceOnUse">
   <stop style="stop-color:#141414" offset="0"/>
   <stop style="stop-color:#0a0a0a" offset=".15"/>
   <stop style="stop-color:#6d6d6d" offset=".3"/>
   <stop style="stop-color:#000000" offset=".44"/>
   <stop style="stop-color:#141414" offset=".62"/>
   <stop style="stop-color:#262626" offset=".75"/>
   <stop style="stop-color:#040404" offset="1"/>
  </linearGradient>
  <linearGradient id="linearGradient4577" x1="-1869" x2="-1869" y1="794.4" y2="828" gradientTransform="matrix(1.072 0 0 1.072 1894 -816)" gradientUnits="userSpaceOnUse" xlink:href="#linearGradientSlvr"/>
  <linearGradient id="linearGradient4579" x1="-1869" x2="-1869" y1="794.4" y2="828" gradientTransform="matrix(1.072 0 0 1.072 1896 -816)" gradientUnits="userSpaceOnUse" xlink:href="#linearGradientSlvr"/>
  <linearGradient id="linearGradient4622" x1="-1080" x2="-1080" y1="31.71" y2="108.7" gradientTransform="matrix(1.069 0 0 1.069 911.1 -83.6)" gradientUnits="userSpaceOnUse" xlink:href="#linearGradientSlvr"/>
  <linearGradient id="linearGradient4626" x1="96.87" x2="96.87" y1=".6183" y2="84.13" gradientTransform="matrix(.6436 0 0 1.048 -210.2 -54.57)" gradientUnits="userSpaceOnUse" xlink:href="#linearGradientPurp"/>
  <linearGradient id="linearGradient4630" x1="884.1" x2="884.1" y1="-861.1" y2="-669.4" gradientTransform="matrix(.4207 0 0 .4202 -584.7 312.8)" gradientUnits="userSpaceOnUse" xlink:href="#linearGradientBlk"/>
  <linearGradient id="linearGradient4642" x1="-1080" x2="-1080" y1="31.71" y2="108.7" gradientTransform="matrix(1.069 0 0 1.069 904.6 -86.19)" gradientUnits="userSpaceOnUse" xlink:href="#linearGradientSlvr"/>
  <linearGradient id="linearGradient4646" x1="96.87" x2="96.87" y1=".6183" y2="84.13" gradientTransform="matrix(.6436 0 0 1.048 -216.7 -57.16)" gradientUnits="userSpaceOnUse" xlink:href="#linearGradientPurp"/>
  <linearGradient id="linearGradient4650" x1="884.1" x2="884.1" y1="-861.1" y2="-669.4" gradientTransform="matrix(.4207 0 0 .4202 -591.3 310.2)" gradientUnits="userSpaceOnUse" xlink:href="#linearGradientBlk"/>
 </defs>
 <rect x="-234.4" y="196.8" width="688.1" height="310.3" style="fill:#0000ff"/>
 <path id="tp1T" d="m-210.2 34.72v6.829h10.48v32.37h8.015v-32.37h10.53v-6.829z" style="fill:#290a43;stroke-width:.8379"/>
 <path id="ts1T" d="m-208.3 40.15v-3.501h25.33v3.501h-10.36v31.84h-4.667v-31.84z" style="fill:url(#linearGradient5990);stroke-width:.8239"/>
 <path id="tp1R" d="m-163.4 57.97c0.7903 0.1573 1.646 0.09531 2.417 0.02919 2.047 1.07 3.014 4.115 3.604 5.981 0.4473 1.438 0.8494 2.943 1.328 4.809 0.4786 1.866 1.115 3.632 2.002 5.535h8.518l-1.042-2.309c-1.435-3.036-1.994-6.14-2.717-8.461-0.7236-2.323-1.308-3.747-2.027-5.044-0.4871-0.9184-1.173-1.708-1.94-2.435 3.309-2.144 5.412-5.736 5.452-9.34-0.2233-3.499-1.671-6.666-4.13-8.748-3.089-2.523-6.94-3.542-10.56-3.562-3.616-0.01957-7.241 0.5435-10.45 1.171l-1.32 0.2585v38.47h7.967c-0.00544-10.83 0.01313-22.93 0.01223-32.79 1.263-0.2491 2.776-0.3562 4.143-0.234 1.505 0.2344 2.876 0.7077 4.267 1.633 1.192 1.037 1.594 2.263 1.815 3.706 0 1.617-0.7594 2.841-1.7 3.907-1.143 1.005-2.345 2.149-3.785 2.37-1.332 0.04107-2.588 0.6122-3.476 1.511-0.833 0.8445-1.253 2.381-1.258 2.723 0.9783 0.3969 1.679 0.6772 2.877 0.82z" style="fill:#290a43;stroke-width:.8379"/>
 <path id="ts1R" d="m-151.4 52.22c-1.07 1.459-2.447 2.609-4.133 3.452l-1.167 0.3889 0.9726 0.3889c1.199 0.8104 2.107 1.799 2.723 2.966 0.6483 1.167 1.183 2.463 1.604 3.89 0.4538 1.394 0.8748 2.885 1.264 4.473 0.4214 1.556 1.005 3.16 1.75 4.814h-4.862c-0.6483-1.394-1.167-2.885-1.556-4.473-0.3566-1.589-0.7617-3.112-1.216-4.571-0.454-1.459-1.037-2.755-1.75-3.89-0.6806-1.134-1.653-1.945-2.917-2.431-0.09726 0.03242-0.2431 0.04869-0.4376 0.04869-0.7131 0.06483-1.474 0.08098-2.285 0.04856-0.8104-0.06483-1.669-0.2107-2.577-0.4377 0.3566-0.8428 0.8913-1.539 1.604-2.091 0.7455-0.551 1.637-0.8428 2.674-0.8748 0.8428-0.03242 1.686-0.2269 2.528-0.5834 1.721-0.7648 3.104-2.054 3.89-3.598 0.8477-1.934 0.9636-3.781 0-5.445-0.9488-1.778-2.517-3.006-4.23-3.646-1.888-0.648-3.675-0.5655-5.543-0.4862-0.7455 0.03242-1.702 0.1621-2.868 0.3889v32.04h-4.619v-34.91c1.815-0.3565 3.485-0.6321 5.008-0.8264 1.524-0.1944 3.177-0.2916 4.959-0.2916 3.912 0.03946 6.871 0.9726 9.332 3.112 2.616 1.984 3.482 4.906 3.501 7.617 0 1.718-0.551 3.435-1.653 4.926z" style="fill:url(#linearGradient5990);stroke-width:.8239"/>
 <path id="tp1A" d="m-116.4 61.83c-0.8346-1.402-2.114-2.758-3.883-2.816l-5.012-0.1643 3.901-11.52 9.217 26.61h8.535l-14.13-39.21h-6.893l-14.14 39.21h8.189l3.045-9.093h12.24s-0.5863-2.204-1.076-3.026z" style="fill:#290a43;stroke-width:.8379"/>
 <path id="ts1A" d="m-118.9 36.61 12.74 35.35h-4.959l-9.874-28.49-0.3403-1.41-0.3403 1.41-5.445 15.61-0.5348 1.021 0.5836-0.09725h6.564q1.75 0 2.674 1.07 0.9241 1.021 1.459 2.431h-12.26l-2.917 8.461h-4.619l12.74-35.35z" style="fill:url(#linearGradient5990);stroke-width:.8239"/>
 <path id="tp1N" d="m-96.47 34.72v39.21h7.275v-25.61l16.04 25.61h6.742v-39.21h-7.423v24.6l-15.4-24.6z" style="fill:#290a43;stroke-width:.8379"/>
 <path id="ts1N" d="m-90.15 43.76-0.6806-1.653 0.09734 1.653v28.25h-3.938v-35.35h4.619l17.17 27.42 0.5835 1.604-0.09726-1.702v-27.33h4.084v35.35h-4.133z" style="fill:url(#linearGradient5990);stroke-width:.8239"/>
 <path id="tpS" d="m-54.58 37.19c-2.103 2.065-3.221 4.736-3.299 7.526 0.1387 3.981 2.075 7.009 4.835 9.093 2.76 2.085 5.607 3.195 8.247 4.804 1.993 1.176 3.069 2.562 3.529 4.69 0 1.301-0.4046 2.222-1.395 3.14-2.638 1.692-5.295 1.416-8.015 0.892-2.193-0.4789-3.692-1.14-5.658-2.014l-2.483 6.209c2.292 1.174 4.915 2.057 7.125 2.525 1.794 0.3184 3.524 0.4657 5.241 0.5218 3.639-0.08731 7.159-1.054 9.734-3.328 2.25-2.14 3.591-4.955 3.616-7.845-0.1326-4.043-2.082-7.156-4.992-9.406-2.667-1.982-5.538-3.284-8.203-4.893-1.139-0.6895-2.046-1.42-2.744-2.173-0.9397-1.265-1.051-2.436-0.5751-3.652 0.6376-1.347 2.206-2.081 3.857-2.264 2.293 0.07374 4.52 0.4012 6.645 1.018l1.416 0.4281 2.589-6.231-1.709-0.5367c-3.148-0.9816-6.381-1.548-9.488-1.514-3.107 0.03384-6.095 1.021-8.28 3.01z" style="fill:#290a43;stroke-width:.8379"/>
 <path id="tsS" d="m-48.09 40.31c-1.422 0.5506-2.247 1.617-2.868 2.82-0.7027 1.878-0.2534 3.953 0.8748 5.251 0.8103 0.8749 1.831 1.686 3.063 2.431 2.694 1.674 5.559 2.923 7.925 4.716 1.231 0.9397 2.252 2.042 3.063 3.306 1.579 2.826 1.6 5.574 0.4376 8.168-1.327 2.767-3.179 4.226-5.835 5.105-1.426 0.5187-3.063 0.7779-4.911 0.7779-1.678-0.05147-3.324-0.2045-4.862-0.4862-1.869-0.3709-3.639-0.9332-5.251-1.702l1.264-3.16c1.459 0.6483 2.917 1.118 4.376 1.41 1.491 0.2917 2.804 0.4376 3.938 0.4376 2.302 0 4.084-0.5672 5.348-1.702 1.264-1.167 1.896-2.593 1.896-4.279-0.147-2.873-2.123-4.656-4.23-5.98-1.199-0.7455-2.512-1.459-3.938-2.139-2.765-1.398-5.345-3.182-6.953-5.592-1.534-3.076-1.675-5.148-0.5348-7.974 1.112-2.261 3.009-3.889 5.154-4.716 1.199-0.4538 2.528-0.6807 3.987-0.6807 3.077 0.007297 6.138 0.6303 8.798 1.459l-1.313 3.16c-1.394-0.4213-2.69-0.6968-3.89-0.8264-1.875-0.2126-3.866-0.4748-5.543 0.1946z" style="fill:url(#linearGradient5990);stroke-width:.8239"/>
 <path id="tpP" d="m-14.08 58.79c2.425 0.2903 5.182-0.1042 7.273-0.888 3.084-1.248 5.65-3.227 7.151-6.012 1.468-3.277 1.477-6.859 0.07524-9.882-1.644-3.281-4.514-5.513-7.655-6.628-1.815-0.6647-3.8-0.9882-5.937-0.9882l-0.004023 0.00381c-1.85 0-3.574 0.08388-5.181 0.2536-2.502 0.2494-4.287 0.5754-6.582 1.024v38.44l7.967 0.1669c-3.22e-4 -10.86 8.85e-4 -22.97 8.4e-4 -32.8 1.327-0.08472 2.689-0.2057 4.15-0.2184 1.461-0.01279 2.917 0.6295 4.234 1.663 1.322 1.037 1.911 2.519 2.002 3.98-0.2381 3.342-2.629 5.658-5.369 6.48-1.36 0.2754-2.591 0.4458-3.57 1.238-0.8954 0.7245-1.789 2.956-1.789 2.956s2.091 1.08 3.235 1.217z" style="fill:#290a43;stroke-width:.8379"/>
 <path id="tsP" d="m-1.268 51.4c-1.391 2.593-3.673 4.33-6.175 5.3-1.361 0.5187-2.772 0.8428-4.23 0.9726-0.7131 0.06483-1.474 0.08104-2.285 0.04856-0.8104-0.03235-1.669-0.1782-2.577-0.4374 0.3565-0.8428 0.8913-1.539 1.604-2.091 0.7455-0.5834 1.637-0.8748 2.674-0.8748 0.8428 0 1.686-0.1783 2.528-0.5349 1.738-0.7874 3.094-2.128 3.89-3.695 0.7903-1.896 0.816-3.956 0-5.688-0.4214-0.8749-0.989-1.637-1.702-2.285-1.63-1.373-3.647-2.03-5.592-2.042-1.815 0-3.598 0.09725-5.348 0.2917v32.14l-4.619-0.09712v-34.91c1.815-0.3565 3.485-0.5996 5.008-0.7293 3.508-0.287 7.092-0.5043 10.26 0.6321 2.91 1.101 5.395 3.044 6.613 5.688 1.134 2.758 1.238 5.807-0.04862 8.313z" style="fill:url(#linearGradient4579);stroke-width:.8239"/>
 <path id="tp1O" d="m18.53 35.87c-3.488 1.428-6.993 5.237-8.954 10.27-1.964 5.033-2.139 11.2-0.2197 16.29 1.919 5.085 5.399 8.781 9.775 10.8 4.713 1.811 9.849 1.798 14.37-0.1923 4.515-1.99 7.897-5.982 9.644-10.35 1.812-5.385 1.86-11 0.2798-16.06-1.64-4.888-5.044-8.888-9.307-10.97-2.39-0.9323-4.862-1.444-7.292-1.516-2.429-0.0711-4.805 0.2949-8.297 1.723zm14.48 8.453c2.333 2.977 3.186 6.526 3.254 10.01-0.1022 3.546-0.8666 7.033-2.784 9.537-1.917 2.5-4.459 3.871-7.214 3.963-2.938-0.07626-5.387-1.522-7.059-3.576-2.135-2.999-2.906-6.601-2.922-9.915 0.01902-4.87 1.97-10.59 6.201-12.57 3.269-1.529 8.191-0.4273 10.52 2.55z" style="fill:#290a43;stroke-width:.8379"/>
 <path id="ts1O" d="m11.3 46.47c1.911-4.198 5.15-7.549 9.143-9.143 4.197-1.526 9.011-1.414 12.79 0.3403 2.042 0.9726 3.76 2.302 5.154 3.987 4.713 6.115 5.423 13.92 2.917 20.57-1.754 4.279-4.906 7.722-8.798 9.479-4.204 1.649-8.822 1.587-12.69 0-4.267-1.872-7.174-5.492-8.699-9.381-1.605-5.263-1.819-10.96 0.1945-15.85zm3.501 8.119c0.04418 3.931 0.9939 7.772 3.209 10.74 2.167 2.582 5.118 4.107 8.214 4.133 3.44-0.1366 6.384-1.799 8.264-4.327 2.238-3.197 3.142-6.989 3.16-10.55-0.09258-3.945-1.042-7.904-3.355-10.84-2.132-2.493-5.038-3.962-8.071-3.987-3.298 0.1208-6.175 1.654-8.071 3.987-2.429 3.246-3.337 7.189-3.355 10.84z" style="fill:url(#linearGradient5990);stroke-width:.8239"/>
 <path id="tp2R" d="m65.35 58.3c0.4199 0.1833 1.24 1.596 1.62 2.035 1.491 2.591 2.236 5.547 2.827 8.118v0.03184c0.5776 2.209 1.234 3.879 2.128 5.794h8.518c-1.051-2.27-2.135-4.781-2.732-6.957-0.3619-1.426-0.8666-3.255-1.295-4.583-0.8362-2.556-1.884-4.972-3.701-6.705 1.321-0.8625 2.522-1.864 3.45-3.128 1.322-1.789 2.002-3.926 2.002-6.212-0.2234-3.499-1.67-6.666-4.129-8.748-3.089-2.523-6.941-3.543-10.56-3.563-3.614-0.0226-7.238 0.54-10.45 1.167l-1.32 0.2599v38.47h7.966c0-10.84-0.06208-22.94 0.01266-32.78 2.137-0.3628 4.537-0.2333 6.322 0.2015h0.0253c2.311 1.066 3.842 2.56 3.88 4.892 0.04114 2.512-1.285 4.421-3.186 5.449-1.042 0.9652-3.816 0.7593-5.136 1.89-1.707 1.461-1.827 2.08-2.084 3.104 1.984 1.427 3.546 1.003 5.84 1.262z" style="fill:#290a43;stroke-width:.8379"/>
 <path id="ts2R" d="m74.55 52.22c-1.07 1.459-2.447 2.609-4.133 3.452l-1.167 0.3889 0.9726 0.3889c1.199 0.8104 2.107 1.799 2.723 2.966 0.6483 1.167 1.183 2.463 1.604 3.89 0.4538 1.394 0.8748 2.885 1.264 4.473 0.4214 1.556 1.005 3.16 1.75 4.814h-4.862c-0.6483-1.394-1.167-2.885-1.556-4.473-0.3565-1.589-0.7617-3.112-1.216-4.571-0.454-1.459-1.037-2.755-1.75-3.89-0.6806-1.134-1.653-1.945-2.917-2.431-0.09726 0.03242-0.2431 0.04869-0.4376 0.04869-0.7131 0.06483-1.474 0.08098-2.285 0.04856-0.8104-0.06483-1.669-0.2107-2.577-0.4377 0.3565-0.8428 0.8913-1.539 1.604-2.091 0.7455-0.551 1.637-0.8428 2.674-0.8748 0.8428-0.03242 1.686-0.2269 2.528-0.5834 1.721-0.7648 3.104-2.054 3.89-3.598 0.775-1.807 0.8362-3.799 0-5.445-0.9488-1.778-2.517-3.006-4.23-3.646-1.888-0.648-3.675-0.5655-5.543-0.4862-0.7455 0.03242-1.702 0.1621-2.868 0.3889v32.04h-4.619v-34.91c1.815-0.3565 3.485-0.6321 5.008-0.8264 3.503-0.3519 7.072-0.5451 10.26 0.5349 2.864 1.101 5.383 2.987 6.613 5.592 1.323 3.126 1.121 6.671-0.7293 9.241z" style="fill:url(#linearGradient5990);stroke-width:.8239"/>
 <path id="tp2T" d="m87.28 34.72v6.829h10.48v32.37h8.016v-32.37h10.53v-6.829z" style="fill:#290a43;stroke-width:.8379"/>
 <path id="ts2T" d="m89.09 40.15v-3.501h25.33v3.501h-10.36v31.84h-4.667v-31.84z" style="fill:url(#linearGradient5990);stroke-width:.8239"/>
 <path id="tp2A" d="m136.7 34.72-14.14 39.21h8.189l2.965-8.601h12.49l2.98 8.601h8.527l-14.13-39.21zm3.268 12.59 5.164 14.33c-0.9446-1.102-1.149-2.494-3.784-2.908l-5.282-0.2438z" style="fill:#290a43;stroke-width:.8379"/>
 <path id="ts2A" d="m142.4 36.94 12.74 35.35h-4.959l-9.874-28.49-0.3403-1.41-0.3403 1.41-5.445 15.61-0.5348 1.021 0.5835-0.09725h6.564q1.75 0 2.674 1.07 0.9241 1.021 1.459 2.431h-12.26l-2.917 8.461h-4.619l12.74-35.35z" style="fill:url(#linearGradient5990);stroke-width:.8239"/>
 <path id="tp3T" d="m163 34.72v6.829h10.48v32.37h8.015v-32.37h10.53v-6.829z" style="fill:#290a43;stroke-width:.8379"/>
 <path id="ts3T" d="m164.8 40.15v-3.501h25.33v3.501h-10.36v31.84h-4.667v-31.84z" style="fill:url(#linearGradient4577);stroke-width:.8239"/>
 <path id="tpI" d="m199.6 34.72v39.21h7.818v-39.21z" style="fill:#290a43;stroke-width:.8379"/>
 <path id="tsI" d="m205.7 72.26h-4.473v-35.35h4.473z" style="fill:url(#linearGradient5990);stroke-width:.8239"/>
 <path id="tp2O" d="m224.7 35.87c-3.489 1.429-6.995 5.238-8.954 10.27-1.962 5.033-2.136 11.2-0.2168 16.29 1.919 5.085 5.398 8.781 9.775 10.8 4.713 1.811 9.849 1.798 14.37-0.1923 4.515-1.99 7.897-5.981 9.644-10.35 1.814-5.385 1.861-11 0.2814-16.06-1.64-4.887-5.044-8.888-9.307-10.97-5.333-2.146-11.2-1.559-15.59 0.2073zm14.68 8.461c2.131 2.971 2.983 6.523 3.052 10.01-0.1025 3.546-0.8666 7.033-2.785 9.529-1.918 2.5-4.456 3.871-7.211 3.963-2.938-0.07626-5.387-1.522-7.059-3.576-2.135-2.999-2.906-6.601-2.922-9.915 0.07851-3.653 0.7135-7.39 3.052-10.01 1.869-2.088 4.621-3.378 7.205-3.365 2.584 0.01356 5.047 1.362 6.668 3.356z" style="fill:#290a43;stroke-width:.8379"/>
 <path id="ts2O" d="m217.6 46.14c1.966-4.489 5.15-7.549 9.143-9.143 4.233-1.671 9.011-1.414 12.79 0.3403 4.17 2.083 6.953 5.508 8.313 9.824 1.5 5.059 1.459 10.21-0.2431 14.73-1.754 4.478-4.743 7.704-8.798 9.479-4.277 1.776-8.822 1.587-12.69 0-4.503-1.908-7.193-5.42-8.699-9.381-1.642-4.97-1.851-10.88 0.1945-15.85zm4.327 14.15c1.068 3.544 3.152 6.314 6.029 7.779 3.052 1.553 6.491 1.4 9.241-0.09725 3.149-1.691 4.982-4.811 5.932-7.877 1.134-3.825 1.165-7.997-0.09726-11.96-1.093-3.457-3.16-6.226-6.078-7.682-3.028-1.466-6.163-1.284-8.847 0-3.485 1.845-5.098 4.653-6.126 7.682-1.208 4.22-1.193 8.297-0.04862 12.16z" style="fill:url(#linearGradient5990);stroke-width:.8214"/>
 <path id="tp2N" d="m256.7 34.72v39.21h7.275v-25.61l16.04 25.61h6.742v-39.21h-7.423v24.6l-15.4-24.6z" style="fill:#290a43;stroke-width:.8379"/>
 <path id="ts2N" d="m263.2 43.76-0.6806-1.653 0.09726 1.653v28.25h-3.938v-35.35h4.619l17.17 27.42 0.5835 1.604-0.09727-1.702v-27.33h4.084v35.35h-4.133z" style="fill:url(#linearGradient5990);stroke-width:.8239"/>
 <path id="rsO" d="m-29.36-10.34c0 6.259 0.9455 11.94 2.84 17.04 3.528 9.939 10.68 17.94 19.67 21.4 10.01 3.818 20.63 3.853 30.06-0.217 9.356-4.073 16.51-12.31 19.78-21.51 3.71-9.562 3.764-22.07 0.5481-32.21-3.098-10.38-9.841-18.29-18.79-22.38-10.39-4.251-20.74-4.57-30.79-0.5249-10.05 4.045-16.5 11.68-19.38 18.81-2.88 7.128-3.936 12.98-3.936 19.61zm55.4-23.47c5.228 6.891 6.567 14.71 7.106 23.47-0.1381 8.494-2.237 16.83-6.997 23.26-4.491 5.763-11.12 9.118-17.82 9.175-7.511-0.106-14.02-3.627-18.03-9.282-5.004-6.952-6.848-15.36-6.885-23.14 0.1679-8.485 2.137-16.95 6.995-23.36 4.502-6.047 11.29-8.896 18.23-8.855 6.937 0.03823 13.36 3.109 17.4 8.74z" style="fill:url(#linearGradient4622);stroke-width:5.974;stroke:url(#linearGradient4622)"/>
 <path id="rpO" d="m-29.36-10.34c0 6.259 0.9455 11.94 2.84 17.04 3.528 9.939 10.63 17.47 19.67 21.4 10.01 3.818 20.63 3.853 30.06-0.217 9.356-4.073 16.51-12.31 19.78-21.51 3.71-9.562 3.764-22.07 0.5481-32.21-3.098-10.38-9.841-18.29-18.79-22.38-10.39-4.251-20.74-4.57-30.79-0.5249-10.05 4.045-16.5 11.68-19.38 18.81-2.88 7.128-3.936 12.98-3.936 19.61zm62.5 0c-0.1381 8.494-2.237 16.83-6.997 23.26-11.2 12.82-27.12 11.76-35.84-0.1069-5.004-6.952-6.848-15.36-6.885-23.14 0.1679-8.485 2.137-16.95 6.995-23.36 4.502-6.047 11.29-8.896 18.23-8.855 6.939 0.04114 13.36 3.109 18 9.373 4.63 6.26 6.549 14.23 6.507 22.84z" style="fill:url(#linearGradient4626);stroke-width:2.928;stroke:url(#linearGradient4626)"/>
 <path id="rbO" d="m-5.786-48.8c-10.12 4.208-17.23 12.28-20.4 20.92-4.589 11.47-3.839 24.95-0.3307 34.54 3.709 9.808 10.81 17.5 19.64 21.36 10.09 3.771 20.35 3.937 30-0.2168 10.04-4.222 16.34-12.57 19.76-21.47 3.801-9.997 3.755-22.03 0.5459-32.15-3.197-10.01-9.159-17.86-18.77-22.34-11.43-4.294-20.99-4.369-30.45-0.639zm23.8 8.502c7.668 4.117 11.02 10.24 13.09 16.78 2.349 8.814 2.542 17.9 0 26.15-2.325 7.616-6.733 13.66-12.98 17-6.627 3.445-14.1 3.057-20.07 0-6.713-3.874-10.86-10.5-12.98-17.11-2.209-8.724-2.401-17.78 0.1092-25.93 2.3-7.192 6.167-13.16 12.98-16.78 6.705-2.992 13.13-3.344 19.85-0.1108z" style="fill:url(#linearGradient4630);stroke-width:.8223"/>
 <path id="rsS" d="m-70.19-49.57c-5.619 1.943-9.751 5.652-12.03 10.37-2.588 6.301-2.175 13.35 1.091 18.45 1.822 2.767 4.081 5.169 6.776 7.207 5.716 4.163 12.07 6.672 17.71 10.15 2.768 1.602 5.064 3.422 6.886 5.46 3.005 3.697 3.449 8.609 1.64 12.44-1.699 3.382-4.438 5.57-7.868 6.659-5.251 1.734-10.72 0.9036-15.41 0-3.351-0.6551-6.774-1.783-10.27-3.383l-3.17 7.97c4.08 1.966 8.196 3.311 12.35 4.039 4.153 0.8007 7.796 1.201 10.93 1.201 4.153 0 7.871-0.5457 11.15-1.637 6.094-1.965 10.84-5.699 13.44-11.25 1.239-2.62 1.859-5.422 1.859-8.412 0-4.149-0.9102-7.641-2.732-10.48-1.821-2.912-4.117-5.424-6.886-7.535-2.769-2.183-5.755-4.075-8.962-5.675-5.674-3.146-11.52-5.939-15.85-10.37-1.822-1.966-2.732-4.329-2.732-7.096 0-2.984 1.055-5.533 3.168-7.643 2.114-2.111 5.1-3.25 8.962-3.25 2.114 0 4.481 0.2655 7.105 0.6295 2.696 0.2914 5.647 0.911 8.855 1.857l3.278-7.861c-4.008-1.237-7.578-2.11-10.71-2.62-6.344-0.8954-12.63-1.239-18.58 0.7697z" style="fill:url(#linearGradient4622);stroke-width:5.974;stroke:url(#linearGradient4622)"/>
 <path id="rpS" d="m-77.42-45.53c-4.599 3.922-6.413 9.274-6.45 14.52 0 4.076 0.9102 7.497 2.732 10.26 1.822 2.767 4.081 5.169 6.776 7.207 5.716 4.163 12.07 6.672 17.71 10.15 5.113 2.943 9.603 6.808 9.619 13-0.1217 4.003-1.709 6.75-4.152 8.954-3.337 2.58-7.228 3.638-11.25 3.603-2.622 0-5.611-0.3277-8.962-0.9832-3.351-0.6551-6.774-1.783-10.27-3.383l-3.17 7.97c4.08 1.966 8.196 3.311 12.35 4.039 7.677 1.565 15.31 1.76 22.07-0.4357 6.071-2.044 10.97-5.972 13.44-11.25 2.82-6.02 2.436-13.62-0.8732-18.89-1.821-2.912-4.117-5.424-6.886-7.535-2.769-2.183-5.755-4.075-8.962-5.675-5.674-3.146-11.52-5.939-15.85-10.37-1.822-1.966-2.732-4.329-2.732-7.096 0-2.984 1.055-5.533 3.168-7.643 4.85-4.258 10.57-3.377 16.07-2.62 2.696 0.2914 5.647 0.911 8.855 1.857l3.278-7.861c-4.008-1.237-7.578-2.11-10.71-2.62-3.133-0.5094-6.301-0.7649-9.545-0.7617-6.213 0.1793-11.88 1.808-16.25 5.572z" style="fill:url(#linearGradient4626);stroke-width:3.256;stroke:url(#linearGradient4626)"/>
 <path id="rbS" d="m-70.19-49.57c-5.636 1.906-9.709 5.455-12.03 10.37-2.523 5.95-2.174 13.35 1.093 18.45 1.823 2.767 4.081 5.169 6.777 7.207 6.158 4.483 11.8 6.422 17.71 10.15 2.769 1.602 5.065 3.421 6.887 5.459 3.32 3.712 3.277 9.389 1.638 12.44-1.944 3.875-4.669 5.533-7.869 6.66-4.98 1.697-10.51 0.8863-15.4 0-3.352-0.6551-6.776-1.782-10.27-3.383l-3.172 7.97c4.081 1.966 8.198 3.311 12.35 4.04 7.593 1.533 14.82 1.844 22.09-0.4374 6.086-2.244 10.78-5.553 13.44-11.25 1.239-2.62 1.859-5.422 1.859-8.412 0-4.149-0.9093-7.642-2.732-10.48-4.004-6.328-9.915-10.22-15.85-13.21-5.674-3.147-11.39-5.8-15.85-10.37-4.156-4.663-3.211-11.36 0.4382-14.74 2.114-2.111 5.1-3.167 8.962-3.167 5.538 0.1083 11.07 0.9143 15.96 2.404l3.278-7.863c-4.009-1.237-7.58-2.109-10.72-2.619-3.246-0.3498-6.59-0.7461-9.693-0.7512-3.104-0.005102-6.128 0.5039-8.896 1.523z" style="fill:url(#linearGradient4630);stroke-width:.8223"/>
 <path id="rsR" d="m-196-52.23c-6.145 0.3484-11.98 1.264-17.48 2.291v78.39h11.91v-71.08c3.743-0.7738 7.874-0.8732 11.25-0.8756 4.447 0.156 8.83 1.567 12.03 4.259 3.048 2.786 4.993 6.662 5.027 10.48-0.1135 4.069-1.896 7.786-4.589 10.37-1.312 1.31-2.843 2.366-4.59 3.167-1.749 0.7278-2.591 1.455-4.34 1.528-2.331 0.1454-4.198 0.946-5.802 2.475-1.603 1.529-2.477 2.62-3.279 4.512 1.676 0.4367 2.823 0.3906 4.353 0.536 1.603 0.1453 3.123 0.1745 4.507 0.1018 0.6937 0.0423 1.46 0.2676 2.077 0.1912 2.622 1.237 3.758 3.502 5.215 6.049 1.457 2.547 2.66 5.422 3.606 8.625 1.02 3.13 1.93 6.441 2.732 9.939 0.8015 3.421 1.931 6.659 3.388 9.718h12.35c-1.749-3.785-3.096-7.533-4.043-11.25-0.874-3.785-1.859-7.314-2.952-10.59-1.093-3.348-2.476-6.297-4.152-8.847-1.603-2.62-3.972-4.692-7.105-6.222l2.732-0.9849c3.716-1.893 6.704-4.475 8.962-7.751 4.1-6.437 4.381-14.47 1.199-20.96-3.249-6.42-9.299-10.45-15.41-12.44-6.017-1.691-11.85-2.087-17.6-1.636l0.00246 7e-5z" style="fill:url(#linearGradient4642);stroke-width:5.174;stroke:url(#linearGradient4642)"/>
 <path id="rpR" d="m-196.2-52.23c-6.145 0.3484-11.98 1.264-17.48 2.291v78.39h11.91v-71.08c3.743-0.7738 7.874-0.8732 11.25-0.8756 4.447 0.156 8.83 1.567 12.03 4.259 3.048 2.786 5.247 6.589 5.027 10.48 0.1406 4.469-1.578 8.141-4.49 10.47-2.545 2.869-5.64 4.401-9.004 4.567-2.331 0.1454-3.899 0.9824-5.502 2.51-1.603 1.528-2.807 2.54-3.608 4.432 1.676 0.4367 3.281 0.5284 4.811 0.674 1.603 0.1454 2.695 0.1817 4.079 0.1089 0.6937 0.04229 1.46 0.1674 2.077 0.09105 2.622 1.237 3.733 3.528 5.19 6.075 1.457 2.547 2.66 5.422 3.606 8.625 1.02 3.13 1.93 6.441 2.732 9.939 0.8015 3.421 1.931 6.659 3.388 9.718h12.35c-1.749-3.785-3.096-7.533-4.043-11.25-0.874-3.785-1.859-7.314-2.952-10.59-1.093-3.348-2.476-6.297-4.152-8.847-1.603-2.62-3.972-4.692-7.105-6.222l2.732-0.9849c3.861-1.675 6.486-4.004 8.962-7.751 2.259-3.348 3.508-6.436 3.386-11.57 0.231-4.221-0.729-6.479-2.187-9.389-3.249-6.71-9.299-10.45-15.41-12.44-6.017-1.691-11.85-2.087-17.6-1.636z" style="fill:url(#linearGradient4646);stroke-width:3.528;stroke:url(#linearGradient4646)"/>
 <path id="rbR" d="m-213.5-49.91v78.38h11.92v-71.08c3.743-0.7728 7.875-0.8724 11.25-0.8749 2.331 0 4.52 0.3993 6.56 1.2 6.265 2.275 10.42 7.524 10.5 13.54-0.03305 6.276-4.47 11.27-9.184 13.54-1.749 0.7278-3.496 1.129-5.245 1.202-2.331 0.1454-4.299 0.9825-5.903 2.511-1.603 1.528-2.808 3.237-3.609 5.13 1.676 0.4367 3.281 0.7296 4.811 0.8748 1.983 0.1862 3.6 0.1078 5.465 0.1078 0.3644 0 0.7292-0.03442 1.094-0.1078 2.624 1.237 4.664 3.128 6.122 5.675 3.177 5.986 4.937 12.49 6.339 18.56 0.8016 3.421 1.931 6.659 3.388 9.718h12.35c-1.75-3.785-3.098-7.533-4.045-11.25-1.73-6.871-3.451-13.8-7.105-19.44-1.603-2.62-3.972-4.692-7.106-6.221l2.734-0.9866c3.717-1.893 6.705-4.475 8.962-7.75 4.202-6.334 4.38-14.47 1.2-20.96-3.248-6.419-9.299-10.45-15.41-12.44-3.57-1.237-7.542-1.856-11.92-1.856-7.892 0.2889-15.95 1.097-23.17 2.517z" style="fill:url(#linearGradient4650);stroke-width:.8223"/>
 <path id="rsU" d="m103.7-49.79 0.1649 49.62c0.1237 8.518 2.525 16.85 7.978 22.7 6.133 6.041 13.77 8.568 22.19 8.403 9.003 0.01292 16.27-2.992 21.74-8.518 6.139-5.931 8.264-14.82 8.305-22.6v-49.62h-11.69v51.37c-0.3883 6.014-1.603 11.16-5.139 15.07-3.591 3.738-8.551 5.426-13.23 5.458-6.085 0.1654-9.997-2.028-13.33-5.458-3.645-4.359-5.257-9.668-5.028-15.07l-0.1648-51.37z" style="fill:url(#linearGradient4622);stroke-width:5.974;stroke:url(#linearGradient4622)"/>
 <path id="rpU" d="m103.7-49.79 0.1649 49.62c0.01596 4.805 0.6925 9.134 2.077 12.99 1.384 3.785 3.35 7.022 5.9 9.718 2.622 2.694 5.793 4.769 9.504 6.225 3.716 1.456 7.943 2.182 12.68 2.182 4.516 0 8.6-0.7265 12.23-2.182 3.716-1.528 6.884-3.641 9.504-6.334 2.622-2.766 4.663-6.042 6.12-9.824 1.457-3.858 2.187-8.115 2.187-12.77v-49.62h-11.69v51.37c0.2153 11.11-7.331 20.92-18.36 20.53-5.213-0.03991-9.997-2.028-13.33-5.458-3.645-4.359-5.001-9.972-5.028-15.07l-0.1648-51.37z" style="fill:url(#linearGradient4626);stroke-width:2.928;stroke:url(#linearGradient4626)"/>
 <path id="rbU" d="m103.6-49.87v49.79c0.1097 9.701 2.528 16.86 7.979 22.71 7.105 6.671 14.78 8.362 22.43 8.412 9.323 0.007362 16.28-2.985 21.74-8.518 6.522-6.884 8.264-14.81 8.305-22.6v-49.79h-11.94v51.53c-0.08145 5.946-1.603 11.16-5.14 15.07-3.752 4.143-7.958 5.329-12.98 5.458-5.215-0.03958-9.553-1.586-13.33-5.458-3.989-4.752-4.999-9.972-5.026-15.07v-51.53z" style="fill:url(#linearGradient4630);stroke-width:.8223"/>
 <path id="rsL" d="m54.01-48.39v79.38h43.82c-0.08288-2.959 0.1064-6.247 0.109-8.954h-31.91v-70.42z" style="fill:url(#linearGradient4622);stroke-width:5.974;stroke:url(#linearGradient4622)"/>
 <path id="rpL" d="m54.01-48.39v79.38h43.82c-0.08288-2.959 0.1064-6.247 0.109-8.954h-31.91v-70.42z" style="fill:url(#linearGradient4626);stroke-width:2.928;stroke:url(#linearGradient4626)"/>
 <path id="rbL" d="m54.01-48.39v79.46h43.83c-0.08338-2.959 0.1069-6.247 0.1095-8.954h-31.92v-70.5z" style="fill:url(#linearGradient4630);stroke-width:.8223"/>
 <path id="rsT" d="m171.8-48.39v8.847h22.41v70.53h12.02v-70.53h22.52v-8.847z" style="fill:url(#linearGradient4622);stroke-width:5.974;stroke:url(#linearGradient4622)"/>
 <path id="rpT" d="m171.8-48.39v8.847h22.41v70.53h12.02v-70.53h22.52v-8.847z" style="fill:url(#linearGradient4626);stroke-width:2.928;stroke:url(#linearGradient4626)"/>
 <path id="rbT" d="m171.8-48.39v8.847h22.4v70.53h12.03v-70.53h22.52v-8.847z" style="fill:url(#linearGradient4630);stroke-width:.8223"/>
 <path id="rs2E" d="m236.5-48.39v79.38h47.65v-8.847h-35.73v-61.69h34.1v-8.839zm28.87 33.9c-1.384 0-2.62-0.07342-3.714 0.4363-1.02 0.5094-1.931 1.001-2.732 1.802-1.482 1.626-2.772 3.607-3.388 5.403h25.23v-7.641z" style="fill:url(#linearGradient4622);stroke-width:5.974;stroke:url(#linearGradient4622)"/>
 <path id="rp2E" d="m236.5-48.39v79.38h47.65v-8.847h-35.73v-61.69h34.1v-8.839zm28.13 33.41c-1.384 0-2.62 0.2545-3.714 0.7643-3.539 1.641-4.985 4.43-6.121 7.859h26.39v-8.625z" style="fill:url(#linearGradient9323);stroke-width:2.928;stroke:url(#linearGradient4626)"/>
 <path id="rb2E" d="m236.5-48.39v79.38h47.66v-8.839h-35.73v-61.69h34.11v-8.839zm28.13 33.24c-1.384 0-2.788 0.4184-3.88 0.9283-3.325 1.778-4.929 4.415-6.123 8.025h26.65l-3e-4 -8.954z" style="fill:url(#linearGradient4630);stroke-width:.8223"/>
 <path id="rs1E" d="m-141.3-48.39v79.38h47.65v-8.847h-35.73v-61.69h34.1v-8.839zm28.87 33.9c-1.384 0-2.62-0.07342-3.714 0.4363-1.02 0.5094-1.931 1.001-2.732 1.802-1.482 1.626-2.772 3.607-3.388 5.403h25.23v-7.641z" style="fill:url(#linearGradient7643);stroke-width:5.974;stroke:url(#linearGradient7643)"/>
 <path id="rp1E" d="m-141.3-48.39v79.38h47.65v-8.847h-35.73v-61.69h34.1v-8.839zm28.13 33.41c-1.384 0-2.62 0.2545-3.714 0.7643-3.284 1.582-5.928 7.436-6.121 7.859h26.39v-8.625z" style="fill:url(#linearGradient9323);stroke-width:2.928;stroke:url(#linearGradient4626)"/>
 <path id="rb1E" d="m-140.9-48.39v79.38h47.66v-8.839h-35.73v-61.69h34.11v-8.839zm28.13 33.41c-1.384 0-2.624 0.2544-3.716 0.7641-3.325 1.778-4.929 4.251-6.123 7.86h26.24v-8.625z" style="fill:url(#linearGradient4630);stroke-width:.8214"/>
 <circle cx="-196.9" cy="-10.58" r="43.46" style="fill:#0000ff"/>
 <circle cx="-109.4" cy="-9.238" r="43.46" style="fill:#0000ff"/>
 <circle cx="-22.53" cy="-7.629" r="43.46" style="fill:#0000ff"/>
 <circle cx="64.38" cy="-7.629" r="43.46" style="fill:#0000ff"/>
 <circle cx="152.4" cy="-7.629" r="43.46" style="fill:#0000ff"/>
 <circle cx="239.8" cy="-7.629" r="43.46" style="fill:#0000ff"/>
 <circle cx="326.2" cy="-7.629" r="43.46" style="fill:#0000ff"/>
 <circle cx="414.2" cy="-7.629" r="43.46" style="fill:#0000ff"/>
 <circle cx="-240.5" cy="123.9" r="22" style="fill:#ff0000"/>
 <circle cx="-195.7" cy="123.9" r="22" style="fill:#ff0000"/>
 <circle cx="-150.2" cy="123.9" r="22" style="fill:#ff0000"/>
 <circle cx="-105.5" cy="123.9" r="22" style="fill:#ff0000"/>
 <circle cx="-60.7" cy="123.9" r="22" style="fill:#ff0000"/>
 <circle cx="-15.93" cy="123.9" r="22" style="fill:#ff0000"/>
 <circle cx="27.31" cy="123.9" r="22" style="fill:#ff0000"/>
 <circle cx="72.08" cy="123.9" r="22" style="fill:#ff0000"/>
 <circle cx="116.1" cy="123.9" r="22" style="fill:#ff0000"/>
 <circle cx="159.3" cy="123.9" r="22" style="fill:#ff0000"/>
 <circle cx="201.8" cy="123.9" r="22" style="fill:#ff0000"/>
 <circle cx="248.1" cy="123.9" r="22" style="fill:#ff0000"/>
 <circle cx="293.6" cy="123.9" r="22" style="fill:#ff0000"/>
 <circle cx="338.4" cy="123.9" r="22" style="fill:#ff0000"/>
</svg>
