<svg id="wheels-end.svg" version="1.1" viewBox="0 0 1920 1080" xmlns="http://www.w3.org/2000/svg">
 <path d="m762.6 472a48.29 48.29 0 0 1 -48.29 48.29 48.29 48.29 0 0 1 -48.29 -48.29 48.29 48.29 0 0 1 48.29 -48.29 48.29 48.29 0 0 1 48.29 48.29z" style="fill:#37abc8;stroke-width:1.111"/>
 <path d="m754.4 495.2-34.18-17.51-13.83 35.83 6.096-37.92-38.36-2.086 37.95-5.921-9.868-37.12 17.36 34.27 32.26-20.86-27.22 27.1z" style="fill:#00112b;stroke-width:1.111"/>
 <path d="m834.3 471.2a48.29 48.29 0 0 1 -48.29 48.29 48.29 48.29 0 0 1 -48.29 -48.29 48.29 48.29 0 0 1 48.29 -48.29 48.29 48.29 0 0 1 48.29 48.29z" style="fill:#37abc8;stroke-width:1.111"/>
 <path d="m803.7 512.3-20.84-32.26-29.9 24.11 24.25-29.79-32.17-20.98 35.82 13.84 10.01-37.08-2.098 38.36 38.36-1.934-37.12 9.856z" style="fill:#00112b;stroke-width:1.111"/>
 <path d="m897.8 472.7a48.29 48.29 0 0 1 -48.29 48.29 48.29 48.29 0 0 1 -48.29 -48.29 48.29 48.29 0 0 1 48.29 -48.29 48.29 48.29 0 0 1 48.29 48.29z" style="fill:#37abc8;stroke-width:1.111"/>
 <path d="m880.1 508.1-28.49-25.77-22.63 31.03 15.7-35.06-36.5-11.94 38.19 4.102 0.0755-38.41 7.899 37.59 36.56-11.8-33.31 19.12z" style="fill:#00112b;stroke-width:1.111"/>
 <path d="m974.1 472.9a48.29 48.29 0 0 1 -48.29 48.29 48.29 48.29 0 0 1 -48.29 -48.29 48.29 48.29 0 0 1 48.29 -48.29 48.29 48.29 0 0 1 48.29 48.29z" style="fill:#37abc8;stroke-width:1.111"/>
 <path d="m967.4 482.4-37.56-8.072-4.09 38.19-3.927-38.21-37.59 7.911 35.12-15.54-19.13-33.3 25.63 28.6 25.76-28.49-19.28 33.22z" style="fill:#00112b;stroke-width:1.111"/>
 <path d="m1049 471.2a48.29 48.29 0 0 1 -48.29 48.29 48.29 48.29 0 0 1 -48.29 -48.29 48.29 48.29 0 0 1 48.29 -48.29 48.29 48.29 0 0 1 48.29 48.29z" style="fill:#37abc8;stroke-width:1.111"/>
 <path d="m1032 506.6-28.49-25.77-22.63 31.03 15.7-35.06-36.5-11.94 38.19 4.102 0.0755-38.41 7.899 37.59 36.56-11.8-33.31 19.12z" style="fill:#00112b;stroke-width:1.111"/>
 <path d="m1114 471.9a48.29 48.29 0 0 1 -48.29 48.29 48.29 48.29 0 0 1 -48.29 -48.29 48.29 48.29 0 0 1 48.29 -48.29 48.29 48.29 0 0 1 48.29 48.29z" style="fill:#37abc8;stroke-width:1.111"/>
 <path d="m1072 513.3-11.79-36.56-35.12 15.56 31.12-22.5-25.65-28.59 31.02 22.64 19.27-33.22-11.96 36.5 37.56 8.059-38.41-0.0881z" style="fill:#00112b;stroke-width:1.111"/>
 <path d="m1188 471.2a48.29 48.29 0 0 1 -48.29 48.29 48.29 48.29 0 0 1 -48.29 -48.29 48.29 48.29 0 0 1 48.29 -48.29 48.29 48.29 0 0 1 48.29 48.29z" style="fill:#37abc8;stroke-width:1.111"/>
 <path d="m1157 512.3-20.84-32.26-29.9 24.11 24.24-29.79-32.17-20.98 35.82 13.84 10.01-37.08-2.098 38.36 38.36-1.934-37.12 9.856z" style="fill:#00112b;stroke-width:1.111"/>
 <path d="m1254 471.2a48.29 48.29 0 0 1 -48.29 48.29 48.29 48.29 0 0 1 -48.29 -48.29 48.29 48.29 0 0 1 48.29 -48.29 48.29 48.29 0 0 1 48.29 48.29z" style="fill:#37abc8;stroke-width:1.111"/>
 <path d="m1248 480.6-37.56-8.072-4.09 38.19-3.927-38.21-37.59 7.911 35.12-15.54-19.13-33.3 25.63 28.6 25.76-28.49-19.28 33.22z" style="fill:#00112b;stroke-width:1.111"/>
 <path d="m721.3 544.3a22.15 22.15 0 0 1 -22.15 22.15 22.15 22.15 0 0 1 -22.15 -22.15 22.15 22.15 0 0 1 22.15 -22.15 22.15 22.15 0 0 1 22.15 22.15z" style="fill:#ffdd55;stroke-width:.886"/>
 <path d="m714.3 559.2-13.97-12.17-3.693 18.16 0.8056-18.5-16.49 8.431 14.98-10.91-16.88-7.64 17.86 4.904-4.549-17.96 7.304 17.02 11.2-14.76-8.756 16.33 18.52-0.4391-18.22 3.333z" style="fill:#b380ff;stroke-width:.9143"/>
 <path d="m761.4 543.9a22.15 22.15 0 0 1 -22.15 22.15 22.15 22.15 0 0 1 -22.15 -22.15 22.15 22.15 0 0 1 22.15 -22.15 22.15 22.15 0 0 1 22.15 22.15z" style="fill:#ffdd55;stroke-width:.886"/>
 <path d="m753.7 558.7-13.97-12.17-3.693 18.16 0.8057-18.5-16.49 8.431 14.98-10.91-16.88-7.64 17.86 4.904-4.549-17.96 7.304 17.02 11.2-14.76-8.756 16.33 18.52-0.4391-18.22 3.333z" style="fill:#b380ff;stroke-width:.9143"/>
 <path d="m803.4 544.3a22.15 22.15 0 0 1 -22.15 22.15 22.15 22.15 0 0 1 -22.15 -22.15 22.15 22.15 0 0 1 22.15 -22.15 22.15 22.15 0 0 1 22.15 22.15z" style="fill:#ffdd55;stroke-width:.886"/>
 <path d="m795.7 559.2-13.97-12.17-3.693 18.16 0.8057-18.5-16.49 8.431 14.98-10.91-16.88-7.64 17.86 4.904-4.549-17.96 7.304 17.02 11.2-14.76-8.756 16.33 18.52-0.4391-18.22 3.333z" style="fill:#b380ff;stroke-width:.9143"/>
 <path d="m846.6 544.3a22.15 22.15 0 0 1 -22.15 22.15 22.15 22.15 0 0 1 -22.15 -22.15 22.15 22.15 0 0 1 22.15 -22.15 22.15 22.15 0 0 1 22.15 22.15z" style="fill:#ffdd55;stroke-width:.886"/>
 <path d="m838.9 559.2-13.97-12.17-3.693 18.16 0.8058-18.5-16.49 8.431 14.98-10.91-16.88-7.64 17.86 4.904-4.549-17.96 7.304 17.02 11.2-14.76-8.756 16.33 18.52-0.4391-18.22 3.333z" style="fill:#b380ff;stroke-width:.9143"/>
 <path d="m885.4 543.6a22.15 22.15 0 0 1 -22.15 22.15 22.15 22.15 0 0 1 -22.15 -22.15 22.15 22.15 0 0 1 22.15 -22.15 22.15 22.15 0 0 1 22.15 22.15z" style="fill:#ffdd55;stroke-width:.886"/>
 <path d="m877.7 558.5-13.97-12.17-3.693 18.16 0.8056-18.5-16.49 8.431 14.98-10.91-16.88-7.64 17.86 4.904-4.549-17.96 7.304 17.02 11.2-14.76-8.756 16.33 18.52-0.4391-18.22 3.333z" style="fill:#b380ff;stroke-width:.9143"/>
 <path d="m922.1 544a22.15 22.15 0 0 1 -22.15 22.15 22.15 22.15 0 0 1 -22.15 -22.15 22.15 22.15 0 0 1 22.15 -22.15 22.15 22.15 0 0 1 22.15 22.15z" style="fill:#ffdd55;stroke-width:.886"/>
 <path d="m914.4 558.8-13.97-12.17-3.693 18.16 0.8057-18.5-16.49 8.431 14.98-10.91-16.88-7.64 17.86 4.904-4.549-17.96 7.304 17.02 11.2-14.76-8.756 16.33 18.52-0.4391-18.22 3.333z" style="fill:#b380ff;stroke-width:.9143"/>
 <path d="m965.2 543.7a22.15 22.15 0 0 1 -22.15 22.15 22.15 22.15 0 0 1 -22.15 -22.15 22.15 22.15 0 0 1 22.15 -22.15 22.15 22.15 0 0 1 22.15 22.15z" style="fill:#ffdd55;stroke-width:.886"/>
 <path d="m957.5 558.5-13.97-12.17-3.693 18.16 0.8057-18.5-16.49 8.431 14.98-10.91-16.88-7.64 17.86 4.904-4.549-17.96 7.304 17.02 11.2-14.76-8.756 16.33 18.52-0.4391-18.22 3.333z" style="fill:#b380ff;stroke-width:.9143"/>
 <path d="m1009 543.9a22.15 22.15 0 0 1 -22.15 22.15 22.15 22.15 0 0 1 -22.15 -22.15 22.15 22.15 0 0 1 22.15 -22.15 22.15 22.15 0 0 1 22.15 22.15z" style="fill:#ffdd55;stroke-width:.886"/>
 <path d="m1002 558.8-13.97-12.17-3.693 18.16 0.8056-18.5-16.49 8.431 14.98-10.91-16.88-7.64 17.86 4.904-4.549-17.96 7.304 17.02 11.2-14.76-8.756 16.33 18.52-0.4391-18.22 3.333z" style="fill:#b380ff;stroke-width:.9143"/>
 <path d="m1049 544.3a22.15 22.15 0 0 1 -22.15 22.15 22.15 22.15 0 0 1 -22.15 -22.15 22.15 22.15 0 0 1 22.15 -22.15 22.15 22.15 0 0 1 22.15 22.15z" style="fill:#ffdd55;stroke-width:.886"/>
 <path d="m1041 559.2-13.97-12.17-3.693 18.16 0.8057-18.5-16.49 8.431 14.98-10.91-16.88-7.64 17.86 4.904-4.549-17.96 7.304 17.02 11.2-14.76-8.756 16.33 18.52-0.4391-18.22 3.333z" style="fill:#b380ff;stroke-width:.9143"/>
 <path d="m1092 544.3a22.15 22.15 0 0 1 -22.15 22.15 22.15 22.15 0 0 1 -22.15 -22.15 22.15 22.15 0 0 1 22.15 -22.15 22.15 22.15 0 0 1 22.15 22.15z" style="fill:#ffdd55;stroke-width:.886"/>
 <path d="m1084 559.2-13.97-12.17-3.693 18.16 0.8057-18.5-16.49 8.431 14.98-10.91-16.88-7.64 17.86 4.904-4.549-17.96 7.304 17.02 11.2-14.76-8.756 16.33 18.52-0.4391-18.22 3.333z" style="fill:#b380ff;stroke-width:.9143"/>
 <path d="m1134 544a22.15 22.15 0 0 1 -22.15 22.15 22.15 22.15 0 0 1 -22.15 -22.15 22.15 22.15 0 0 1 22.15 -22.15 22.15 22.15 0 0 1 22.15 22.15z" style="fill:#ffdd55;stroke-width:.886"/>
 <path d="m1127 558.8-13.97-12.17-3.693 18.16 0.8056-18.5-16.49 8.431 14.98-10.91-16.88-7.64 17.86 4.904-4.55-17.96 7.304 17.02 11.2-14.76-8.756 16.33 18.52-0.4391-18.22 3.333z" style="fill:#b380ff;stroke-width:.9143"/>
 <path d="m1163 544a22.15 22.15 0 0 1 -22.15 22.15 22.15 22.15 0 0 1 -22.15 -22.15 22.15 22.15 0 0 1 22.15 -22.15 22.15 22.15 0 0 1 22.15 22.15z" style="fill:#ffdd55;stroke-width:.886"/>
 <path d="m1151 563.4-10.34-15.37-8.267 16.58 5.568-17.66-18.11 3.876 17.29-6.66-14.33-11.75 15.99 9.362 0.2531-18.52 2.65 18.33 14.64-11.36-12.68 13.5 18 4.37-18.46-1.497z" style="fill:#b380ff;stroke-width:.9143"/>
 <path d="m1196 544a22.15 22.15 0 0 1 -22.15 22.15 22.15 22.15 0 0 1 -22.15 -22.15 22.15 22.15 0 0 1 22.15 -22.15 22.15 22.15 0 0 1 22.15 22.15z" style="fill:#ffdd55;stroke-width:.886"/>
 <path d="m1188 558.8-13.97-12.17-3.694 18.15 0.8041-18.51-16.49 8.43 14.98-10.91-16.88-7.64 17.86 4.904-4.549-17.96 7.304 17.02 11.2-14.76-8.754 16.33 18.52-0.4388-18.23 3.333z" style="fill:#b380ff;stroke-width:.9143"/>
 <path d="m1241 544.3a22.15 22.15 0 0 1 -22.15 22.15 22.15 22.15 0 0 1 -22.15 -22.15 22.15 22.15 0 0 1 22.15 -22.15 22.15 22.15 0 0 1 22.15 22.15z" style="fill:#ffdd55;stroke-width:.886"/>
 <path d="m1229 563.8-10.34-15.37-8.264 16.58 5.568-17.66-18.12 3.877 17.28-6.66-14.32-11.75 15.98 9.362 0.2515-18.52 2.651 18.34 14.64-11.36-12.68 13.5 18 4.368-18.47-1.498z" style="fill:#b380ff;stroke-width:.9143"/>
</svg>
