<svg version="1.1" viewBox="0 0 1925 1080" xmlns="http://www.w3.org/2000/svg">
 <g id="r1r" transform="translate(-777 427.5)">
  <path d="M 87.55,43.46 A 43.46,43.46 0 0 1 44.09,86.92 43.46,43.46 0 0 1 0.63,43.46 43.46,43.46 0 0 1 44.09,0 43.46,43.46 0 0 1 87.55,43.46 Z" style="fill:#37abc8"/>
  <path d="m80.21 64.34-30.76-15.76-12.45 32.25 5.486-34.13-34.52-1.877l34.15-5.329-8.881-33.41 15.62 30.84 29.03-18.77-24.5 24.39z" style="fill:#00112b"/>
 </g>
 <g id="r1e" transform="translate(-777 427.5)">
  <path d="M 174.5,43.46 A 43.46,43.46 0 0 1 131.04,86.92 43.46,43.46 0 0 1 87.58,43.46 43.46,43.46 0 0 1 131.04,0 43.46,43.46 0 0 1 174.5,43.46 Z" style="fill:#37abc8"/>
  <path d="m146.9 80.42-18.76-29.03-26.91 21.7 21.82-26.81-28.95-18.88l32.24 12.46 9.012-33.37-1.888 34.52 34.52-1.741-33.41 8.87z" style="fill:#00112b"/>
 </g>
 <g id="r1s" transform="translate(-777 427.5)">
  <path d="M 261.5,43.46 A 43.46,43.46 0 0 1 218.04,86.92 43.46,43.46 0 0 1 174.58,43.46 43.46,43.46 0 0 1 218.04,0 43.46,43.46 0 0 1 261.5,43.46 Z" style="fill:#37abc8"/>
  <path d="m245.6 75.31-25.64-23.19-20.37 27.93 14.13-31.55-32.85-10.75l34.37 3.692 0.068-34.57 7.109 33.83 32.9-10.62-29.98 17.21z" style="fill:#00112b"/>
 </g>
 <g id="r1o" transform="translate(-777 427.5)">
  <path d="M 348.5,43.46 A 43.46,43.46 0 0 1 305.04,86.92 43.46,43.46 0 0 1 261.58,43.46 43.46,43.46 0 0 1 305.04,0 43.46,43.46 0 0 1 348.5,43.46 Z" style="fill:#37abc8"/>
  <path d="m342.5 51.97-33.8-7.265-3.681 34.37-3.534-34.39-33.83 7.12 31.61-13.99-17.22-29.97 23.07 25.74 23.18-25.64-17.35 29.9z" style="fill:#00112b"/>
 </g>
 <g id="r1l" transform="translate(-777 427.5)">
  <path d="M 436.5,43.46 A 43.46,43.46 0 0 1 393.04,86.92 43.46,43.46 0 0 1 349.58,43.46 43.46,43.46 0 0 1 393.04,0 43.46,43.46 0 0 1 436.5,43.46 Z" style="fill:#37abc8"/>
  <path d="m420.6 75.31-25.64-23.19-20.37 27.93 14.13-31.55-32.85-10.75l34.37 3.692 0.068-34.57 7.109 33.83 32.9-10.62-29.98 17.21z" style="fill:#00112b"/>
 </g>
 <g id="r1u" transform="translate(-777 427.5)">
  <path d="M 523.5,43.46 A 43.46,43.46 0 0 1 480.04,86.92 43.46,43.46 0 0 1 436.58,43.46 43.46,43.46 0 0 1 480.04,0 43.46,43.46 0 0 1 523.5,43.46 Z" style="fill:#37abc8"/>
  <path d="m485.7 80.66-10.61-32.9-31.61 14 28.01-20.25-23.08-25.73 27.92 20.38 17.34-29.9-10.76 32.85 33.8 7.253-34.57-0.0793z" style="fill:#00112b"/>
 </g>
 <g id="r1t" transform="translate(-777 427.5)">
  <path d="M 610.5,43.46 A 43.46,43.46 0 0 1 567.04,86.92 43.46,43.46 0 0 1 523.58,43.46 43.46,43.46 0 0 1 567.04,0 43.46,43.46 0 0 1 610.5,43.46 Z" style="fill:#37abc8"/>
  <path d="m582.9 80.42-18.76-29.03-26.91 21.7 21.82-26.81-28.95-18.88l32.24 12.46 9.012-33.37-1.888 34.52 34.52-1.741-33.41 8.87z" style="fill:#00112b"/>
 </g>
 <g id="r2e" transform="translate(-777 427.5)">
  <path d="M 698.5,43.46 A 43.46,43.46 0 0 1 655.04,86.92 43.46,43.46 0 0 1 611.58,43.46 43.46,43.46 0 0 1 655.04,0 43.46,43.46 0 0 1 698.5,43.46 Z" style="fill:#37abc8"/>
  <path d="m692.5 51.97-33.8-7.265-3.681 34.37-3.534-34.39-33.83 7.12 31.61-13.99-17.22-29.97 23.07 25.74 23.18-25.64-17.35 29.9z" style="fill:#00112b"/>
 </g>
 <g id="t1t" transform="translate(-777,426.9)">
  <path d="m50 113.1a25 25 0 0 1 -25 25 25 25 0 0 1 -25 -25 25 25 0 0 1 25 -25 25 25 0 0 1 25 25z" style="fill:#ffdd55"/>
  <path d="m40.81 129.3-15.28-13.31-4.039 19.86 0.8812-20.24-18.04 9.222 16.38-11.93-18.46-8.356 19.54 5.364-4.976-19.64 7.989 18.62 12.25-16.14-9.577 17.86 20.26-0.4803-19.93 3.645z" style="fill:#b380ff"/>
 </g>
 <g id="t1r" transform="translate(-777,426.9)">
  <path d="m100 113.1a25 25 0 0 1 -25 25 25 25 0 0 1 -25 -25 25 25 0 0 1 25 -25 25 25 0 0 1 25 25z" style="fill:#ffdd55"/>
  <path d="m90.81 129.3-15.28-13.31-4.039 19.86 0.8812-20.24-18.04 9.222 16.38-11.93-18.46-8.356 19.54 5.364-4.976-19.64 7.989 18.62 12.25-16.14-9.577 17.86 20.26-0.4803-19.93 3.645z" style="fill:#b380ff"/>
 </g>
 <g id="t1a" transform="translate(-777,426.9)">
  <path d="m150 113.1a25 25 0 0 1 -25 25 25 25 0 0 1 -25 -25 25 25 0 0 1 25 -25 25 25 0 0 1 25 25z" style="fill:#ffdd55"/>
  <path d="m140.8 129.3-15.28-13.31-4.039 19.86 0.8813-20.24-18.04 9.222 16.38-11.93-18.46-8.356 19.54 5.364-4.976-19.64 7.989 18.62 12.25-16.14-9.577 17.86 20.26-0.4803-19.93 3.645z" style="fill:#b380ff"/>
 </g>
 <g id="t1n" transform="translate(-777,426.9)">
  <path d="m200 113.1a25 25 0 0 1 -25 25 25 25 0 0 1 -25 -25 25 25 0 0 1 25 -25 25 25 0 0 1 25 25z" style="fill:#ffdd55"/>
  <path d="m190.8 129.3-15.28-13.31-4.039 19.86 0.8813-20.24-18.04 9.222 16.38-11.93-18.46-8.356 19.54 5.364-4.976-19.64 7.989 18.62 12.25-16.14-9.577 17.86 20.26-0.4803-19.93 3.645z" style="fill:#b380ff"/>
 </g>
 <g id="t1s" transform="translate(-777,426.9)">
  <path d="m250 113.1a25 25 0 0 1 -25 25 25 25 0 0 1 -25 -25 25 25 0 0 1 25 -25 25 25 0 0 1 25 25z" style="fill:#ffdd55"/>
  <path d="m240.8 129.3-15.28-13.31-4.039 19.86 0.8812-20.24-18.04 9.222 16.38-11.93-18.46-8.356 19.54 5.364-4.976-19.64 7.989 18.62 12.25-16.14-9.577 17.86 20.26-0.4803-19.93 3.645z" style="fill:#b380ff"/>
 </g>
 <g id="t1p" transform="translate(-777,426.9)">
  <path d="m300 113.1a25 25 0 0 1 -25 25 25 25 0 0 1 -25 -25 25 25 0 0 1 25 -25 25 25 0 0 1 25 25z" style="fill:#ffdd55"/>
  <path d="m290.8 129.3-15.28-13.31-4.039 19.86 0.8813-20.24-18.04 9.222 16.38-11.93-18.46-8.356 19.54 5.364-4.976-19.64 7.989 18.62 12.25-16.14-9.577 17.86 20.26-0.4803-19.93 3.645z" style="fill:#b380ff"/>
 </g>
 <g id="t1o" transform="translate(-777,426.9)">
  <path d="m350 113.1a25 25 0 0 1 -25 25 25 25 0 0 1 -25 -25 25 25 0 0 1 25 -25 25 25 0 0 1 25 25z" style="fill:#ffdd55"/>
  <path d="m340.8 129.3-15.28-13.31-4.039 19.86 0.8812-20.24-18.04 9.222 16.38-11.93-18.46-8.356 19.54 5.364-4.976-19.64 7.989 18.62 12.25-16.14-9.577 17.86 20.26-0.4803-19.93 3.645z" style="fill:#b380ff"/>
 </g>
 <g id="t2r" transform="translate(-777,426.9)">
  <path d="m400 113.1a25 25 0 0 1 -25 25 25 25 0 0 1 -25 -25 25 25 0 0 1 25 -25 25 25 0 0 1 25 25z" style="fill:#ffdd55"/>
  <path d="m390.8 129.3-15.28-13.31-4.039 19.86 0.8812-20.24-18.04 9.222 16.38-11.93-18.46-8.356 19.54 5.364-4.976-19.64 7.989 18.62 12.25-16.14-9.577 17.86 20.26-0.4803-19.93 3.645z" style="fill:#b380ff"/>
 </g>
 <g id="t2t" transform="translate(-777,426.9)">
  <path d="m450 113.1a25 25 0 0 1 -25 25 25 25 0 0 1 -25 -25 25 25 0 0 1 25 -25 25 25 0 0 1 25 25z" style="fill:#ffdd55"/>
  <path d="m440.8 129.3-15.28-13.31-4.039 19.86 0.8813-20.24-18.04 9.222 16.38-11.93-18.46-8.356 19.54 5.364-4.976-19.64 7.989 18.62 12.25-16.14-9.577 17.86 20.26-0.4803-19.93 3.645z" style="fill:#b380ff"/>
 </g>
 <g id="t2a" transform="translate(-777,426.9)">
  <path d="m500 113.1a25 25 0 0 1 -25 25 25 25 0 0 1 -25 -25 25 25 0 0 1 25 -25 25 25 0 0 1 25 25z" style="fill:#ffdd55"/>
  <path d="m490.8 129.3-15.28-13.31-4.039 19.86 0.8813-20.24-18.04 9.222 16.38-11.93-18.46-8.356 19.54 5.364-4.976-19.64 7.989 18.62 12.25-16.14-9.577 17.86 20.26-0.4803-19.93 3.645z" style="fill:#b380ff"/>
 </g>
 <g id="t3t" transform="translate(-777,426.9)">
  <path d="m550 113.1a25 25 0 0 1 -25 25 25 25 0 0 1 -25 -25 25 25 0 0 1 25 -25 25 25 0 0 1 25 25z" style="fill:#ffdd55"/>
  <path d="m540.8 129.3-15.28-13.31-4.039 19.86 0.8812-20.24-18.04 9.222 16.38-11.93-18.46-8.356 19.54 5.364-4.976-19.64 7.989 18.62 12.25-16.14-9.577 17.86 20.26-0.4803-19.93 3.645z" style="fill:#b380ff"/>
 </g>
 <g id="t1i" transform="translate(-777,426.9)">
  <path d="m600 113.1a25 25 0 0 1 -25 25 25 25 0 0 1 -25 -25 25 25 0 0 1 25 -25 25 25 0 0 1 25 25z" style="fill:#ffdd55"/>
  <path d="m586.2 134.4-11.31-16.81-9.042 18.14 6.09-19.32-19.81 4.239 18.91-7.284-15.67-12.85 17.49 10.24 0.2768-20.26 2.898 20.05 16.01-12.42-13.87 14.77 19.69 4.78-20.19-1.637z" style="fill:#b380ff"/>
 </g>
 <g id="t2o" transform="translate(-777,426.9)">
  <path d="m650 113.1a25 25 0 0 1 -25 25 25 25 0 0 1 -25 -25 25 25 0 0 1 25 -25 25 25 0 0 1 25 25z" style="fill:#ffdd55"/>
  <path d="m640.8 129.3-15.28-13.31-4.04 19.85 0.8795-20.25-18.04 9.221 16.38-11.93-18.46-8.356 19.54 5.364-4.976-19.64 7.989 18.62 12.25-16.14-9.575 17.86 20.26-0.48-19.94 3.646z" style="fill:#b380ff"/>
 </g>
 <g id="t2n" transform="translate(-777,426.9)">
  <path d="m700 113.1a25 25 0 0 1 -25 25 25 25 0 0 1 -25 -25 25 25 0 0 1 25 -25 25 25 0 0 1 25 25z" style="fill:#ffdd55"/>
  <path d="m686.2 134.4-11.31-16.81-9.039 18.13 6.09-19.32-19.82 4.241 18.9-7.284-15.66-12.85 17.48 10.24 0.275-20.26 2.9 20.06 16.01-12.42-13.87 14.77 19.69 4.778-20.2-1.638z" style="fill:#b380ff"/>
 </g>
</svg>
