<svg viewBox="0 0 700.89093 140.46062" xmlns="http://www.w3.org/2000/svg">
 <g id="trans" transform="translate(3.252e-6 -496.3)">
  <g id="ct1T" transform="rotate(-15 -1071 -7711)">
   <path d="m-2142 611.8a25 25 0 0 1 -25 25 25 25 0 0 1 -25 -25 25 25 0 0 1 25 -25 25 25 0 0 1 25 25z" style="fill:#ffdd55"/>
   <path d="m-2151 628-15.28-13.31-4.039 19.86 0.8813-20.24-18.04 9.222 16.38-11.93-18.46-8.356 19.54 5.364-4.976-19.64 7.989 18.62 12.25-16.14-9.577 17.86 20.26-0.4803-19.93 3.645z" style="fill:#b380ff"/>
  </g>
  <g id="ct1R" transform="translate(2192)">
   <path d="m-2092 611.8a25 25 0 0 1 -25 25 25 25 0 0 1 -25 -25 25 25 0 0 1 25 -25 25 25 0 0 1 25 25z" style="fill:#ffdd55"/>
   <path d="m-2102 628-15.28-13.31-4.039 19.86 0.8812-20.24-18.04 9.222 16.38-11.93-18.46-8.356 19.54 5.364-4.976-19.64 7.989 18.62 12.25-16.14-9.577 17.86 20.26-0.4803-19.93 3.645z" style="fill:#b380ff"/>
  </g>
  <g id="ct1A" transform="rotate(-15 -976.2 -7753)">
   <path d="m-2052 611.8a25 25 0 0 1 -25 25 25 25 0 0 1 -25 -25 25 25 0 0 1 25 -25 25 25 0 0 1 25 25z" style="fill:#ffdd55"/>
   <path d="m-2062 628-15.28-13.31-4.039 19.86 0.8812-20.24-18.04 9.222 16.38-11.93-18.46-8.356 19.54 5.364-4.976-19.64 7.989 18.62 12.25-16.14-9.577 17.86 20.26-0.4803-19.93 3.645z" style="fill:#b380ff"/>
  </g>
  <g id="ct1N" transform="translate(2208 -1e-4)">
   <path d="m-2008 611.8a25 25 0 0 1 -25 25 25 25 0 0 1 -25 -25 25 25 0 0 1 25 -25 25 25 0 0 1 25 25z" style="fill:#ffdd55"/>
   <path d="m-2017 628-15.28-13.31-4.039 19.86 0.8813-20.24-18.04 9.222 16.38-11.93-18.46-8.356 19.54 5.364-4.976-19.64 7.989 18.62 12.25-16.14-9.577 17.86 20.26-0.4803-19.93 3.645z" style="fill:#b380ff"/>
  </g>
  <g id="ct1S" transform="rotate(-15 -881.7 -7794)">
   <path d="m-1963 611.8a25 25 0 0 1 -25 25 25 25 0 0 1 -25 -25 25 25 0 0 1 25 -25 25 25 0 0 1 25 25z" style="fill:#ffdd55"/>
   <path d="m-1973 628-15.28-13.31-4.039 19.86 0.8813-20.24-18.04 9.222 16.38-11.93-18.46-8.356 19.54 5.364-4.976-19.64 7.989 18.62 12.25-16.14-9.577 17.86 20.26-0.4803-19.93 3.645z" style="fill:#b380ff"/>
  </g>
  <g id="ct1P" transform="translate(2219 -.00015)">
   <path d="m-1919 611.8a25 25 0 0 1 -25 25 25 25 0 0 1 -25 -25 25 25 0 0 1 25 -25 25 25 0 0 1 25 25z" style="fill:#ffdd55"/>
   <path d="m-1928 628-15.28-13.31-4.039 19.86 0.8812-20.24-18.04 9.222 16.38-11.93-18.46-8.356 19.54 5.364-4.976-19.64 7.989 18.62 12.25-16.14-9.577 17.86 20.26-0.4803-19.93 3.645z" style="fill:#b380ff"/>
  </g>
  <g id="ct1O" transform="rotate(-15 -787.2 -7836)">
   <path d="m-1874 611.8a25 25 0 0 1 -25 25 25 25 0 0 1 -25 -25 25 25 0 0 1 25 -25 25 25 0 0 1 25 25z" style="fill:#ffdd55"/>
   <path d="m-1884 628-15.28-13.31-4.039 19.86 0.8813-20.24-18.04 9.222 16.38-11.93-18.46-8.356 19.54 5.364-4.976-19.64 7.989 18.62 12.25-16.14-9.577 17.86 20.26-0.4803-19.93 3.645z" style="fill:#b380ff"/>
  </g>
  <g id="ct2R" transform="translate(2230 -.00015)">
   <path d="m-1830 611.8a25 25 0 0 1 -25 25 25 25 0 0 1 -25 -25 25 25 0 0 1 25 -25 25 25 0 0 1 25 25z" style="fill:#ffdd55"/>
   <path d="m-1839 628-15.28-13.31-4.039 19.86 0.8812-20.24-18.04 9.222 16.38-11.93-18.46-8.356 19.54 5.364-4.976-19.64 7.989 18.62 12.25-16.14-9.577 17.86 20.26-0.4803-19.93 3.645z" style="fill:#b380ff"/>
  </g>
  <g id="ct2T" transform="rotate(-15 -692.6 -7877)">
   <path d="m-1785 611.8a25 25 0 0 1 -25 25 25 25 0 0 1 -25 -25 25 25 0 0 1 25 -25 25 25 0 0 1 25 25z" style="fill:#ffdd55"/>
   <path d="m-1794 628-15.28-13.31-4.039 19.86 0.8812-20.24-18.04 9.222 16.38-11.93-18.46-8.356 19.54 5.364-4.976-19.64 7.989 18.62 12.25-16.14-9.577 17.86 20.26-0.4803-19.93 3.645z" style="fill:#b380ff"/>
  </g>
  <g id="ct2A" transform="translate(2192)">
   <path d="m-1692 611.8a25 25 0 0 1 -25 25 25 25 0 0 1 -25 -25 25 25 0 0 1 25 -25 25 25 0 0 1 25 25z" style="fill:#ffdd55"/>
   <path d="m-1701 628-15.28-13.31-4.039 19.86 0.8813-20.24-18.04 9.222 16.38-11.93-18.46-8.356 19.54 5.364-4.976-19.64 7.989 18.62 12.25-16.14-9.577 17.86 20.26-0.4803-19.93 3.645z" style="fill:#b380ff"/>
  </g>
  <g id="ct3T" transform="rotate(-15 -598.1 -7919)">
   <path d="m-1696 611.8a25 25 0 0 1 -25 25 25 25 0 0 1 -25 -25 25 25 0 0 1 25 -25 25 25 0 0 1 25 25z" style="fill:#ffdd55"/>
   <path d="m-1705 628-15.28-13.31-4.039 19.86 0.8812-20.24-18.04 9.222 16.38-11.93-18.46-8.356 19.54 5.364-4.976-19.64 7.989 18.62 12.25-16.14-9.577 17.86 20.26-0.4803-19.93 3.645z" style="fill:#b380ff"/>
  </g>
  <g id="ct1I" transform="translate(2192)">
   <path d="m-1592 611.8a25 25 0 0 1 -25 25 25 25 0 0 1 -25 -25 25 25 0 0 1 25 -25 25 25 0 0 1 25 25z" style="fill:#ffdd55"/>
   <path d="m-1601 628-15.28-13.31-4.039 19.86 0.8813-20.24-18.04 9.222 16.38-11.93-18.46-8.356 19.54 5.364-4.976-19.64 7.989 18.62 12.25-16.14-9.577 17.86 20.26-0.4803-19.93 3.645z" style="fill:#b380ff"/>
  </g>
  <g id="ct2O" transform="translate(2192)">
   <path d="m-1542 611.8a25 25 0 0 1 -25 25 25 25 0 0 1 -25 -25 25 25 0 0 1 25 -25 25 25 0 0 1 25 25z" style="fill:#ffdd55"/>
   <path d="m-1556 631.7-11.31-16.81-9.04 18.13 6.09-19.33-19.81 4.238 18.91-7.287-15.67-12.85 17.49 10.24 0.2774-20.26 2.898 20.05 16.01-12.42-13.87 14.77 19.69 4.779-20.2-1.638z" style="fill:#b380ff"/>
  </g>
  <g id="ct2N" transform="translate(2192)">
   <path d="m-1491 611.8a25 25 0 0 1 -25 25 25 25 0 0 1 -25 -25 25 25 0 0 1 25 -25 25 25 0 0 1 25 25z" style="fill:#ffdd55"/>
   <path d="m-1497 623.2-18.2-8.903 1.237 20.22-4.388-19.78-15.04 13.58 12.73-15.76-19.99-3.294 20.26 0.1238-9.89-17.68 12.54 15.92 7.66-18.76-4.629 19.73 19.44-5.707-18.31 8.68z" style="fill:#b380ff"/>
  </g>
 </g>
 <g id="res" transform="translate(3.252e-6 -496.3)">
  <g id="cr1R" transform="translate(2169 56.57)">
   <path d="m-2082 483.2a43.46 43.46 0 0 1 -43.46 43.46 43.46 43.46 0 0 1 -43.46 -43.46 43.46 43.46 0 0 1 43.46 -43.46 43.46 43.46 0 0 1 43.46 43.46z" style="fill:#37abc8"/>
   <path d="m-2092 506.7-30.76-15.76-12.45 32.25 5.486-34.13-34.52-1.877 34.15-5.329-8.881-33.41 15.62 30.84 29.03-18.77-24.5 24.39z" style="fill:#00112b"/>
  </g>
  <g id="cr1E" transform="translate(2169 56.57)">
   <path d="m-1995 483.2a43.46 43.46 0 0 1 -43.46 43.46 43.46 43.46 0 0 1 -43.46 -43.46 43.46 43.46 0 0 1 43.46 -43.46 43.46 43.46 0 0 1 43.46 43.46z" style="fill:#37abc8"/>
   <path d="m-2020 520.9-18.76-29.03-26.91 21.7 21.82-26.81-28.95-18.88 32.24 12.46 9.012-33.37-1.888 34.52 34.52-1.741-33.41 8.87z" style="fill:#00112b"/>
  </g>
  <g id="cr1S" transform="translate(2169 56.57)">
   <path d="m-1908 483.2a43.46 43.46 0 0 1 -43.46 43.46 43.46 43.46 0 0 1 -43.46 -43.46 43.46 43.46 0 0 1 43.46 -43.46 43.46 43.46 0 0 1 43.46 43.46z" style="fill:#37abc8"/>
   <path d="m-1924 515.1-25.64-23.19-20.37 27.93 14.13-31.55-32.85-10.75 34.37 3.692 0.068-34.57 7.109 33.83 32.9-10.62-29.98 17.21z" style="fill:#00112b"/>
  </g>
  <g id="cr1O" transform="translate(2169 56.57)">
   <path d="m-1821 483.2a43.46 43.46 0 0 1 -43.46 43.46 43.46 43.46 0 0 1 -43.46 -43.46 43.46 43.46 0 0 1 43.46 -43.46 43.46 43.46 0 0 1 43.46 43.46z" style="fill:#37abc8"/>
   <path d="m-1825 498-33.8-7.265-3.681 34.37-3.534-34.39-33.83 7.12 31.61-13.99-17.22-29.97 23.07 25.74 23.18-25.64-17.35 29.9z" style="fill:#00112b"/>
  </g>
  <g id="cr1L" transform="translate(2169 56.57)">
   <path d="m-1733 483.2a43.46 43.46 0 0 1 -43.46 43.46 43.46 43.46 0 0 1 -43.46 -43.46 43.46 43.46 0 0 1 43.46 -43.46 43.46 43.46 0 0 1 43.46 43.46z" style="fill:#37abc8"/>
   <path d="m-1749 515.1-25.64-23.19-20.37 27.93 14.13-31.55-32.85-10.75 34.37 3.692 0.068-34.57 7.109 33.83 32.9-10.62-29.98 17.21z" style="fill:#00112b"/>
  </g>
  <g id="cr1U" transform="translate(2169 56.57)">
   <path d="m-1646 483.2a43.46 43.46 0 0 1 -43.46 43.46 43.46 43.46 0 0 1 -43.46 -43.46 43.46 43.46 0 0 1 43.46 -43.46 43.46 43.46 0 0 1 43.46 43.46z" style="fill:#37abc8"/>
   <path d="m-1680 524.3-10.61-32.9-31.61 14 28.01-20.25-23.08-25.73 27.92 20.38 17.34-29.9-10.76 32.85 33.8 7.253-34.57-0.0793z" style="fill:#00112b"/>
  </g>
  <g id="cr1T" transform="translate(2169 56.57)" ud="cr1T">
   <path d="m-1559 483.2a43.46 43.46 0 0 1 -43.46 43.46 43.46 43.46 0 0 1 -43.46 -43.46 43.46 43.46 0 0 1 43.46 -43.46 43.46 43.46 0 0 1 43.46 43.46z" style="fill:#37abc8"/>
   <path d="m-1583 520.9-18.76-29.03-26.91 21.7 21.82-26.81-28.95-18.88 32.24 12.46 9.012-33.37-1.888 34.52 34.52-1.741-33.41 8.87z" style="fill:#00112b"/>
  </g>
  <g id="cr2E" transform="translate(2169 56.57)">
   <path d="m-1471 483.2a43.46 43.46 0 0 1 -43.46 43.46 43.46 43.46 0 0 1 -43.46 -43.46 43.46 43.46 0 0 1 43.46 -43.46 43.46 43.46 0 0 1 43.46 43.46z" style="fill:#37abc8"/>
   <path d="m-1476 498-33.8-7.265-3.681 34.37-3.534-34.39-33.83 7.12 31.61-13.99-17.22-29.97 23.07 25.74 23.18-25.64-17.35 29.9z" style="fill:#00112b"/>
  </g>
 </g>
</svg>
