<svg width="1920" height="1080" version="1.1" viewBox="0 0 507.99999 285.75" xmlns="http://www.w3.org/2000/svg" xmlns:xlink="http://www.w3.org/1999/xlink">
 <defs>
  <linearGradient id="linearGradientSlvr" x1="-1869" x2="-1869" y1="794.4" y2="828" gradientTransform="matrix(1.301,0,0,1.301,1365,-35.3)" gradientUnits="userSpaceOnUse">
   <stop style="stop-color:#696969" offset="0"/>
   <stop style="stop-color:#c7c7c9" offset=".17"/>
   <stop style="stop-color:#f9f9ff" offset=".36"/>
   <stop style="stop-color:#ccccce" offset=".73"/>
   <stop style="stop-color:#696969" offset="1"/>
  </linearGradient>
  <linearGradient id="linearGradient5990" x1="-1869" x2="-1869" y1="794.4" y2="828" gradientTransform="matrix(1.305 0 0 1.305 2563 -927)" gradientUnits="userSpaceOnUse" xlink:href="#linearGradientSlvr"/>
  <linearGradient id="linearGradient7643" x1="-1080" x2="-1080" y1="31.71" y2="108.7" gradientTransform="matrix(1.301,0,0,1.301,1365,-35.34)" gradientUnits="userSpaceOnUse" xlink:href="#linearGradientSlvr"/>
  <linearGradient id="linearGradientPurp" x1="96.87" x2="96.87" y1=".6183" y2="84.13" gradientTransform="scale(.7835 1.276)" gradientUnits="userSpaceOnUse">
   <stop style="stop-color:#1c072d" offset="0"/>
   <stop style="stop-color:#5700aa" offset=".29"/>
   <stop style="stop-color:#4b127b" offset=".64"/>
   <stop style="stop-color:#290a43" offset="1"/>
  </linearGradient>
  <linearGradient id="linearGradientBlk" x1="884.1" x2="884.1" y1="-861.1" y2="-669.4" gradientTransform="matrix(.5122 0 0 .5116 -456 447.2)" gradientUnits="userSpaceOnUse">
   <stop style="stop-color:#141414" offset="0"/>
   <stop style="stop-color:#0a0a0a" offset=".15"/>
   <stop style="stop-color:#6d6d6d" offset=".3"/>
   <stop style="stop-color:#000000" offset=".44"/>
   <stop style="stop-color:#141414" offset=".62"/>
   <stop style="stop-color:#262626" offset=".75"/>
   <stop style="stop-color:#040404" offset="1"/>
  </linearGradient>
  <linearGradient id="linearGradient3769" x1="-1869" x2="-1869" y1="794.4" y2="828" gradientTransform="matrix(1.305 0 0 1.305 2562 -926.9)" gradientUnits="userSpaceOnUse" xlink:href="#linearGradientSlvr"/>
  <linearGradient id="linearGradient3771" x1="-1869" x2="-1869" y1="794.4" y2="828" gradientTransform="matrix(1.305 0 0 1.305 2561 -927.3)" gradientUnits="userSpaceOnUse" xlink:href="#linearGradientSlvr"/>
  <linearGradient id="linearGradient3773" x1="-1869" x2="-1869" y1="794.4" y2="828" gradientTransform="matrix(1.305 0 0 1.305 2560 -927)" gradientUnits="userSpaceOnUse" xlink:href="#linearGradientSlvr"/>
  <linearGradient id="linearGradient3775" x1="-1869" x2="-1869" y1="794.4" y2="828" gradientTransform="matrix(1.305 0 0 1.305 2560 -927.4)" gradientUnits="userSpaceOnUse" xlink:href="#linearGradientSlvr"/>
  <linearGradient id="linearGradient3777" x1="-1869" x2="-1869" y1="794.4" y2="828" gradientTransform="matrix(1.305 0 0 1.305 2559 -927)" gradientUnits="userSpaceOnUse" xlink:href="#linearGradientSlvr"/>
  <linearGradient id="linearGradient3779" x1="-1869" x2="-1869" y1="794.4" y2="828" gradientTransform="matrix(1.305 0 0 1.305 2560 -927.3)" gradientUnits="userSpaceOnUse" xlink:href="#linearGradientSlvr"/>
  <linearGradient id="linearGradient3781" x1="-1869" x2="-1869" y1="794.4" y2="828" gradientTransform="matrix(1.305 0 0 1.305 2560 -927.3)" gradientUnits="userSpaceOnUse" xlink:href="#linearGradientSlvr"/>
  <linearGradient id="linearGradient3783" x1="-1869" x2="-1869" y1="794.4" y2="828" gradientTransform="matrix(1.305 0 0 1.305 2560 -927.2)" gradientUnits="userSpaceOnUse" xlink:href="#linearGradientSlvr"/>
  <linearGradient id="linearGradient3785" x1="-1869" x2="-1869" y1="794.4" y2="828" gradientTransform="matrix(1.305 0 0 1.305 2560 -927.3)" gradientUnits="userSpaceOnUse" xlink:href="#linearGradientSlvr"/>
  <linearGradient id="linearGradient3787" x1="-1869" x2="-1869" y1="794.4" y2="828" gradientTransform="matrix(1.305 0 0 1.305 2562 -927)" gradientUnits="userSpaceOnUse" xlink:href="#linearGradientSlvr"/>
  <linearGradient id="linearGradient3789" x1="-1869" x2="-1869" y1="794.4" y2="828" gradientTransform="matrix(1.305 0 0 1.305 2564 -927.3)" gradientUnits="userSpaceOnUse" xlink:href="#linearGradientSlvr"/>
  <linearGradient id="linearGradient3791" x1="-1869" x2="-1869" y1="794.4" y2="828" gradientTransform="matrix(1.305 0 0 1.305 2563 -927)" gradientUnits="userSpaceOnUse" xlink:href="#linearGradientSlvr"/>
  <linearGradient id="linearGradient3793" x1="-1869" x2="-1869" y1="794.4" y2="828" gradientTransform="matrix(1.305 0 0 1.305 2561 -927)" gradientUnits="userSpaceOnUse" xlink:href="#linearGradientSlvr"/>
  <linearGradient id="linearGradient5669" x1="96.87" x2="96.87" y1=".6183" y2="84.13" gradientTransform="scale(.7835 1.276)" gradientUnits="userSpaceOnUse" xlink:href="#linearGradientPurp"/>
  <linearGradient id="linearGradient5673" x1="884.1" x2="884.1" y1="-861.1" y2="-669.4" gradientTransform="matrix(.5122 0 0 .5116 -456 447.2)" gradientUnits="userSpaceOnUse" xlink:href="#linearGradientBlk"/>
 </defs>
 <g id="t1T" transform="matrix(.2558 0 0 .2558 174.4 17.99)">
  <path id="tp1T" d="m5e-4 108.7v8.314h12.76v39.41h9.757v-39.41h12.82v-8.314z" style="fill:#290a43;stroke-width:1.02"/>
  <path id="ts1T" d="m2.249 115.3v-4.262h30.84v4.262h-12.61v38.76h-5.682v-38.76z" style="fill:url(#linearGradient3791);stroke-width:1.003"/>
 </g>
 <g id="t1R" transform="matrix(.2558 0 0 .2558 174.4 17.99)">
  <path id="tp1R" d="m57.3 136.9c0.9621 0.1915 2.004 0.1161 2.942 0.0356 2.492 1.302 3.669 5.009 4.387 7.281 0.5445 1.75 1.034 3.583 1.617 5.854 0.5826 2.272 1.357 4.422 2.437 6.738h10.37l-1.269-2.811c-1.747-3.696-2.427-7.475-3.308-10.3-0.8809-2.828-1.592-4.561-2.468-6.14-0.593-1.118-1.428-2.079-2.362-2.964 4.028-2.61 6.588-6.983 6.637-11.37-0.2718-4.259-2.034-8.115-5.028-10.65-3.761-3.071-8.449-4.312-12.85-4.336-4.402-0.0239-8.815 0.6617-12.72 1.425l-1.607 0.3147v46.83h9.699c-0.0066-13.18 0.01599-27.91 0.01489-39.92 1.538-0.3032 3.379-0.4336 5.043-0.2849 1.832 0.2854 3.501 0.8616 5.194 1.988 1.451 1.262 1.94 2.755 2.209 4.512 0 1.968-0.9245 3.458-2.069 4.756-1.391 1.224-2.855 2.616-4.608 2.885-1.621 0.05-3.151 0.7453-4.231 1.84-1.014 1.028-1.525 2.899-1.531 3.315 1.191 0.4832 2.044 0.8244 3.502 0.9983z" style="fill:#290a43;stroke-width:1.02"/>
  <path id="ts1R" d="m72.1 129.7c-1.302 1.776-2.979 3.176-5.031 4.202l-1.421 0.4734 1.184 0.4735c1.46 0.9865 2.565 2.19 3.315 3.611 0.7892 1.421 1.44 2.999 1.953 4.735 0.5524 1.697 1.065 3.512 1.539 5.445 0.513 1.894 1.223 3.847 2.131 5.86h-5.919c-0.7892-1.697-1.421-3.512-1.894-5.445-0.4341-1.934-0.9273-3.788-1.48-5.564s-1.263-3.354-2.131-4.735c-0.8286-1.381-2.012-2.368-3.551-2.959-0.1184 0.0395-0.2959 0.0593-0.5327 0.0593-0.8681 0.0789-1.795 0.0986-2.782 0.0591-0.9865-0.0789-2.032-0.2565-3.137-0.5328 0.4341-1.026 1.085-1.874 1.953-2.545 0.9076-0.6708 1.993-1.026 3.255-1.065 1.026-0.0394 2.052-0.2761 3.078-0.7102 2.095-0.931 3.779-2.5 4.735-4.38 1.032-2.354 1.173-4.603 0-6.629-1.155-2.164-3.064-3.66-5.149-4.439-2.299-0.7889-4.474-0.6884-6.748-0.5919-0.9076 0.0395-2.072 0.1973-3.492 0.4734v39h-5.623v-42.5c2.21-0.434 4.242-0.7694 6.096-1.006 1.855-0.2367 3.867-0.355 6.037-0.355 4.762 0.0481 8.364 1.184 11.36 3.788 3.185 2.415 4.239 5.973 4.262 9.273 0 2.091-0.6708 4.182-2.012 5.997z" style="fill:url(#linearGradient3789);stroke-width:1.003"/>
 </g>
 <g id="t1A" transform="matrix(.2558 0 0 .2558 174.4 17.99)">
  <path id="tp1A" d="m113.5 141.7c-1.016-1.707-2.574-3.358-4.727-3.428l-6.102-0.2 4.749-14.02 11.22 32.4h10.39l-17.2-47.73h-8.391l-17.21 47.73h9.969l3.707-11.07h14.9s-0.7138-2.683-1.31-3.684z" style="fill:#290a43;stroke-width:1.02"/>
  <path id="ts1A" d="m110.1 111 15.51 43.03h-6.037l-12.02-34.68-0.4143-1.716-0.4143 1.716-6.629 19-0.6511 1.243 0.7104-0.1184h7.991q2.131 0 3.255 1.302 1.125 1.243 1.776 2.959h-14.92l-3.551 10.3h-5.623l15.51-43.03z" style="fill:url(#linearGradient3787);stroke-width:1.003"/>
 </g>
 <g id="t1N" transform="matrix(.2558 0 0 .2558 174.4 17.99)">
  <path id="tp1N" d="m136.6 108.7v47.73h8.856v-31.18l19.53 31.18h8.207v-47.73h-9.037v29.95l-18.75-29.95z" style="fill:#290a43;stroke-width:1.02"/>
  <path id="ts1N" d="m144.3 119.7-0.8286-2.012 0.1185 2.012v34.39h-4.794v-43.03h5.623l20.9 33.38 0.7103 1.953-0.1184-2.072v-33.27h4.972v43.03h-5.031z" style="fill:url(#linearGradient3793);stroke-width:1.003"/>
 </g>
 <g id="t1S" transform="matrix(.2558 0 0 .2558 174.4 17.99)">
  <path id="tpS" d="m186.9 111.6c-2.56 2.514-3.921 5.765-4.016 9.162 0.1688 4.846 2.526 8.532 5.886 11.07s6.826 3.889 10.04 5.848c2.426 1.432 3.736 3.119 4.296 5.709 0 1.584-0.4925 2.705-1.698 3.822-3.212 2.06-6.446 1.724-9.757 1.086-2.67-0.583-4.494-1.388-6.888-2.452l-3.023 7.559c2.79 1.429 5.983 2.504 8.674 3.074 2.184 0.3876 4.29 0.5669 6.38 0.6352 4.43-0.1063 8.715-1.283 11.85-4.052 2.739-2.605 4.372-6.032 4.402-9.55-0.1614-4.922-2.535-8.712-6.077-11.45-3.247-2.413-6.742-3.998-9.986-5.957-1.387-0.8394-2.491-1.729-3.341-2.645-1.144-1.54-1.279-2.965-0.7001-4.446 0.7762-1.64 2.686-2.533 4.696-2.756 2.791 0.0897 5.503 0.4884 8.09 1.239l1.724 0.5212 3.152-7.585-2.08-0.6534c-3.832-1.195-7.768-1.884-11.55-1.843-3.782 0.0412-7.42 1.243-10.08 3.664z" style="fill:#290a43;stroke-width:1.02"/>
  <path id="tsS" d="m194.4 115.2c-1.731 0.6703-2.735 1.968-3.492 3.433-0.8554 2.286-0.3085 4.812 1.065 6.392 0.9865 1.065 2.229 2.052 3.729 2.959 3.279 2.038 6.767 3.559 9.648 5.741 1.499 1.144 2.742 2.486 3.729 4.025 1.922 3.44 1.948 6.785 0.5327 9.944-1.615 3.369-3.87 5.144-7.103 6.215-1.736 0.6314-3.729 0.947-5.978 0.947-2.043-0.0626-4.047-0.249-5.919-0.5919-2.275-0.4515-4.43-1.136-6.392-2.072l1.539-3.847c1.776 0.7892 3.551 1.361 5.327 1.716 1.815 0.3551 3.413 0.5327 4.794 0.5327 2.802 0 4.972-0.6905 6.511-2.072 1.539-1.421 2.308-3.157 2.308-5.209-0.179-3.498-2.584-5.668-5.149-7.28-1.46-0.9076-3.058-1.776-4.794-2.604-3.366-1.702-6.507-3.874-8.464-6.807-1.867-3.745-2.039-6.267-0.6511-9.707 1.354-2.753 3.663-4.734 6.274-5.741 1.46-0.5524 3.078-0.8286 4.854-0.8286 3.746 9e-3 7.472 0.7672 10.71 1.776l-1.598 3.847c-1.697-0.5129-3.275-0.8483-4.735-1.006-2.282-0.2588-4.706-0.5781-6.748 0.2368z" style="fill:url(#linearGradient3785);stroke-width:1.003"/>
 </g>
 <g id="t1P" transform="matrix(.2558 0 0 .2558 174.4 17.99)">
  <path id="tpP" d="m234.8 138c2.952 0.3534 6.309-0.1269 8.854-1.081 3.754-1.519 6.878-3.928 8.705-7.319 1.787-3.989 1.798-8.35 0.0916-12.03-2.001-3.994-5.495-6.711-9.319-8.069-2.209-0.8092-4.626-1.203-7.227-1.203l-5e-3 5e-3c-2.252 0-4.351 0.1021-6.307 0.3087-3.046 0.3036-5.219 0.7005-8.013 1.247v46.79l9.699 0.2032c-4e-4 -13.22 1e-3 -27.96 1e-3 -39.93 1.616-0.1032 3.273-0.2504 5.052-0.2659 1.779-0.0156 3.551 0.7663 5.154 2.025 1.609 1.263 2.327 3.066 2.437 4.845-0.2898 4.068-3.2 6.888-6.536 7.889-1.656 0.3352-3.154 0.5427-4.346 1.507-1.09 0.882-2.178 3.599-2.178 3.599s2.545 1.315 3.938 1.481z" style="fill:#290a43;stroke-width:1.02"/>
  <path id="tsP" d="m250.4 128.8c-1.693 3.157-4.472 5.271-7.517 6.452-1.657 0.6314-3.374 1.026-5.149 1.184-0.8681 0.0789-1.795 0.0986-2.782 0.0591-0.9865-0.0394-2.032-0.2169-3.137-0.5325 0.434-1.026 1.085-1.874 1.953-2.545 0.9076-0.7103 1.993-1.065 3.255-1.065 1.026 0 2.052-0.217 3.078-0.6511 2.116-0.9586 3.766-2.59 4.735-4.498 0.9621-2.308 0.9934-4.816 0-6.925-0.513-1.065-1.204-1.993-2.072-2.782-1.984-1.671-4.44-2.471-6.807-2.486-2.21 0-4.38 0.1184-6.511 0.3551v39.13l-5.623-0.1183v-42.5c2.21-0.434 4.242-0.73 6.096-0.8878 4.27-0.3494 8.633-0.614 12.49 0.7695 3.543 1.34 6.568 3.706 8.05 6.925 1.38 3.357 1.507 7.069-0.0592 10.12z" style="fill:url(#linearGradient3783);stroke-width:1.003"/>
 </g>
 <g id="t1O" transform="matrix(.2558 0 0 .2558 174.4 17.99)">
  <path id="tp1O" d="m275.4 110.1c-4.246 1.739-8.513 6.375-10.9 12.5-2.391 6.127-2.604 13.64-0.2675 19.83s6.573 10.69 11.9 13.15c5.738 2.205 11.99 2.189 17.49-0.2341 5.497-2.423 9.614-7.282 11.74-12.6 2.206-6.556 2.264-13.39 0.3406-19.55-1.996-5.95-6.141-10.82-11.33-13.35-2.91-1.135-5.919-1.758-8.877-1.845-2.957-0.0865-5.85 0.359-10.1 2.098zm17.63 10.29c2.84 3.624 3.878 7.944 3.961 12.18-0.1244 4.317-1.055 8.562-3.389 11.61-2.334 3.043-5.428 4.713-8.782 4.824-3.577-0.0928-6.558-1.853-8.594-4.353-2.599-3.651-3.538-8.036-3.557-12.07 0.0232-5.929 2.398-12.89 7.549-15.3 3.98-1.861 9.971-0.5202 12.81 3.104z" style="fill:#290a43;stroke-width:1.02"/>
  <path id="ts1O" d="m266.6 122.7c2.327-5.111 6.269-9.19 11.13-11.13 5.109-1.858 10.97-1.721 15.57 0.4143 2.486 1.184 4.577 2.802 6.274 4.854 5.738 7.444 6.602 16.94 3.551 25.04-2.135 5.209-5.973 9.401-10.71 11.54-5.118 2.007-10.74 1.932-15.45 0-5.195-2.279-8.734-6.686-10.59-11.42-1.954-6.407-2.215-13.34 0.2368-19.3zm4.262 9.884c0.0538 4.785 1.21 9.461 3.906 13.08 2.638 3.143 6.23 5 10 5.031 4.188-0.1663 7.772-2.19 10.06-5.268 2.724-3.892 3.825-8.508 3.847-12.84-0.1127-4.803-1.269-9.622-4.084-13.2-2.596-3.035-6.133-4.823-9.825-4.854-4.015 0.1471-7.517 2.013-9.825 4.854-2.957 3.952-4.062 8.752-4.084 13.2z" style="fill:url(#linearGradient3781);stroke-width:1.003"/>
 </g>
 <g id="t2R" transform="matrix(.2558 0 0 .2558 174.4 17.99)">
  <path id="tp2R" d="m332.4 137.4c0.5112 0.2232 1.51 1.943 1.972 2.477 1.815 3.154 2.722 6.753 3.441 9.883v0.0387c0.7031 2.689 1.502 4.722 2.59 7.054h10.37c-1.279-2.763-2.599-5.82-3.326-8.469-0.4406-1.736-1.055-3.963-1.576-5.579-1.018-3.111-2.294-6.053-4.506-8.163 1.608-1.05 3.07-2.269 4.2-3.808 1.609-2.178 2.437-4.779 2.437-7.562-0.272-4.259-2.033-8.115-5.027-10.65-3.761-3.071-8.45-4.313-12.85-4.338-4.399-0.0275-8.811 0.6574-12.72 1.421l-1.607 0.3164v46.83h9.698c0-13.2-0.0756-27.93 0.0154-39.91 2.601-0.4416 5.523-0.284 7.696 0.2454h0.0308c2.813 1.298 4.677 3.117 4.724 5.955 0.0501 3.058-1.564 5.382-3.879 6.634-1.268 1.175-4.646 0.9243-6.253 2.301-2.078 1.779-2.224 2.532-2.537 3.779 2.415 1.737 4.317 1.221 7.109 1.536z" style="fill:#290a43;stroke-width:1.02"/>
  <path id="ts2R" d="m343.8 129.7c-1.302 1.776-2.979 3.176-5.031 4.202l-1.421 0.4734 1.184 0.4735c1.46 0.9865 2.565 2.19 3.315 3.611 0.7892 1.421 1.44 2.999 1.953 4.735 0.5524 1.697 1.065 3.512 1.539 5.445 0.513 1.894 1.223 3.847 2.131 5.86h-5.919c-0.7892-1.697-1.421-3.512-1.894-5.445-0.434-1.934-0.9273-3.788-1.48-5.564s-1.263-3.354-2.131-4.735c-0.8286-1.381-2.012-2.368-3.551-2.959-0.1184 0.0395-0.296 0.0593-0.5327 0.0593-0.8681 0.0789-1.795 0.0986-2.782 0.0591-0.9865-0.0789-2.032-0.2565-3.137-0.5328 0.434-1.026 1.085-1.874 1.953-2.545 0.9076-0.6708 1.993-1.026 3.255-1.065 1.026-0.0394 2.052-0.2761 3.078-0.7102 2.095-0.931 3.779-2.5 4.735-4.38 0.9435-2.2 1.018-4.625 0-6.629-1.155-2.164-3.064-3.66-5.149-4.439-2.299-0.7889-4.474-0.6884-6.748-0.5919-0.9076 0.0395-2.072 0.1973-3.492 0.4734v39h-5.623v-42.5c2.21-0.434 4.242-0.7694 6.096-1.006 4.265-0.4284 8.609-0.6636 12.49 0.6512 3.487 1.34 6.553 3.636 8.05 6.807 1.61 3.806 1.365 8.121-0.8878 11.25z" style="fill:url(#linearGradient3779);stroke-width:1.003"/>
 </g>
 <g id="t2T" transform="matrix(.2558 0 0 .2558 174.4 17.99)">
  <path id="tp2T" d="m358.5 108.7v8.314h12.76v39.41h9.758v-39.41h12.82v-8.314z" style="fill:#290a43;stroke-width:1.02"/>
  <path id="ts2T" d="m360.8 115.3v-4.262h30.84v4.262h-12.61v38.76h-5.682v-38.76z" style="fill:url(#linearGradient3777);stroke-width:1.003"/>
 </g>
 <g id="t2A" transform="matrix(.2558 0 0 .2558 174.4 17.99)">
  <path id="tp2A" d="m419 108.7-17.21 47.73h9.969l3.609-10.47h15.2l3.628 10.47h10.38l-17.2-47.73zm3.978 15.33 6.287 17.45c-1.15-1.342-1.399-3.036-4.606-3.54l-6.43-0.2968z" style="fill:#290a43;stroke-width:1.02"/>
  <path id="ts2A" d="m425.9 111 15.51 43.03h-6.037l-12.02-34.68-0.4143-1.716-0.4143 1.716-6.629 19-0.6511 1.243 0.7103-0.1184h7.991q2.131 0 3.255 1.302 1.125 1.243 1.776 2.959h-14.92l-3.551 10.3h-5.623l15.51-43.03z" style="fill:url(#linearGradient3775);stroke-width:1.003"/>
 </g>
 <g id="t3T" transform="matrix(.2558 0 0 .2558 174.4 17.99)">
  <path id="tp3T" d="m452.4 108.7v8.314h12.76v39.41h9.757v-39.41h12.82v-8.314z" style="fill:#290a43;stroke-width:1.02"/>
  <path id="ts3T" d="m454.7 115.3v-4.262h30.84v4.262h-12.61v38.76h-5.682v-38.76z" style="fill:url(#linearGradient3773);stroke-width:1.003"/>
 </g>
 <g id="t1I" transform="matrix(.2558 0 0 .2558 174.4 17.99)">
  <path id="tpI" d="m496.8 108.7v47.73h9.517v-47.73z" style="fill:#290a43;stroke-width:1.02"/>
  <path id="tsI" d="m504.2 154.1h-5.445v-43.03h5.445z" style="fill:url(#linearGradient3771);stroke-width:1.003"/>
 </g>
 <g id="t2O" transform="matrix(.2558 0 0 .2558 174.4 17.99)">
  <path id="tp2O" d="m528 110c-4.248 1.74-8.516 6.376-10.9 12.5-2.389 6.127-2.6 13.64-0.2639 19.83s6.571 10.69 11.9 13.15c5.738 2.205 11.99 2.189 17.49-0.2341 5.497-2.423 9.613-7.281 11.74-12.6 2.208-6.556 2.266-13.39 0.3426-19.55-1.997-5.949-6.141-10.82-11.33-13.35-6.492-2.613-13.64-1.898-18.98 0.2524zm17.87 10.3c2.594 3.617 3.632 7.941 3.715 12.18-0.1248 4.317-1.055 8.562-3.39 11.6-2.335 3.043-5.425 4.713-8.779 4.824-3.577-0.0928-6.558-1.853-8.594-4.353-2.599-3.651-3.538-8.036-3.557-12.07 0.0956-4.447 0.8686-8.997 3.715-12.18 2.275-2.542 5.625-4.112 8.771-4.096 3.146 0.0165 6.144 1.658 8.118 4.085z" style="fill:#290a43;stroke-width:1.02"/>
  <path id="ts2O" d="m519.3 122.7c2.393-5.465 6.269-9.19 11.13-11.13 5.153-2.034 10.97-1.721 15.57 0.4143 5.077 2.536 8.464 6.705 10.12 11.96 1.826 6.159 1.776 12.43-0.296 17.93-2.135 5.452-5.774 9.379-10.71 11.54-5.207 2.162-10.74 1.932-15.45 0-5.482-2.323-8.756-6.598-10.59-11.42-1.999-6.05-2.253-13.25 0.2368-19.3zm5.268 17.22c1.3 4.314 3.837 7.686 7.339 9.47 3.715 1.891 7.902 1.704 11.25-0.1184 3.833-2.059 6.065-5.857 7.221-9.589 1.381-4.656 1.418-9.735-0.1184-14.56-1.331-4.208-3.847-7.579-7.399-9.352-3.686-1.785-7.503-1.563-10.77 0-4.243 2.246-6.206 5.665-7.458 9.352-1.47 5.137-1.452 10.1-0.0592 14.8z" style="fill:url(#linearGradient3769)"/>
 </g>
 <g id="t2N" transform="matrix(.2558 0 0 .2558 174.4 17.99)">
  <path id="tp2N" d="m568.4 108.7v47.73h8.856v-31.18l19.53 31.18h8.207v-47.73h-9.037v29.95l-18.75-29.95z" style="fill:#290a43;stroke-width:1.02"/>
  <path id="ts2N" d="m576.2 119.7-0.8286-2.012 0.1184 2.012v34.39h-4.794v-43.03h5.623l20.9 33.38 0.7103 1.953-0.1184-2.072v-33.27h4.972v43.03h-5.031z" style="fill:url(#linearGradient5990);stroke-width:1.003"/>
 </g>
 <g id="r1R" transform="matrix(.2558 0 0 .2558 174.4 17.99)">
  <path id="rsR" d="m25.13 5.994c-7.481 0.4242-14.58 1.539-21.28 2.789v95.43h14.5v-86.53c4.557-0.9419 9.586-1.063 13.7-1.066 5.414 0.1899 10.75 1.908 14.64 5.185 3.71 3.392 6.078 8.11 6.12 12.76-0.1382 4.953-2.308 9.479-5.587 12.62-1.597 1.595-3.461 2.88-5.588 3.855-2.129 0.886-3.154 1.771-5.283 1.86-2.838 0.177-5.233 1.395-7.185 3.256s-3.016 2.946-3.992 5.25c2.04 0.5316 3.559 0.5975 5.421 0.7745 1.952 0.1769 3.802 0.2125 5.487 0.1239 0.8445 0.05147 1.777-0.03965 2.528-0.1326 3.192 1.506 4.575 4.507 6.348 7.607 1.774 3.101 3.238 6.601 4.39 10.5 1.242 3.81 2.35 7.841 3.326 12.1 0.9757 4.164 2.351 8.107 4.125 11.83h15.03c-2.129-4.608-3.769-9.17-4.922-13.69-1.064-4.608-2.263-8.904-3.594-12.89-1.33-4.076-3.014-7.666-5.055-10.77-1.952-3.189-4.835-5.712-8.649-7.574l3.326-1.199c4.524-2.304 8.161-5.448 10.91-9.436 4.991-7.836 5.333-17.62 1.46-25.52-3.955-7.815-11.32-12.72-18.76-15.15-7.325-2.058-14.42-2.541-21.43-1.992l3e-3 5e-5z" style="fill:url(#linearGradient7643);stroke-width:7.272;stroke:url(#linearGradient7643)"/>
  <path id="rpR" d="m24.95 5.994c-7.481 0.4242-14.58 1.539-21.28 2.789v95.43h14.5v-86.53c4.557-0.9419 9.586-1.063 13.7-1.066 5.414 0.1899 10.75 1.908 14.64 5.185 3.71 3.392 6.388 8.021 6.12 12.76 0.1712 5.44-2.042 9.788-5.587 12.62-3.098 3.493-7.475 5.115-11.57 5.317-2.838 0.177-5.233 1.196-7.185 3.056s-3.417 3.943-4.392 6.247c2.04 0.5316 3.994 0.8868 5.857 1.064 1.952 0.1769 3.768 0.2212 5.453 0.1326 0.8445 0.05147 1.777-0.03965 2.528-0.1326 3.192 1.506 5.275 3.809 7.049 6.909 1.774 3.101 3.238 6.601 4.39 10.5 1.242 3.81 2.35 7.841 3.326 12.1 0.9757 4.164 2.351 8.107 4.125 11.83h15.03c-2.129-4.608-3.769-9.17-4.922-13.69-1.064-4.608-2.263-8.904-3.594-12.89-1.33-4.076-3.014-7.666-5.055-10.77-1.952-3.189-4.835-5.712-8.649-7.574l3.326-1.199c4.7-2.039 7.896-4.874 10.91-9.436 2.75-4.076 4.27-7.835 4.122-14.09 0.2812-5.139-0.8875-7.887-2.662-11.43-3.955-8.169-11.32-12.72-18.76-15.15-7.325-2.058-14.42-2.541-21.43-1.992z" style="fill:url(#linearGradient5669);stroke-width:3.565;stroke:url(#linearGradient5669)"/>
  <path id="rbR" d="m3.856 8.822v95.42h14.51v-86.53c4.557-0.9407 9.587-1.062 13.7-1.065 2.838 0 5.502 0.4861 7.986 1.461 7.627 2.769 12.68 9.159 12.78 16.48-0.04023 7.64-5.442 13.72-11.18 16.48-2.129 0.886-4.256 1.374-6.385 1.463-2.838 0.177-5.234 1.196-7.186 3.057-1.952 1.86-3.418 3.941-4.393 6.245 2.04 0.5316 3.994 0.8882 5.857 1.065 2.414 0.2267 4.383 0.1312 6.653 0.1312 0.4436 0 0.8877-0.04193 1.332-0.1312 3.194 1.506 5.678 3.808 7.453 6.909 3.868 7.287 6.01 15.2 7.717 22.6 0.9758 4.164 2.351 8.106 4.125 11.83h15.04c-2.13-4.608-3.771-9.17-4.924-13.69-2.106-8.364-4.201-16.8-8.65-23.66-1.952-3.189-4.836-5.712-8.651-7.573l3.328-1.201c4.525-2.304 8.163-5.448 10.91-9.435 5.115-7.711 5.332-17.61 1.461-25.52-3.954-7.814-11.32-12.72-18.76-15.15-4.346-1.506-9.182-2.26-14.51-2.26-9.607 0.3517-19.42 1.335-28.21 3.064z" style="fill:url(#linearGradient5673);stroke-width:1.001"/>
 </g>
 <g id="r1E" transform="matrix(.2558 0 0 .2558 174.4 17.99)">
  <path id="rs1E" d="m83.85 7.521v96.63h58.01v-10.77h-43.5v-75.1h41.51v-10.76zm35.14 41.27c-1.685 0-3.19-0.08934-4.521 0.5312-1.242 0.6201-2.351 1.219-3.326 2.194-1.804 1.979-3.375 4.391-4.125 6.578h30.72v-9.302z" style="fill:url(#linearGradient7643);stroke-width:7.272;stroke:url(#linearGradient7643)"/>
  <path id="rp1E" d="m83.85 7.521v96.63h58.01v-10.77h-43.5v-75.1h41.51v-10.76zm34.24 40.67c-1.685 0-3.189 0.3098-4.521 0.9304-3.998 1.926-7.216 9.053-7.451 9.568h32.13v-10.5z" style="fill:url(#linearGradient9323);stroke-width:3.565;stroke:url(#linearGradient5669)"/>
  <path id="rb1E" d="m84.32 7.521v96.63h58.02v-10.76h-43.5v-75.1h41.52v-10.76zm34.24 40.67c-1.685 0-3.194 0.3096-4.524 0.9302-4.048 2.164-6.001 5.175-7.454 9.568h31.94v-10.5z" style="fill:url(#linearGradient5673)"/>
 </g>
 <g id="r1S" transform="matrix(.2558 0 0 .2558 174.4 17.99)">
  <path id="rsS" d="m170.4 6.078c-6.84 2.365-11.87 6.881-14.64 12.63-3.151 7.67-2.648 16.25 1.328 22.46 2.218 3.368 4.968 6.292 8.249 8.773 6.958 5.068 14.69 8.122 21.56 12.36 3.37 1.95 6.165 4.166 8.383 6.647 3.658 4.5 4.199 10.48 1.996 15.15-2.068 4.117-5.403 6.781-9.578 8.106-6.393 2.111-13.05 1.1-18.76 0-4.08-0.7975-8.247-2.17-12.5-4.118l-3.859 9.702c4.967 2.393 9.978 4.031 15.03 4.917 5.056 0.9747 9.491 1.462 13.3 1.462 5.056 0 9.582-0.6643 13.57-1.993 7.419-2.392 13.2-6.938 16.36-13.69 1.508-3.189 2.263-6.601 2.263-10.24 0-5.051-1.108-9.302-3.326-12.76-2.217-3.545-5.012-6.603-8.383-9.173-3.371-2.658-7.006-4.961-10.91-6.909-6.907-3.83-14.03-7.23-19.29-12.63-2.218-2.393-3.326-5.27-3.326-8.638 0-3.633 1.284-6.736 3.857-9.305 2.573-2.57 6.208-3.956 10.91-3.956 2.573 0 5.455 0.3232 8.649 0.7663 3.282 0.3547 6.875 1.109 10.78 2.261l3.99-9.57c-4.879-1.506-9.225-2.569-13.04-3.189-7.723-1.09-15.38-1.508-22.62 0.937z" style="fill:url(#linearGradient7643);stroke-width:7.272;stroke:url(#linearGradient7643)"/>
  <path id="rpS" d="m161.6 11c-5.599 4.774-7.807 11.29-7.852 17.68 0 4.962 1.108 9.126 3.326 12.49 2.218 3.368 4.968 6.292 8.249 8.773 6.958 5.068 14.69 8.122 21.56 12.36 6.225 3.583 11.69 8.288 11.71 15.82-0.1482 4.873-2.08 8.217-5.054 10.9-4.062 3.141-8.799 4.429-13.7 4.386-3.192 0-6.831-0.399-10.91-1.197-4.08-0.7975-8.247-2.17-12.5-4.118l-3.859 9.702c4.967 2.393 9.978 4.031 15.03 4.917 9.346 1.905 18.64 2.143 26.87-0.5304 7.391-2.488 13.36-7.27 16.36-13.69 3.433-7.328 2.966-16.58-1.063-23-2.217-3.545-5.012-6.603-8.383-9.173-3.371-2.658-7.006-4.961-10.91-6.909-6.907-3.83-14.03-7.23-19.29-12.63-2.218-2.393-3.326-5.27-3.326-8.638 0-3.633 1.284-6.736 3.857-9.305 5.904-5.184 12.87-4.111 19.56-3.19 3.282 0.3547 6.875 1.109 10.78 2.261l3.99-9.57c-4.879-1.506-9.225-2.569-13.04-3.189-3.814-0.6201-7.671-0.9312-11.62-0.9273-7.563 0.2183-14.46 2.201-19.78 6.783z" style="fill:url(#linearGradient5669);stroke-width:3.964;stroke:url(#linearGradient5669)"/>
  <path id="rbS" d="m170.4 6.078c-6.861 2.32-11.82 6.641-14.64 12.63-3.072 7.243-2.647 16.25 1.33 22.46 2.219 3.368 4.968 6.292 8.25 8.773 7.496 5.457 14.36 7.818 21.56 12.36 3.371 1.95 6.166 4.165 8.384 6.646 4.042 4.519 3.989 11.43 1.994 15.15-2.367 4.717-5.684 6.736-9.58 8.108-6.062 2.066-12.8 1.079-18.75 0-4.081-0.7975-8.249-2.169-12.5-4.118l-3.861 9.702c4.968 2.393 9.98 4.031 15.04 4.918 9.244 1.866 18.04 2.245 26.89-0.5324 7.409-2.732 13.12-6.76 16.36-13.69 1.508-3.189 2.263-6.601 2.263-10.24 0-5.051-1.107-9.303-3.326-12.76-4.874-7.703-12.07-12.44-19.3-16.08-6.907-3.831-13.86-7.061-19.3-12.63-5.06-5.676-3.909-13.83 0.5334-17.94 2.573-2.57 6.209-3.856 10.91-3.856 6.742 0.1318 13.48 1.113 19.43 2.927l3.99-9.572c-4.88-1.506-9.228-2.568-13.05-3.188-3.951-0.4259-8.022-0.9083-11.8-0.9145-3.779-0.0062-7.46 0.6135-10.83 1.854z" style="fill:url(#linearGradient5673);stroke-width:1.001"/>
 </g>
 <g id="r1O" transform="matrix(.2558 0 0 .2558 174.4 17.99)">
  <path id="rsO" d="m220.1 53.84c0 7.62 1.151 14.53 3.457 20.74 4.295 12.1 13 21.84 23.95 26.05 12.18 4.648 25.12 4.691 36.59-0.2642 11.39-4.958 20.1-14.98 24.08-26.19 4.517-11.64 4.582-26.87 0.6672-39.21-3.772-12.64-11.98-22.26-22.88-27.25-12.65-5.175-25.25-5.563-37.48-0.639s-20.09 14.22-23.59 22.9c-3.506 8.677-4.792 15.8-4.792 23.87zm67.44-28.57c6.365 8.389 7.994 17.91 8.651 28.57-0.1681 10.34-2.723 20.49-8.518 28.31-5.467 7.016-13.54 11.1-21.69 11.17-9.144-0.129-17.07-4.415-21.95-11.3-6.092-8.463-8.336-18.7-8.382-28.17 0.2044-10.33 2.601-20.64 8.515-28.44 5.48-7.362 13.74-10.83 22.19-10.78 8.445 0.04654 16.27 3.785 21.18 10.64z" style="fill:url(#linearGradient7643);stroke-width:7.272;stroke:url(#linearGradient7643)"/>
  <path id="rpO" d="m220.1 53.84c0 7.62 1.151 14.53 3.457 20.74 4.295 12.1 12.94 21.27 23.95 26.05 12.18 4.648 25.12 4.691 36.59-0.2642 11.39-4.958 20.1-14.98 24.08-26.19 4.517-11.64 4.582-26.87 0.6672-39.21-3.772-12.64-11.98-22.26-22.88-27.25-12.65-5.175-25.25-5.563-37.48-0.639s-20.09 14.22-23.59 22.9c-3.506 8.677-4.792 15.8-4.792 23.87zm76.09 0c-0.1681 10.34-2.723 20.49-8.518 28.31-13.64 15.61-33.01 14.32-43.63-0.1301-6.092-8.463-8.336-18.7-8.382-28.17 0.2044-10.33 2.601-20.64 8.515-28.44 5.48-7.362 13.74-10.83 22.19-10.78 8.447 0.05004 16.27 3.785 21.91 11.41 5.636 7.621 7.972 17.32 7.922 27.8z" style="fill:url(#linearGradient5669);stroke-width:3.565;stroke:url(#linearGradient5669)"/>
  <path id="rbO" d="m248.8 7.02c-12.32 5.123-20.98 14.95-24.83 25.47-5.587 13.96-4.673 30.37-0.4026 42.05 4.515 11.94 13.16 21.31 23.91 26 12.28 4.591 24.77 4.793 36.52-0.2639 12.22-5.14 19.89-15.3 24.05-26.14 4.627-12.17 4.571-26.82 0.6646-39.14-3.892-12.18-11.15-21.74-22.85-27.2-13.92-5.228-25.55-5.319-37.07-0.7779zm28.97 10.35c9.335 5.012 13.42 12.46 15.93 20.43 2.86 10.73 3.094 21.79 0 31.84-2.83 9.271-8.197 16.63-15.8 20.7-8.067 4.194-17.16 3.721-24.43 0-8.172-4.716-13.22-12.78-15.8-20.83-2.689-10.62-2.923-21.65 0.1329-31.57 2.8-8.756 7.508-16.02 15.8-20.43 8.162-3.642 15.99-4.071 24.16-0.1349z" style="fill:url(#linearGradient5673);stroke-width:1.001"/>
 </g>
 <g id="r1L" transform="matrix(.2558 0 0 .2558 174.4 17.99)">
  <path id="rsL" d="m321.6 7.521v96.63h53.35c-0.1009-3.602 0.1295-7.605 0.1327-10.9h-38.85v-85.73z" style="fill:url(#linearGradient7643);stroke-width:7.272;stroke:url(#linearGradient7643)"/>
  <path id="rpL" d="m321.6 7.521v96.63h53.35c-0.1009-3.602 0.1295-7.605 0.1327-10.9h-38.85v-85.73z" style="fill:url(#linearGradient5669);stroke-width:3.565;stroke:url(#linearGradient5669)"/>
  <path id="rbL" d="m321.6 7.521v96.73h53.36c-0.1015-3.602 0.1301-7.605 0.1333-10.9h-38.86v-85.83z" style="fill:url(#linearGradient5673);stroke-width:1.001"/>
 </g>
 <g id="r1U" transform="matrix(.2558 0 0 .2558 174.4 17.99)">
  <path id="rsU" d="m382.1 5.819 0.2007 60.41c0.1506 10.37 3.074 20.51 9.712 27.64 7.466 7.354 16.76 10.43 27.01 10.23 10.96 0.0157 19.81-3.642 26.46-10.37 7.474-7.22 10.06-18.04 10.11-27.51v-60.41h-14.23v62.54c-0.4727 7.321-1.951 13.59-6.256 18.34-4.371 4.551-10.41 6.606-16.1 6.644-7.408 0.2014-12.17-2.469-16.23-6.644-4.437-5.306-6.4-11.77-6.121-18.34l-0.2006-62.54z" style="fill:url(#linearGradient7643);stroke-width:7.272;stroke:url(#linearGradient7643)"/>
  <path id="rpU" d="m382.1 5.819 0.2007 60.41c0.0194 5.849 0.843 11.12 2.529 15.81 1.685 4.608 4.078 8.549 7.183 11.83 3.192 3.279 7.052 5.806 11.57 7.578 4.524 1.772 9.67 2.656 15.44 2.656 5.498 0 10.47-0.8844 14.89-2.656 4.524-1.86 8.38-4.432 11.57-7.711 3.192-3.367 5.677-7.355 7.45-11.96 1.774-4.697 2.662-9.879 2.662-15.55v-60.41h-14.23v62.54c0.2621 13.52-8.925 25.47-22.35 24.99-6.346-0.04859-12.17-2.469-16.23-6.644-4.437-5.306-6.088-12.14-6.121-18.34l-0.2006-62.54z" style="fill:url(#linearGradient5669);stroke-width:3.565;stroke:url(#linearGradient5669)"/>
  <path id="rbU" d="m382 5.719v60.61c0.1336 11.81 3.078 20.53 9.713 27.65 8.649 8.121 17.99 10.18 27.31 10.24 11.35 9e-3 19.82-3.634 26.47-10.37 7.94-8.381 10.06-18.03 10.11-27.51v-60.61h-14.54v62.73c-0.0992 7.238-1.951 13.59-6.257 18.34-4.567 5.043-9.688 6.487-15.8 6.645-6.348-0.04825-11.63-1.931-16.23-6.645-4.856-5.785-6.086-12.14-6.119-18.34v-62.73z" style="fill:url(#linearGradient5673);stroke-width:1.001"/>
 </g>
 <g id="r1T" transform="matrix(.2558 0 0 .2558 174.4 17.99)">
  <path id="rsT" d="m465 7.521v10.77h27.28v85.86h14.63v-85.86h27.41v-10.77z" style="fill:url(#linearGradient7643);stroke-width:7.272;stroke:url(#linearGradient7643)"/>
  <path id="rpT" d="m465 7.521v10.77h27.28v85.86h14.63v-85.86h27.41v-10.77z" style="fill:url(#linearGradient5669);stroke-width:3.565;stroke:url(#linearGradient5669)"/>
  <path id="rbT" d="m465 7.521v10.77h27.27v85.86h14.64v-85.86h27.41v-10.77z" style="fill:url(#linearGradient5673);stroke-width:1.001"/>
 </g>
 <g id="r2E" transform="matrix(.2558 0 0 .2558 174.4 17.99)">
  <path id="rs2E" d="m543.8 7.521v96.63h58.01v-10.77h-43.5v-75.1h41.51v-10.76zm35.14 41.27c-1.685 0-3.19-0.08934-4.521 0.5312-1.242 0.6201-2.351 1.219-3.326 2.194-1.804 1.979-3.375 4.391-4.125 6.578h30.72v-9.302z" style="fill:url(#linearGradient7643);stroke-width:7.272;stroke:url(#linearGradient7643)"/>
  <path id="rp2E" d="m543.8 7.521v96.63h58.01v-10.77h-43.5v-75.1h41.51v-10.76zm34.24 40.67c-1.685 0-3.189 0.3098-4.521 0.9304-4.308 1.998-6.069 5.393-7.451 9.568h32.13v-10.5z" style="fill:url(#linearGradient9323);stroke-width:3.565;stroke:url(#linearGradient5669)"/>
  <path id="rb2E" d="m543.8 7.521v96.63h58.02v-10.76h-43.5v-75.1h41.52v-10.76zm34.24 40.47c-1.685 0-3.394 0.5094-4.724 1.13-4.048 2.164-6.001 5.375-7.454 9.769h32.44l-3.7e-4 -10.9z" style="fill:url(#linearGradient5673);stroke-width:1.001"/>
 </g>
 <g id="r1r" transform="matrix(.3196 0 0 .3196 -1.928 17.98)">
  <path d="M 87.55,43.46 A 43.46,43.46 0 0 1 44.09,86.92 43.46,43.46 0 0 1 0.63,43.46 43.46,43.46 0 0 1 44.09,0 43.46,43.46 0 0 1 87.55,43.46 Z" style="fill:#37abc8"/>
  <path d="m80.21 64.34-30.76-15.76-12.45 32.25 5.486-34.13-34.52-1.877l34.15-5.329-8.881-33.41 15.62 30.84 29.03-18.77-24.5 24.39z" style="fill:#00112b"/>
 </g>
 <g id="r1e" transform="matrix(.3196 0 0 .3196 -9.497 17.98)">
  <path d="M 174.5,43.46 A 43.46,43.46 0 0 1 131.04,86.92 43.46,43.46 0 0 1 87.58,43.46 43.46,43.46 0 0 1 131.04,0 43.46,43.46 0 0 1 174.5,43.46 Z" style="fill:#37abc8"/>
  <path d="m146.9 80.42-18.76-29.03-26.91 21.7 21.82-26.81-28.95-18.88l32.24 12.46 9.012-33.37-1.888 34.52 34.52-1.741-33.41 8.87z" style="fill:#00112b"/>
 </g>
 <g id="r1s" transform="matrix(.3196 0 0 .3196 -17.08 17.98)">
  <path d="M 261.5,43.46 A 43.46,43.46 0 0 1 218.04,86.92 43.46,43.46 0 0 1 174.58,43.46 43.46,43.46 0 0 1 218.04,0 43.46,43.46 0 0 1 261.5,43.46 Z" style="fill:#37abc8"/>
  <path d="m245.6 75.31-25.64-23.19-20.37 27.93 14.13-31.55-32.85-10.75l34.37 3.692 0.068-34.57 7.109 33.83 32.9-10.62-29.98 17.21z" style="fill:#00112b"/>
 </g>
 <g id="r1o" transform="matrix(.3196 0 0 .3196 -24.67 17.98)">
  <path d="M 348.5,43.46 A 43.46,43.46 0 0 1 305.04,86.92 43.46,43.46 0 0 1 261.58,43.46 43.46,43.46 0 0 1 305.04,0 43.46,43.46 0 0 1 348.5,43.46 Z" style="fill:#37abc8"/>
  <path d="m342.5 51.97-33.8-7.265-3.681 34.37-3.534-34.39-33.83 7.12 31.61-13.99-17.22-29.97 23.07 25.74 23.18-25.64-17.35 29.9z" style="fill:#00112b"/>
 </g>
 <g id="r1l" transform="matrix(.3196 0 0 .3196 -21.23 17.98)">
  <path d="m401 43.46a43.46 43.46 0 0 1 -43.46 43.46 43.46 43.46 0 0 1 -43.46 -43.46 43.46 43.46 0 0 1 43.46 -43.46 43.46 43.46 0 0 1 43.46 43.46z" style="fill:#37abc8"/>
  <path d="m385 75.31-25.64-23.19-20.37 27.93 14.13-31.55-32.85-10.75 34.37 3.692 0.068-34.57 7.109 33.83 32.9-10.62-29.98 17.21z" style="fill:#00112b"/>
 </g>
 <g id="r1u" transform="matrix(.3196 0 0 .3196 -40.16 17.98)">
  <path d="M 523.5,43.46 A 43.46,43.46 0 0 1 480.04,86.92 43.46,43.46 0 0 1 436.58,43.46 43.46,43.46 0 0 1 480.04,0 43.46,43.46 0 0 1 523.5,43.46 Z" style="fill:#37abc8"/>
  <path d="m485.7 80.66-10.61-32.9-31.61 14 28.01-20.25-23.08-25.73 27.92 20.38 17.34-29.9-10.76 32.85 33.8 7.253-34.57-0.0793z" style="fill:#00112b"/>
 </g>
 <g id="r1t" transform="matrix(.3196 0 0 .3196 -47.74 17.98)">
  <path d="M 610.5,43.46 A 43.46,43.46 0 0 1 567.04,86.92 43.46,43.46 0 0 1 523.58,43.46 43.46,43.46 0 0 1 567.04,0 43.46,43.46 0 0 1 610.5,43.46 Z" style="fill:#37abc8"/>
  <path d="m582.9 80.42-18.76-29.03-26.91 21.7 21.82-26.81-28.95-18.88l32.24 12.46 9.012-33.37-1.888 34.52 34.52-1.741-33.41 8.87z" style="fill:#00112b"/>
 </g>
 <g id="r2e" transform="matrix(.3196 0 0 .3196 -55.65 17.98)">
  <path d="M 698.5,43.46 A 43.46,43.46 0 0 1 655.04,86.92 43.46,43.46 0 0 1 611.58,43.46 43.46,43.46 0 0 1 655.04,0 43.46,43.46 0 0 1 698.5,43.46 Z" style="fill:#37abc8"/>
  <path d="m692.5 51.97-33.8-7.265-3.681 34.37-3.534-34.39-33.83 7.12 31.61-13.99-17.22-29.97 23.07 25.74 23.18-25.64-17.35 29.9z" style="fill:#00112b"/>
 </g>
 <g id="t1t" transform="matrix(.2419 0 0 .2419 -1.727 24.79)">
  <path d="m50 113.1a25 25 0 0 1 -25 25 25 25 0 0 1 -25 -25 25 25 0 0 1 25 -25 25 25 0 0 1 25 25z" style="fill:#ffdd55"/>
  <path d="m40.81 129.3-15.28-13.31-4.039 19.86 0.8812-20.24-18.04 9.222 16.38-11.93-18.46-8.356 19.54 5.364-4.976-19.64 7.989 18.62 12.25-16.14-9.577 17.86 20.26-0.4803-19.93 3.645z" style="fill:#b380ff"/>
 </g>
 <g id="t1r" transform="matrix(.2419 0 0 .2419 -1.727 24.79)">
  <path d="m100 113.1a25 25 0 0 1 -25 25 25 25 0 0 1 -25 -25 25 25 0 0 1 25 -25 25 25 0 0 1 25 25z" style="fill:#ffdd55"/>
  <path d="m90.81 129.3-15.28-13.31-4.039 19.86 0.8812-20.24-18.04 9.222 16.38-11.93-18.46-8.356 19.54 5.364-4.976-19.64 7.989 18.62 12.25-16.14-9.577 17.86 20.26-0.4803-19.93 3.645z" style="fill:#b380ff"/>
 </g>
 <g id="t1a" transform="matrix(.2419 0 0 .2419 -1.727 24.79)">
  <path d="m150 113.1a25 25 0 0 1 -25 25 25 25 0 0 1 -25 -25 25 25 0 0 1 25 -25 25 25 0 0 1 25 25z" style="fill:#ffdd55"/>
  <path d="m140.8 129.3-15.28-13.31-4.039 19.86 0.8813-20.24-18.04 9.222 16.38-11.93-18.46-8.356 19.54 5.364-4.976-19.64 7.989 18.62 12.25-16.14-9.577 17.86 20.26-0.4803-19.93 3.645z" style="fill:#b380ff"/>
 </g>
 <g id="t1n" transform="matrix(.2419 0 0 .2419 -1.727 24.79)">
  <path d="m200 113.1a25 25 0 0 1 -25 25 25 25 0 0 1 -25 -25 25 25 0 0 1 25 -25 25 25 0 0 1 25 25z" style="fill:#ffdd55"/>
  <path d="m190.8 129.3-15.28-13.31-4.039 19.86 0.8813-20.24-18.04 9.222 16.38-11.93-18.46-8.356 19.54 5.364-4.976-19.64 7.989 18.62 12.25-16.14-9.577 17.86 20.26-0.4803-19.93 3.645z" style="fill:#b380ff"/>
 </g>
 <g id="t1s" transform="matrix(.2419 0 0 .2419 -1.727 24.79)">
  <path d="m250 113.1a25 25 0 0 1 -25 25 25 25 0 0 1 -25 -25 25 25 0 0 1 25 -25 25 25 0 0 1 25 25z" style="fill:#ffdd55"/>
  <path d="m240.8 129.3-15.28-13.31-4.039 19.86 0.8812-20.24-18.04 9.222 16.38-11.93-18.46-8.356 19.54 5.364-4.976-19.64 7.989 18.62 12.25-16.14-9.577 17.86 20.26-0.4803-19.93 3.645z" style="fill:#b380ff"/>
 </g>
 <g id="t1p" transform="matrix(.2419 0 0 .2419 -1.727 24.79)">
  <path d="m300 113.1a25 25 0 0 1 -25 25 25 25 0 0 1 -25 -25 25 25 0 0 1 25 -25 25 25 0 0 1 25 25z" style="fill:#ffdd55"/>
  <path d="m290.8 129.3-15.28-13.31-4.039 19.86 0.8813-20.24-18.04 9.222 16.38-11.93-18.46-8.356 19.54 5.364-4.976-19.64 7.989 18.62 12.25-16.14-9.577 17.86 20.26-0.4803-19.93 3.645z" style="fill:#b380ff"/>
 </g>
 <g id="t1o" transform="matrix(.2419 0 0 .2419 -1.727 24.79)">
  <path d="m350 113.1a25 25 0 0 1 -25 25 25 25 0 0 1 -25 -25 25 25 0 0 1 25 -25 25 25 0 0 1 25 25z" style="fill:#ffdd55"/>
  <path d="m340.8 129.3-15.28-13.31-4.039 19.86 0.8812-20.24-18.04 9.222 16.38-11.93-18.46-8.356 19.54 5.364-4.976-19.64 7.989 18.62 12.25-16.14-9.577 17.86 20.26-0.4803-19.93 3.645z" style="fill:#b380ff"/>
 </g>
 <g id="t2r" transform="matrix(.2419 0 0 .2419 -1.727 24.79)">
  <path d="m400 113.1a25 25 0 0 1 -25 25 25 25 0 0 1 -25 -25 25 25 0 0 1 25 -25 25 25 0 0 1 25 25z" style="fill:#ffdd55"/>
  <path d="m390.8 129.3-15.28-13.31-4.039 19.86 0.8812-20.24-18.04 9.222 16.38-11.93-18.46-8.356 19.54 5.364-4.976-19.64 7.989 18.62 12.25-16.14-9.577 17.86 20.26-0.4803-19.93 3.645z" style="fill:#b380ff"/>
 </g>
 <g id="t2t" transform="matrix(.2419 0 0 .2419 -1.727 24.79)">
  <path d="m450 113.1a25 25 0 0 1 -25 25 25 25 0 0 1 -25 -25 25 25 0 0 1 25 -25 25 25 0 0 1 25 25z" style="fill:#ffdd55"/>
  <path d="m440.8 129.3-15.28-13.31-4.039 19.86 0.8813-20.24-18.04 9.222 16.38-11.93-18.46-8.356 19.54 5.364-4.976-19.64 7.989 18.62 12.25-16.14-9.577 17.86 20.26-0.4803-19.93 3.645z" style="fill:#b380ff"/>
 </g>
 <g id="t2a" transform="matrix(.2419 0 0 .2419 -1.727 24.79)">
  <path d="m500 113.1a25 25 0 0 1 -25 25 25 25 0 0 1 -25 -25 25 25 0 0 1 25 -25 25 25 0 0 1 25 25z" style="fill:#ffdd55"/>
  <path d="m490.8 129.3-15.28-13.31-4.039 19.86 0.8813-20.24-18.04 9.222 16.38-11.93-18.46-8.356 19.54 5.364-4.976-19.64 7.989 18.62 12.25-16.14-9.577 17.86 20.26-0.4803-19.93 3.645z" style="fill:#b380ff"/>
 </g>
 <g id="t3t" transform="matrix(.2419 0 0 .2419 -1.727 24.79)">
  <path d="m550 113.1a25 25 0 0 1 -25 25 25 25 0 0 1 -25 -25 25 25 0 0 1 25 -25 25 25 0 0 1 25 25z" style="fill:#ffdd55"/>
  <path d="m540.8 129.3-15.28-13.31-4.039 19.86 0.8812-20.24-18.04 9.222 16.38-11.93-18.46-8.356 19.54 5.364-4.976-19.64 7.989 18.62 12.25-16.14-9.577 17.86 20.26-0.4803-19.93 3.645z" style="fill:#b380ff"/>
 </g>
 <g id="t1i" transform="matrix(.2419 0 0 .2419 -1.727 24.79)">
  <path d="m600 113.1a25 25 0 0 1 -25 25 25 25 0 0 1 -25 -25 25 25 0 0 1 25 -25 25 25 0 0 1 25 25z" style="fill:#ffdd55"/>
  <path d="m586.2 134.4-11.31-16.81-9.042 18.14 6.09-19.32-19.81 4.239 18.91-7.284-15.67-12.85 17.49 10.24 0.2768-20.26 2.898 20.05 16.01-12.42-13.87 14.77 19.69 4.78-20.19-1.637z" style="fill:#b380ff"/>
 </g>
 <g id="t2o" transform="matrix(.2419 0 0 .2419 -1.727 24.79)">
  <path d="m650 113.1a25 25 0 0 1 -25 25 25 25 0 0 1 -25 -25 25 25 0 0 1 25 -25 25 25 0 0 1 25 25z" style="fill:#ffdd55"/>
  <path d="m640.8 129.3-15.28-13.31-4.04 19.85 0.8795-20.25-18.04 9.221 16.38-11.93-18.46-8.356 19.54 5.364-4.976-19.64 7.989 18.62 12.25-16.14-9.575 17.86 20.26-0.48-19.94 3.646z" style="fill:#b380ff"/>
 </g>
 <g id="t2n" transform="matrix(.2419 0 0 .2419 -1.727 24.79)">
  <path d="m700 113.1a25 25 0 0 1 -25 25 25 25 0 0 1 -25 -25 25 25 0 0 1 25 -25 25 25 0 0 1 25 25z" style="fill:#ffdd55"/>
  <path d="m686.2 134.4-11.31-16.81-9.039 18.13 6.09-19.32-19.82 4.241 18.9-7.284-15.66-12.85 17.48 10.24 0.275-20.26 2.9 20.06 16.01-12.42-13.87 14.77 19.69 4.778-20.2-1.638z" style="fill:#b380ff"/>
 </g>
 <g transform="matrix(.2558 0 0 .2558 -.1993 17.99)">
  <path d="m5e-4 108.7v8.314h12.76v39.41h9.757v-39.41h12.82v-8.314z" style="fill:#290a43;stroke-width:1.02"/>
  <path d="m2.249 115.3v-4.262h30.84v4.262h-12.61v38.76h-5.682v-38.76z" style="fill:url(#linearGradient3791);stroke-width:1.003"/>
 </g>
 <g transform="matrix(.2558 0 0 .2558 .6667 17.99)">
  <path d="m57.3 136.9c0.9621 0.1915 2.004 0.1161 2.942 0.0356 2.492 1.302 3.669 5.009 4.387 7.281 0.5445 1.75 1.034 3.583 1.617 5.854 0.5826 2.272 1.357 4.422 2.437 6.738h10.37l-1.269-2.811c-1.747-3.696-2.427-7.475-3.308-10.3-0.8809-2.828-1.592-4.561-2.468-6.14-0.593-1.118-1.428-2.079-2.362-2.964 4.028-2.61 6.588-6.983 6.637-11.37-0.2718-4.259-2.034-8.115-5.028-10.65-3.761-3.071-8.449-4.312-12.85-4.336-4.402-0.0239-8.815 0.6617-12.72 1.425l-1.607 0.3147v46.83h9.699c-0.0066-13.18 0.01599-27.91 0.01489-39.92 1.538-0.3032 3.379-0.4336 5.043-0.2849 1.832 0.2854 3.501 0.8616 5.194 1.988 1.451 1.262 1.94 2.755 2.209 4.512 0 1.968-0.9245 3.458-2.069 4.756-1.391 1.224-2.855 2.616-4.608 2.885-1.621 0.05-3.151 0.7453-4.231 1.84-1.014 1.028-1.525 2.899-1.531 3.315 1.191 0.4832 2.044 0.8244 3.502 0.9983z" style="fill:#290a43;stroke-width:1.02"/>
  <path d="m72.1 129.7c-1.302 1.776-2.979 3.176-5.031 4.202l-1.421 0.4734 1.184 0.4735c1.46 0.9865 2.565 2.19 3.315 3.611 0.7892 1.421 1.44 2.999 1.953 4.735 0.5524 1.697 1.065 3.512 1.539 5.445 0.513 1.894 1.223 3.847 2.131 5.86h-5.919c-0.7892-1.697-1.421-3.512-1.894-5.445-0.4341-1.934-0.9273-3.788-1.48-5.564s-1.263-3.354-2.131-4.735c-0.8286-1.381-2.012-2.368-3.551-2.959-0.1184 0.0395-0.2959 0.0593-0.5327 0.0593-0.8681 0.0789-1.795 0.0986-2.782 0.0591-0.9865-0.0789-2.032-0.2565-3.137-0.5328 0.4341-1.026 1.085-1.874 1.953-2.545 0.9076-0.6708 1.993-1.026 3.255-1.065 1.026-0.0394 2.052-0.2761 3.078-0.7102 2.095-0.931 3.779-2.5 4.735-4.38 1.032-2.354 1.173-4.603 0-6.629-1.155-2.164-3.064-3.66-5.149-4.439-2.299-0.7889-4.474-0.6884-6.748-0.5919-0.9076 0.0395-2.072 0.1973-3.492 0.4734v39h-5.623v-42.5c2.21-0.434 4.242-0.7694 6.096-1.006 1.855-0.2367 3.867-0.355 6.037-0.355 4.762 0.0481 8.364 1.184 11.36 3.788 3.185 2.415 4.239 5.973 4.262 9.273 0 2.091-0.6708 4.182-2.012 5.997z" style="fill:url(#linearGradient3789);stroke-width:1.003"/>
 </g>
 <g transform="matrix(.2558 0 0 .2558 .9782 17.99)">
  <path d="m113.5 141.7c-1.016-1.707-2.574-3.358-4.727-3.428l-6.102-0.2 4.749-14.02 11.22 32.4h10.39l-17.2-47.73h-8.391l-17.21 47.73h9.969l3.707-11.07h14.9s-0.7138-2.683-1.31-3.684z" style="fill:#290a43;stroke-width:1.02"/>
  <path d="m110.1 111 15.51 43.03h-6.037l-12.02-34.68-0.4143-1.716-0.4143 1.716-6.629 19-0.6511 1.243 0.7104-0.1184h7.991q2.131 0 3.255 1.302 1.125 1.243 1.776 2.959h-14.92l-3.551 10.3h-5.623l15.51-43.03z" style="fill:url(#linearGradient3787);stroke-width:1.003"/>
 </g>
 <g transform="matrix(.2558 0 0 .2558 .9819 17.99)">
  <path d="m136.6 108.7v47.73h8.856v-31.18l19.53 31.18h8.207v-47.73h-9.037v29.95l-18.75-29.95z" style="fill:#290a43;stroke-width:1.02"/>
  <path d="m144.3 119.7-0.8286-2.012 0.1185 2.012v34.39h-4.794v-43.03h5.623l20.9 33.38 0.7103 1.953-0.1184-2.072v-33.27h4.972v43.03h-5.031z" style="fill:url(#linearGradient3793);stroke-width:1.003"/>
 </g>
 <g transform="matrix(.2558 0 0 .2558 2.206 17.99)">
  <path d="m186.9 111.6c-2.56 2.514-3.921 5.765-4.016 9.162 0.1688 4.846 2.526 8.532 5.886 11.07s6.826 3.889 10.04 5.848c2.426 1.432 3.736 3.119 4.296 5.709 0 1.584-0.4925 2.705-1.698 3.822-3.212 2.06-6.446 1.724-9.757 1.086-2.67-0.583-4.494-1.388-6.888-2.452l-3.023 7.559c2.79 1.429 5.983 2.504 8.674 3.074 2.184 0.3876 4.29 0.5669 6.38 0.6352 4.43-0.1063 8.715-1.283 11.85-4.052 2.739-2.605 4.372-6.032 4.402-9.55-0.1614-4.922-2.535-8.712-6.077-11.45-3.247-2.413-6.742-3.998-9.986-5.957-1.387-0.8394-2.491-1.729-3.341-2.645-1.144-1.54-1.279-2.965-0.7001-4.446 0.7762-1.64 2.686-2.533 4.696-2.756 2.791 0.0897 5.503 0.4884 8.09 1.239l1.724 0.5212 3.152-7.585-2.08-0.6534c-3.832-1.195-7.768-1.884-11.55-1.843-3.782 0.0412-7.42 1.243-10.08 3.664z" style="fill:#290a43;stroke-width:1.02"/>
  <path d="m194.4 115.2c-1.731 0.6703-2.735 1.968-3.492 3.433-0.8554 2.286-0.3085 4.812 1.065 6.392 0.9865 1.065 2.229 2.052 3.729 2.959 3.279 2.038 6.767 3.559 9.648 5.741 1.499 1.144 2.742 2.486 3.729 4.025 1.922 3.44 1.948 6.785 0.5327 9.944-1.615 3.369-3.87 5.144-7.103 6.215-1.736 0.6314-3.729 0.947-5.978 0.947-2.043-0.0626-4.047-0.249-5.919-0.5919-2.275-0.4515-4.43-1.136-6.392-2.072l1.539-3.847c1.776 0.7892 3.551 1.361 5.327 1.716 1.815 0.3551 3.413 0.5327 4.794 0.5327 2.802 0 4.972-0.6905 6.511-2.072 1.539-1.421 2.308-3.157 2.308-5.209-0.179-3.498-2.584-5.668-5.149-7.28-1.46-0.9076-3.058-1.776-4.794-2.604-3.366-1.702-6.507-3.874-8.464-6.807-1.867-3.745-2.039-6.267-0.6511-9.707 1.354-2.753 3.663-4.734 6.274-5.741 1.46-0.5524 3.078-0.8286 4.854-0.8286 3.746 9e-3 7.472 0.7672 10.71 1.776l-1.598 3.847c-1.697-0.5129-3.275-0.8483-4.735-1.006-2.282-0.2588-4.706-0.5781-6.748 0.2368z" style="fill:url(#linearGradient3785);stroke-width:1.003"/>
 </g>
 <g transform="matrix(.2558 0 0 .2558 4.004 17.99)">
  <path d="m234.8 138c2.952 0.3534 6.309-0.1269 8.854-1.081 3.754-1.519 6.878-3.928 8.705-7.319 1.787-3.989 1.798-8.35 0.0916-12.03-2.001-3.994-5.495-6.711-9.319-8.069-2.209-0.8092-4.626-1.203-7.227-1.203l-5e-3 5e-3c-2.252 0-4.351 0.1021-6.307 0.3087-3.046 0.3036-5.219 0.7005-8.013 1.247v46.79l9.699 0.2032c-4e-4 -13.22 1e-3 -27.96 1e-3 -39.93 1.616-0.1032 3.273-0.2504 5.052-0.2659 1.779-0.0156 3.551 0.7663 5.154 2.025 1.609 1.263 2.327 3.066 2.437 4.845-0.2898 4.068-3.2 6.888-6.536 7.889-1.656 0.3352-3.154 0.5427-4.346 1.507-1.09 0.882-2.178 3.599-2.178 3.599s2.545 1.315 3.938 1.481z" style="fill:#290a43;stroke-width:1.02"/>
  <path d="m250.4 128.8c-1.693 3.157-4.472 5.271-7.517 6.452-1.657 0.6314-3.374 1.026-5.149 1.184-0.8681 0.0789-1.795 0.0986-2.782 0.0591-0.9865-0.0394-2.032-0.2169-3.137-0.5325 0.434-1.026 1.085-1.874 1.953-2.545 0.9076-0.7103 1.993-1.065 3.255-1.065 1.026 0 2.052-0.217 3.078-0.6511 2.116-0.9586 3.766-2.59 4.735-4.498 0.9621-2.308 0.9934-4.816 0-6.925-0.513-1.065-1.204-1.993-2.072-2.782-1.984-1.671-4.44-2.471-6.807-2.486-2.21 0-4.38 0.1184-6.511 0.3551v39.13l-5.623-0.1183v-42.5c2.21-0.434 4.242-0.73 6.096-0.8878 4.27-0.3494 8.633-0.614 12.49 0.7695 3.543 1.34 6.568 3.706 8.05 6.925 1.38 3.357 1.507 7.069-0.0592 10.12z" style="fill:url(#linearGradient3783);stroke-width:1.003"/>
 </g>
 <g transform="matrix(.2558 0 0 .2558 4.027 17.99)">
  <path d="m275.4 110.1c-4.246 1.739-8.513 6.375-10.9 12.5-2.391 6.127-2.604 13.64-0.2675 19.83s6.573 10.69 11.9 13.15c5.738 2.205 11.99 2.189 17.49-0.2341 5.497-2.423 9.614-7.282 11.74-12.6 2.206-6.556 2.264-13.39 0.3406-19.55-1.996-5.95-6.141-10.82-11.33-13.35-2.91-1.135-5.919-1.758-8.877-1.845-2.957-0.0865-5.85 0.359-10.1 2.098zm17.63 10.29c2.84 3.624 3.878 7.944 3.961 12.18-0.1244 4.317-1.055 8.562-3.389 11.61-2.334 3.043-5.428 4.713-8.782 4.824-3.577-0.0928-6.558-1.853-8.594-4.353-2.599-3.651-3.538-8.036-3.557-12.07 0.0232-5.929 2.398-12.89 7.549-15.3 3.98-1.861 9.971-0.5202 12.81 3.104z" style="fill:#290a43;stroke-width:1.02"/>
  <path d="m266.6 122.7c2.327-5.111 6.269-9.19 11.13-11.13 5.109-1.858 10.97-1.721 15.57 0.4143 2.486 1.184 4.577 2.802 6.274 4.854 5.738 7.444 6.602 16.94 3.551 25.04-2.135 5.209-5.973 9.401-10.71 11.54-5.118 2.007-10.74 1.932-15.45 0-5.195-2.279-8.734-6.686-10.59-11.42-1.954-6.407-2.215-13.34 0.2368-19.3zm4.262 9.884c0.0538 4.785 1.21 9.461 3.906 13.08 2.638 3.143 6.23 5 10 5.031 4.188-0.1663 7.772-2.19 10.06-5.268 2.724-3.892 3.825-8.508 3.847-12.84-0.1127-4.803-1.269-9.622-4.084-13.2-2.596-3.035-6.133-4.823-9.825-4.854-4.015 0.1471-7.517 2.013-9.825 4.854-2.957 3.952-4.062 8.752-4.084 13.2z" style="fill:url(#linearGradient3781);stroke-width:1.003"/>
 </g>
 <g transform="matrix(.2558 0 0 .2558 3.729 17.99)">
  <path d="m332.4 137.4c0.5112 0.2232 1.51 1.943 1.972 2.477 1.815 3.154 2.722 6.753 3.441 9.883v0.0387c0.7031 2.689 1.502 4.722 2.59 7.054h10.37c-1.279-2.763-2.599-5.82-3.326-8.469-0.4406-1.736-1.055-3.963-1.576-5.579-1.018-3.111-2.294-6.053-4.506-8.163 1.608-1.05 3.07-2.269 4.2-3.808 1.609-2.178 2.437-4.779 2.437-7.562-0.272-4.259-2.033-8.115-5.027-10.65-3.761-3.071-8.45-4.313-12.85-4.338-4.399-0.0275-8.811 0.6574-12.72 1.421l-1.607 0.3164v46.83h9.698c0-13.2-0.0756-27.93 0.0154-39.91 2.601-0.4416 5.523-0.284 7.696 0.2454h0.0308c2.813 1.298 4.677 3.117 4.724 5.955 0.0501 3.058-1.564 5.382-3.879 6.634-1.268 1.175-4.646 0.9243-6.253 2.301-2.078 1.779-2.224 2.532-2.537 3.779 2.415 1.737 4.317 1.221 7.109 1.536z" style="fill:#290a43;stroke-width:1.02"/>
  <path d="m343.8 129.7c-1.302 1.776-2.979 3.176-5.031 4.202l-1.421 0.4734 1.184 0.4735c1.46 0.9865 2.565 2.19 3.315 3.611 0.7892 1.421 1.44 2.999 1.953 4.735 0.5524 1.697 1.065 3.512 1.539 5.445 0.513 1.894 1.223 3.847 2.131 5.86h-5.919c-0.7892-1.697-1.421-3.512-1.894-5.445-0.434-1.934-0.9273-3.788-1.48-5.564s-1.263-3.354-2.131-4.735c-0.8286-1.381-2.012-2.368-3.551-2.959-0.1184 0.0395-0.296 0.0593-0.5327 0.0593-0.8681 0.0789-1.795 0.0986-2.782 0.0591-0.9865-0.0789-2.032-0.2565-3.137-0.5328 0.434-1.026 1.085-1.874 1.953-2.545 0.9076-0.6708 1.993-1.026 3.255-1.065 1.026-0.0394 2.052-0.2761 3.078-0.7102 2.095-0.931 3.779-2.5 4.735-4.38 0.9435-2.2 1.018-4.625 0-6.629-1.155-2.164-3.064-3.66-5.149-4.439-2.299-0.7889-4.474-0.6884-6.748-0.5919-0.9076 0.0395-2.072 0.1973-3.492 0.4734v39h-5.623v-42.5c2.21-0.434 4.242-0.7694 6.096-1.006 4.265-0.4284 8.609-0.6636 12.49 0.6512 3.487 1.34 6.553 3.636 8.05 6.807 1.61 3.806 1.365 8.121-0.8878 11.25z" style="fill:url(#linearGradient3779);stroke-width:1.003"/>
 </g>
 <g transform="matrix(.2558 0 0 .2558 4.854 17.99)">
  <path d="m358.5 108.7v8.314h12.76v39.41h9.758v-39.41h12.82v-8.314z" style="fill:#290a43;stroke-width:1.02"/>
  <path d="m360.8 115.3v-4.262h30.84v4.262h-12.61v38.76h-5.682v-38.76z" style="fill:url(#linearGradient3777);stroke-width:1.003"/>
 </g>
 <g transform="matrix(.2558 0 0 .2558 4.922 17.99)">
  <path d="m419 108.7-17.21 47.73h9.969l3.609-10.47h15.2l3.628 10.47h10.38l-17.2-47.73zm3.978 15.33 6.287 17.45c-1.15-1.342-1.399-3.036-4.606-3.54l-6.43-0.2968z" style="fill:#290a43;stroke-width:1.02"/>
  <path d="m425.9 111 15.51 43.03h-6.037l-12.02-34.68-0.4143-1.716-0.4143 1.716-6.629 19-0.6511 1.243 0.7103-0.1184h7.991q2.131 0 3.255 1.302 1.125 1.243 1.776 2.959h-14.92l-3.551 10.3h-5.623l15.51-43.03z" style="fill:url(#linearGradient3775);stroke-width:1.003"/>
 </g>
 <g transform="matrix(.2558 0 0 .2558 5.024 17.99)">
  <path d="m452.4 108.7v8.314h12.76v39.41h9.757v-39.41h12.82v-8.314z" style="fill:#290a43;stroke-width:1.02"/>
  <path d="m454.7 115.3v-4.262h30.84v4.262h-12.61v38.76h-5.682v-38.76z" style="fill:url(#linearGradient3773);stroke-width:1.003"/>
 </g>
 <g transform="matrix(.2558 0 0 .2558 9.063 17.99)">
  <path d="m496.8 108.7v47.73h9.517v-47.73z" style="fill:#290a43;stroke-width:1.02"/>
  <path d="m504.2 154.1h-5.445v-43.03h5.445z" style="fill:url(#linearGradient3771);stroke-width:1.003"/>
 </g>
 <g transform="matrix(.2558 0 0 .2558 11.97 17.99)">
  <path d="m528 110c-4.248 1.74-8.516 6.376-10.9 12.5-2.389 6.127-2.6 13.64-0.2639 19.83s6.571 10.69 11.9 13.15c5.738 2.205 11.99 2.189 17.49-0.2341 5.497-2.423 9.613-7.281 11.74-12.6 2.208-6.556 2.266-13.39 0.3426-19.55-1.997-5.949-6.141-10.82-11.33-13.35-6.492-2.613-13.64-1.898-18.98 0.2524zm17.87 10.3c2.594 3.617 3.632 7.941 3.715 12.18-0.1248 4.317-1.055 8.562-3.39 11.6-2.335 3.043-5.425 4.713-8.779 4.824-3.577-0.0928-6.558-1.853-8.594-4.353-2.599-3.651-3.538-8.036-3.557-12.07 0.0956-4.447 0.8686-8.997 3.715-12.18 2.275-2.542 5.625-4.112 8.771-4.096 3.146 0.0165 6.144 1.658 8.118 4.085z" style="fill:#290a43;stroke-width:1.02"/>
  <path d="m519.3 122.7c2.393-5.465 6.269-9.19 11.13-11.13 5.153-2.034 10.97-1.721 15.57 0.4143 5.077 2.536 8.464 6.705 10.12 11.96 1.826 6.159 1.776 12.43-0.296 17.93-2.135 5.452-5.774 9.379-10.71 11.54-5.207 2.162-10.74 1.932-15.45 0-5.482-2.323-8.756-6.598-10.59-11.42-1.999-6.05-2.253-13.25 0.2368-19.3zm5.268 17.22c1.3 4.314 3.837 7.686 7.339 9.47 3.715 1.891 7.902 1.704 11.25-0.1184 3.833-2.059 6.065-5.857 7.221-9.589 1.381-4.656 1.418-9.735-0.1184-14.56-1.331-4.208-3.847-7.579-7.399-9.352-3.686-1.785-7.503-1.563-10.77 0-4.243 2.246-6.206 5.665-7.458 9.352-1.47 5.137-1.452 10.1-0.0592 14.8z" style="fill:url(#linearGradient3769)"/>
 </g>
 <g transform="matrix(.2558 0 0 .2558 11.47 17.99)">
  <path d="m568.4 108.7v47.73h8.856v-31.18l19.53 31.18h8.207v-47.73h-9.037v29.95l-18.75-29.95z" style="fill:#290a43;stroke-width:1.02"/>
  <path d="m576.2 119.7-0.8286-2.012 0.1184 2.012v34.39h-4.794v-43.03h5.623l20.9 33.38 0.7103 1.953-0.1184-2.072v-33.27h4.972v43.03h-5.031z" style="fill:url(#linearGradient5990);stroke-width:1.003"/>
 </g>
 <g transform="matrix(.2558 0 0 .2558 2.222 17.99)">
  <path d="m25.13 5.994c-7.481 0.4242-14.58 1.539-21.28 2.789v95.43h14.5v-86.53c4.557-0.9419 9.586-1.063 13.7-1.066 5.414 0.1899 10.75 1.908 14.64 5.185 3.71 3.392 6.078 8.11 6.12 12.76-0.1382 4.953-2.308 9.479-5.587 12.62-1.597 1.595-3.461 2.88-5.588 3.855-2.129 0.886-3.154 1.771-5.283 1.86-2.838 0.177-5.233 1.395-7.185 3.256s-3.016 2.946-3.992 5.25c2.04 0.5316 3.559 0.5975 5.421 0.7745 1.952 0.1769 3.802 0.2125 5.487 0.1239 0.8445 0.05147 1.777-0.03965 2.528-0.1326 3.192 1.506 4.575 4.507 6.348 7.607 1.774 3.101 3.238 6.601 4.39 10.5 1.242 3.81 2.35 7.841 3.326 12.1 0.9757 4.164 2.351 8.107 4.125 11.83h15.03c-2.129-4.608-3.769-9.17-4.922-13.69-1.064-4.608-2.263-8.904-3.594-12.89-1.33-4.076-3.014-7.666-5.055-10.77-1.952-3.189-4.835-5.712-8.649-7.574l3.326-1.199c4.524-2.304 8.161-5.448 10.91-9.436 4.991-7.836 5.333-17.62 1.46-25.52-3.955-7.815-11.32-12.72-18.76-15.15-7.325-2.058-14.42-2.541-21.43-1.992l3e-3 5e-5z" style="fill:url(#linearGradient7643);stroke-width:7.272;stroke:url(#linearGradient7643)"/>
  <path d="m24.95 5.994c-7.481 0.4242-14.58 1.539-21.28 2.789v95.43h14.5v-86.53c4.557-0.9419 9.586-1.063 13.7-1.066 5.414 0.1899 10.75 1.908 14.64 5.185 3.71 3.392 6.388 8.021 6.12 12.76 0.1712 5.44-2.042 9.788-5.587 12.62-3.098 3.493-7.475 5.115-11.57 5.317-2.838 0.177-5.233 1.196-7.185 3.056s-3.417 3.943-4.392 6.247c2.04 0.5316 3.994 0.8868 5.857 1.064 1.952 0.1769 3.768 0.2212 5.453 0.1326 0.8445 0.05147 1.777-0.03965 2.528-0.1326 3.192 1.506 5.275 3.809 7.049 6.909 1.774 3.101 3.238 6.601 4.39 10.5 1.242 3.81 2.35 7.841 3.326 12.1 0.9757 4.164 2.351 8.107 4.125 11.83h15.03c-2.129-4.608-3.769-9.17-4.922-13.69-1.064-4.608-2.263-8.904-3.594-12.89-1.33-4.076-3.014-7.666-5.055-10.77-1.952-3.189-4.835-5.712-8.649-7.574l3.326-1.199c4.7-2.039 7.896-4.874 10.91-9.436 2.75-4.076 4.27-7.835 4.122-14.09 0.2812-5.139-0.8875-7.887-2.662-11.43-3.955-8.169-11.32-12.72-18.76-15.15-7.325-2.058-14.42-2.541-21.43-1.992z" style="fill:url(#linearGradient5669);stroke-width:3.565;stroke:url(#linearGradient5669)"/>
  <path d="m3.856 8.822v95.42h14.51v-86.53c4.557-0.9407 9.587-1.062 13.7-1.065 2.838 0 5.502 0.4861 7.986 1.461 7.627 2.769 12.68 9.159 12.78 16.48-0.04023 7.64-5.442 13.72-11.18 16.48-2.129 0.886-4.256 1.374-6.385 1.463-2.838 0.177-5.234 1.196-7.186 3.057-1.952 1.86-3.418 3.941-4.393 6.245 2.04 0.5316 3.994 0.8882 5.857 1.065 2.414 0.2267 4.383 0.1312 6.653 0.1312 0.4436 0 0.8877-0.04193 1.332-0.1312 3.194 1.506 5.678 3.808 7.453 6.909 3.868 7.287 6.01 15.2 7.717 22.6 0.9758 4.164 2.351 8.106 4.125 11.83h15.04c-2.13-4.608-3.771-9.17-4.924-13.69-2.106-8.364-4.201-16.8-8.65-23.66-1.952-3.189-4.836-5.712-8.651-7.573l3.328-1.201c4.525-2.304 8.163-5.448 10.91-9.435 5.115-7.711 5.332-17.61 1.461-25.52-3.954-7.814-11.32-12.72-18.76-15.15-4.346-1.506-9.182-2.26-14.51-2.26-9.607 0.3517-19.42 1.335-28.21 3.064z" style="fill:url(#linearGradient5673);stroke-width:1.001"/>
 </g>
 <g transform="matrix(.2558 0 0 .2558 3.516 17.99)">
  <path d="m83.85 7.521v96.63h58.01v-10.77h-43.5v-75.1h41.51v-10.76zm35.14 41.27c-1.685 0-3.19-0.08934-4.521 0.5312-1.242 0.6201-2.351 1.219-3.326 2.194-1.804 1.979-3.375 4.391-4.125 6.578h30.72v-9.302z" style="fill:url(#linearGradient7643);stroke-width:7.272;stroke:url(#linearGradient7643)"/>
  <path d="m83.85 7.521v96.63h58.01v-10.77h-43.5v-75.1h41.51v-10.76zm34.24 40.67c-1.685 0-3.189 0.3098-4.521 0.9304-3.998 1.926-7.216 9.053-7.451 9.568h32.13v-10.5z" style="fill:url(#linearGradient9323);stroke-width:3.565;stroke:url(#linearGradient5669)"/>
  <path d="m84.32 7.521v96.63h58.02v-10.76h-43.5v-75.1h41.52v-10.76zm34.24 40.67c-1.685 0-3.194 0.3096-4.524 0.9302-4.048 2.164-6.001 5.175-7.454 9.568h31.94v-10.5z" style="fill:url(#linearGradient5673)"/>
 </g>
 <g transform="matrix(.2558 0 0 .2558 5.962 17.99)">
  <path d="m170.4 6.078c-6.84 2.365-11.87 6.881-14.64 12.63-3.151 7.67-2.648 16.25 1.328 22.46 2.218 3.368 4.968 6.292 8.249 8.773 6.958 5.068 14.69 8.122 21.56 12.36 3.37 1.95 6.165 4.166 8.383 6.647 3.658 4.5 4.199 10.48 1.996 15.15-2.068 4.117-5.403 6.781-9.578 8.106-6.393 2.111-13.05 1.1-18.76 0-4.08-0.7975-8.247-2.17-12.5-4.118l-3.859 9.702c4.967 2.393 9.978 4.031 15.03 4.917 5.056 0.9747 9.491 1.462 13.3 1.462 5.056 0 9.582-0.6643 13.57-1.993 7.419-2.392 13.2-6.938 16.36-13.69 1.508-3.189 2.263-6.601 2.263-10.24 0-5.051-1.108-9.302-3.326-12.76-2.217-3.545-5.012-6.603-8.383-9.173-3.371-2.658-7.006-4.961-10.91-6.909-6.907-3.83-14.03-7.23-19.29-12.63-2.218-2.393-3.326-5.27-3.326-8.638 0-3.633 1.284-6.736 3.857-9.305 2.573-2.57 6.208-3.956 10.91-3.956 2.573 0 5.455 0.3232 8.649 0.7663 3.282 0.3547 6.875 1.109 10.78 2.261l3.99-9.57c-4.879-1.506-9.225-2.569-13.04-3.189-7.723-1.09-15.38-1.508-22.62 0.937z" style="fill:url(#linearGradient7643);stroke-width:7.272;stroke:url(#linearGradient7643)"/>
  <path d="m161.6 11c-5.599 4.774-7.807 11.29-7.852 17.68 0 4.962 1.108 9.126 3.326 12.49 2.218 3.368 4.968 6.292 8.249 8.773 6.958 5.068 14.69 8.122 21.56 12.36 6.225 3.583 11.69 8.288 11.71 15.82-0.1482 4.873-2.08 8.217-5.054 10.9-4.062 3.141-8.799 4.429-13.7 4.386-3.192 0-6.831-0.399-10.91-1.197-4.08-0.7975-8.247-2.17-12.5-4.118l-3.859 9.702c4.967 2.393 9.978 4.031 15.03 4.917 9.346 1.905 18.64 2.143 26.87-0.5304 7.391-2.488 13.36-7.27 16.36-13.69 3.433-7.328 2.966-16.58-1.063-23-2.217-3.545-5.012-6.603-8.383-9.173-3.371-2.658-7.006-4.961-10.91-6.909-6.907-3.83-14.03-7.23-19.29-12.63-2.218-2.393-3.326-5.27-3.326-8.638 0-3.633 1.284-6.736 3.857-9.305 5.904-5.184 12.87-4.111 19.56-3.19 3.282 0.3547 6.875 1.109 10.78 2.261l3.99-9.57c-4.879-1.506-9.225-2.569-13.04-3.189-3.814-0.6201-7.671-0.9312-11.62-0.9273-7.563 0.2183-14.46 2.201-19.78 6.783z" style="fill:url(#linearGradient5669);stroke-width:3.964;stroke:url(#linearGradient5669)"/>
  <path d="m170.4 6.078c-6.861 2.32-11.82 6.641-14.64 12.63-3.072 7.243-2.647 16.25 1.33 22.46 2.219 3.368 4.968 6.292 8.25 8.773 7.496 5.457 14.36 7.818 21.56 12.36 3.371 1.95 6.166 4.165 8.384 6.646 4.042 4.519 3.989 11.43 1.994 15.15-2.367 4.717-5.684 6.736-9.58 8.108-6.062 2.066-12.8 1.079-18.75 0-4.081-0.7975-8.249-2.169-12.5-4.118l-3.861 9.702c4.968 2.393 9.98 4.031 15.04 4.918 9.244 1.866 18.04 2.245 26.89-0.5324 7.409-2.732 13.12-6.76 16.36-13.69 1.508-3.189 2.263-6.601 2.263-10.24 0-5.051-1.107-9.303-3.326-12.76-4.874-7.703-12.07-12.44-19.3-16.08-6.907-3.831-13.86-7.061-19.3-12.63-5.06-5.676-3.909-13.83 0.5334-17.94 2.573-2.57 6.209-3.856 10.91-3.856 6.742 0.1318 13.48 1.113 19.43 2.927l3.99-9.572c-4.88-1.506-9.228-2.568-13.05-3.188-3.951-0.4259-8.022-0.9083-11.8-0.9145-3.779-0.0062-7.46 0.6135-10.83 1.854z" style="fill:url(#linearGradient5673);stroke-width:1.001"/>
 </g>
 <g transform="matrix(.2558 0 0 .2558 4.807 17.99)">
  <path d="m220.1 53.84c0 7.62 1.151 14.53 3.457 20.74 4.295 12.1 13 21.84 23.95 26.05 12.18 4.648 25.12 4.691 36.59-0.2642 11.39-4.958 20.1-14.98 24.08-26.19 4.517-11.64 4.582-26.87 0.6672-39.21-3.772-12.64-11.98-22.26-22.88-27.25-12.65-5.175-25.25-5.563-37.48-0.639s-20.09 14.22-23.59 22.9c-3.506 8.677-4.792 15.8-4.792 23.87zm67.44-28.57c6.365 8.389 7.994 17.91 8.651 28.57-0.1681 10.34-2.723 20.49-8.518 28.31-5.467 7.016-13.54 11.1-21.69 11.17-9.144-0.129-17.07-4.415-21.95-11.3-6.092-8.463-8.336-18.7-8.382-28.17 0.2044-10.33 2.601-20.64 8.515-28.44 5.48-7.362 13.74-10.83 22.19-10.78 8.445 0.04654 16.27 3.785 21.18 10.64z" style="fill:url(#linearGradient7643);stroke-width:7.272;stroke:url(#linearGradient7643)"/>
  <path d="m220.1 53.84c0 7.62 1.151 14.53 3.457 20.74 4.295 12.1 12.94 21.27 23.95 26.05 12.18 4.648 25.12 4.691 36.59-0.2642 11.39-4.958 20.1-14.98 24.08-26.19 4.517-11.64 4.582-26.87 0.6672-39.21-3.772-12.64-11.98-22.26-22.88-27.25-12.65-5.175-25.25-5.563-37.48-0.639s-20.09 14.22-23.59 22.9c-3.506 8.677-4.792 15.8-4.792 23.87zm76.09 0c-0.1681 10.34-2.723 20.49-8.518 28.31-13.64 15.61-33.01 14.32-43.63-0.1301-6.092-8.463-8.336-18.7-8.382-28.17 0.2044-10.33 2.601-20.64 8.515-28.44 5.48-7.362 13.74-10.83 22.19-10.78 8.447 0.05004 16.27 3.785 21.91 11.41 5.636 7.621 7.972 17.32 7.922 27.8z" style="fill:url(#linearGradient5669);stroke-width:3.565;stroke:url(#linearGradient5669)"/>
  <path d="m248.8 7.02c-12.32 5.123-20.98 14.95-24.83 25.47-5.587 13.96-4.673 30.37-0.4026 42.05 4.515 11.94 13.16 21.31 23.91 26 12.28 4.591 24.77 4.793 36.52-0.2639 12.22-5.14 19.89-15.3 24.05-26.14 4.627-12.17 4.571-26.82 0.6646-39.14-3.892-12.18-11.15-21.74-22.85-27.2-13.92-5.228-25.55-5.319-37.07-0.7779zm28.97 10.35c9.335 5.012 13.42 12.46 15.93 20.43 2.86 10.73 3.094 21.79 0 31.84-2.83 9.271-8.197 16.63-15.8 20.7-8.067 4.194-17.16 3.721-24.43 0-8.172-4.716-13.22-12.78-15.8-20.83-2.689-10.62-2.923-21.65 0.1329-31.57 2.8-8.756 7.508-16.02 15.8-20.43 8.162-3.642 15.99-4.071 24.16-0.1349z" style="fill:url(#linearGradient5673);stroke-width:1.001"/>
 </g>
 <g transform="matrix(.2558 0 0 .2558 3.94 17.99)">
  <path d="m321.6 7.521v96.63h53.35c-0.1009-3.602 0.1295-7.605 0.1327-10.9h-38.85v-85.73z" style="fill:url(#linearGradient7643);stroke-width:7.272;stroke:url(#linearGradient7643)"/>
  <path d="m321.6 7.521v96.63h53.35c-0.1009-3.602 0.1295-7.605 0.1327-10.9h-38.85v-85.73z" style="fill:url(#linearGradient5669);stroke-width:3.565;stroke:url(#linearGradient5669)"/>
  <path d="m321.6 7.521v96.73h53.36c-0.1015-3.602 0.1301-7.605 0.1333-10.9h-38.86v-85.83z" style="fill:url(#linearGradient5673);stroke-width:1.001"/>
 </g>
 <g transform="matrix(.2558 0 0 .2558 6.128 17.99)">
  <path d="m382.1 5.819 0.2007 60.41c0.1506 10.37 3.074 20.51 9.712 27.64 7.466 7.354 16.76 10.43 27.01 10.23 10.96 0.0157 19.81-3.642 26.46-10.37 7.474-7.22 10.06-18.04 10.11-27.51v-60.41h-14.23v62.54c-0.4727 7.321-1.951 13.59-6.256 18.34-4.371 4.551-10.41 6.606-16.1 6.644-7.408 0.2014-12.17-2.469-16.23-6.644-4.437-5.306-6.4-11.77-6.121-18.34l-0.2006-62.54z" style="fill:url(#linearGradient7643);stroke-width:7.272;stroke:url(#linearGradient7643)"/>
  <path d="m382.1 5.819 0.2007 60.41c0.0194 5.849 0.843 11.12 2.529 15.81 1.685 4.608 4.078 8.549 7.183 11.83 3.192 3.279 7.052 5.806 11.57 7.578 4.524 1.772 9.67 2.656 15.44 2.656 5.498 0 10.47-0.8844 14.89-2.656 4.524-1.86 8.38-4.432 11.57-7.711 3.192-3.367 5.677-7.355 7.45-11.96 1.774-4.697 2.662-9.879 2.662-15.55v-60.41h-14.23v62.54c0.2621 13.52-8.925 25.47-22.35 24.99-6.346-0.04859-12.17-2.469-16.23-6.644-4.437-5.306-6.088-12.14-6.121-18.34l-0.2006-62.54z" style="fill:url(#linearGradient5669);stroke-width:3.565;stroke:url(#linearGradient5669)"/>
  <path d="m382 5.719v60.61c0.1336 11.81 3.078 20.53 9.713 27.65 8.649 8.121 17.99 10.18 27.31 10.24 11.35 9e-3 19.82-3.634 26.47-10.37 7.94-8.381 10.06-18.03 10.11-27.51v-60.61h-14.54v62.73c-0.0992 7.238-1.951 13.59-6.257 18.34-4.567 5.043-9.688 6.487-15.8 6.645-6.348-0.04825-11.63-1.931-16.23-6.645-4.856-5.785-6.086-12.14-6.119-18.34v-62.73z" style="fill:url(#linearGradient5673);stroke-width:1.001"/>
 </g>
 <g transform="matrix(.2558 0 0 .2558 5.675 17.99)">
  <path d="m465 7.521v10.77h27.28v85.86h14.63v-85.86h27.41v-10.77z" style="fill:url(#linearGradient7643);stroke-width:7.272;stroke:url(#linearGradient7643)"/>
  <path d="m465 7.521v10.77h27.28v85.86h14.63v-85.86h27.41v-10.77z" style="fill:url(#linearGradient5669);stroke-width:3.565;stroke:url(#linearGradient5669)"/>
  <path d="m465 7.521v10.77h27.27v85.86h14.64v-85.86h27.41v-10.77z" style="fill:url(#linearGradient5673);stroke-width:1.001"/>
 </g>
 <g transform="matrix(.2558 0 0 .2558 7.185 17.99)">
  <path d="m543.8 7.521v96.63h58.01v-10.77h-43.5v-75.1h41.51v-10.76zm35.14 41.27c-1.685 0-3.19-0.08934-4.521 0.5312-1.242 0.6201-2.351 1.219-3.326 2.194-1.804 1.979-3.375 4.391-4.125 6.578h30.72v-9.302z" style="fill:url(#linearGradient7643);stroke-width:7.272;stroke:url(#linearGradient7643)"/>
  <path d="m543.8 7.521v96.63h58.01v-10.77h-43.5v-75.1h41.51v-10.76zm34.24 40.67c-1.685 0-3.189 0.3098-4.521 0.9304-4.308 1.998-6.069 5.393-7.451 9.568h32.13v-10.5z" style="fill:url(#linearGradient9323);stroke-width:3.565;stroke:url(#linearGradient5669)"/>
  <path d="m543.8 7.521v96.63h58.02v-10.76h-43.5v-75.1h41.52v-10.76zm34.24 40.47c-1.685 0-3.394 0.5094-4.724 1.13-4.048 2.164-6.001 5.375-7.454 9.769h32.44l-3.7e-4 -10.9z" style="fill:url(#linearGradient5673);stroke-width:1.001"/>
 </g>
 <g transform="matrix(.3196 0 0 .3196 -178.4 17.98)">
  <path d="M 87.55,43.46 A 43.46,43.46 0 0 1 44.09,86.92 43.46,43.46 0 0 1 0.63,43.46 43.46,43.46 0 0 1 44.09,0 43.46,43.46 0 0 1 87.55,43.46 Z" style="fill:#37abc8"/>
  <path d="m80.21 64.34-30.76-15.76-12.45 32.25 5.486-34.13-34.52-1.877l34.15-5.329-8.881-33.41 15.62 30.84 29.03-18.77-24.5 24.39z" style="fill:#00112b"/>
 </g>
 <g transform="matrix(.3196 0 0 .3196 -186 17.98)">
  <path d="M 174.5,43.46 A 43.46,43.46 0 0 1 131.04,86.92 43.46,43.46 0 0 1 87.58,43.46 43.46,43.46 0 0 1 131.04,0 43.46,43.46 0 0 1 174.5,43.46 Z" style="fill:#37abc8"/>
  <path d="m146.9 80.42-18.76-29.03-26.91 21.7 21.82-26.81-28.95-18.88l32.24 12.46 9.012-33.37-1.888 34.52 34.52-1.741-33.41 8.87z" style="fill:#00112b"/>
 </g>
 <g transform="matrix(.3196 0 0 .3196 -193.6 17.98)">
  <path d="M 261.5,43.46 A 43.46,43.46 0 0 1 218.04,86.92 43.46,43.46 0 0 1 174.58,43.46 43.46,43.46 0 0 1 218.04,0 43.46,43.46 0 0 1 261.5,43.46 Z" style="fill:#37abc8"/>
  <path d="m245.6 75.31-25.64-23.19-20.37 27.93 14.13-31.55-32.85-10.75l34.37 3.692 0.068-34.57 7.109 33.83 32.9-10.62-29.98 17.21z" style="fill:#00112b"/>
 </g>
 <g transform="matrix(.3196 0 0 .3196 -201.2 17.98)">
  <path d="M 348.5,43.46 A 43.46,43.46 0 0 1 305.04,86.92 43.46,43.46 0 0 1 261.58,43.46 43.46,43.46 0 0 1 305.04,0 43.46,43.46 0 0 1 348.5,43.46 Z" style="fill:#37abc8"/>
  <path d="m342.5 51.97-33.8-7.265-3.681 34.37-3.534-34.39-33.83 7.12 31.61-13.99-17.22-29.97 23.07 25.74 23.18-25.64-17.35 29.9z" style="fill:#00112b"/>
 </g>
 <g transform="matrix(.3196 0 0 .3196 -197.7 17.98)">
  <path d="m401 43.46a43.46 43.46 0 0 1 -43.46 43.46 43.46 43.46 0 0 1 -43.46 -43.46 43.46 43.46 0 0 1 43.46 -43.46 43.46 43.46 0 0 1 43.46 43.46z" style="fill:#37abc8"/>
  <path d="m385 75.31-25.64-23.19-20.37 27.93 14.13-31.55-32.85-10.75 34.37 3.692 0.068-34.57 7.109 33.83 32.9-10.62-29.98 17.21z" style="fill:#00112b"/>
 </g>
 <g transform="matrix(.3196 0 0 .3196 -216.6 17.98)">
  <path d="M 523.5,43.46 A 43.46,43.46 0 0 1 480.04,86.92 43.46,43.46 0 0 1 436.58,43.46 43.46,43.46 0 0 1 480.04,0 43.46,43.46 0 0 1 523.5,43.46 Z" style="fill:#37abc8"/>
  <path d="m485.7 80.66-10.61-32.9-31.61 14 28.01-20.25-23.08-25.73 27.92 20.38 17.34-29.9-10.76 32.85 33.8 7.253-34.57-0.0793z" style="fill:#00112b"/>
 </g>
 <g transform="matrix(.3196 0 0 .3196 -224.2 17.98)">
  <path d="M 610.5,43.46 A 43.46,43.46 0 0 1 567.04,86.92 43.46,43.46 0 0 1 523.58,43.46 43.46,43.46 0 0 1 567.04,0 43.46,43.46 0 0 1 610.5,43.46 Z" style="fill:#37abc8"/>
  <path d="m582.9 80.42-18.76-29.03-26.91 21.7 21.82-26.81-28.95-18.88l32.24 12.46 9.012-33.37-1.888 34.52 34.52-1.741-33.41 8.87z" style="fill:#00112b"/>
 </g>
 <g transform="matrix(.3196 0 0 .3196 -232.1 17.98)">
  <path d="M 698.5,43.46 A 43.46,43.46 0 0 1 655.04,86.92 43.46,43.46 0 0 1 611.58,43.46 43.46,43.46 0 0 1 655.04,0 43.46,43.46 0 0 1 698.5,43.46 Z" style="fill:#37abc8"/>
  <path d="m692.5 51.97-33.8-7.265-3.681 34.37-3.534-34.39-33.83 7.12 31.61-13.99-17.22-29.97 23.07 25.74 23.18-25.64-17.35 29.9z" style="fill:#00112b"/>
 </g>
 <g transform="matrix(.2419 0 0 .2419 -178.2 24.79)">
  <path d="m50 113.1a25 25 0 0 1 -25 25 25 25 0 0 1 -25 -25 25 25 0 0 1 25 -25 25 25 0 0 1 25 25z" style="fill:#ffdd55"/>
  <path d="m40.81 129.3-15.28-13.31-4.039 19.86 0.8812-20.24-18.04 9.222 16.38-11.93-18.46-8.356 19.54 5.364-4.976-19.64 7.989 18.62 12.25-16.14-9.577 17.86 20.26-0.4803-19.93 3.645z" style="fill:#b380ff"/>
 </g>
 <g transform="matrix(.2419 0 0 .2419 -178.2 24.79)">
  <path d="m100 113.1a25 25 0 0 1 -25 25 25 25 0 0 1 -25 -25 25 25 0 0 1 25 -25 25 25 0 0 1 25 25z" style="fill:#ffdd55"/>
  <path d="m90.81 129.3-15.28-13.31-4.039 19.86 0.8812-20.24-18.04 9.222 16.38-11.93-18.46-8.356 19.54 5.364-4.976-19.64 7.989 18.62 12.25-16.14-9.577 17.86 20.26-0.4803-19.93 3.645z" style="fill:#b380ff"/>
 </g>
 <g transform="matrix(.2419 0 0 .2419 -178.2 24.79)">
  <path d="m150 113.1a25 25 0 0 1 -25 25 25 25 0 0 1 -25 -25 25 25 0 0 1 25 -25 25 25 0 0 1 25 25z" style="fill:#ffdd55"/>
  <path d="m140.8 129.3-15.28-13.31-4.039 19.86 0.8813-20.24-18.04 9.222 16.38-11.93-18.46-8.356 19.54 5.364-4.976-19.64 7.989 18.62 12.25-16.14-9.577 17.86 20.26-0.4803-19.93 3.645z" style="fill:#b380ff"/>
 </g>
 <g transform="matrix(.2419 0 0 .2419 -178.2 24.79)">
  <path d="m200 113.1a25 25 0 0 1 -25 25 25 25 0 0 1 -25 -25 25 25 0 0 1 25 -25 25 25 0 0 1 25 25z" style="fill:#ffdd55"/>
  <path d="m190.8 129.3-15.28-13.31-4.039 19.86 0.8813-20.24-18.04 9.222 16.38-11.93-18.46-8.356 19.54 5.364-4.976-19.64 7.989 18.62 12.25-16.14-9.577 17.86 20.26-0.4803-19.93 3.645z" style="fill:#b380ff"/>
 </g>
 <g transform="matrix(.2419 0 0 .2419 -178.2 24.79)">
  <path d="m250 113.1a25 25 0 0 1 -25 25 25 25 0 0 1 -25 -25 25 25 0 0 1 25 -25 25 25 0 0 1 25 25z" style="fill:#ffdd55"/>
  <path d="m240.8 129.3-15.28-13.31-4.039 19.86 0.8812-20.24-18.04 9.222 16.38-11.93-18.46-8.356 19.54 5.364-4.976-19.64 7.989 18.62 12.25-16.14-9.577 17.86 20.26-0.4803-19.93 3.645z" style="fill:#b380ff"/>
 </g>
 <g transform="matrix(.2419 0 0 .2419 -178.2 24.79)">
  <path d="m300 113.1a25 25 0 0 1 -25 25 25 25 0 0 1 -25 -25 25 25 0 0 1 25 -25 25 25 0 0 1 25 25z" style="fill:#ffdd55"/>
  <path d="m290.8 129.3-15.28-13.31-4.039 19.86 0.8813-20.24-18.04 9.222 16.38-11.93-18.46-8.356 19.54 5.364-4.976-19.64 7.989 18.62 12.25-16.14-9.577 17.86 20.26-0.4803-19.93 3.645z" style="fill:#b380ff"/>
 </g>
 <g transform="matrix(.2419 0 0 .2419 -178.2 24.79)">
  <path d="m350 113.1a25 25 0 0 1 -25 25 25 25 0 0 1 -25 -25 25 25 0 0 1 25 -25 25 25 0 0 1 25 25z" style="fill:#ffdd55"/>
  <path d="m340.8 129.3-15.28-13.31-4.039 19.86 0.8812-20.24-18.04 9.222 16.38-11.93-18.46-8.356 19.54 5.364-4.976-19.64 7.989 18.62 12.25-16.14-9.577 17.86 20.26-0.4803-19.93 3.645z" style="fill:#b380ff"/>
 </g>
 <g transform="matrix(.2419 0 0 .2419 -178.2 24.79)">
  <path d="m400 113.1a25 25 0 0 1 -25 25 25 25 0 0 1 -25 -25 25 25 0 0 1 25 -25 25 25 0 0 1 25 25z" style="fill:#ffdd55"/>
  <path d="m390.8 129.3-15.28-13.31-4.039 19.86 0.8812-20.24-18.04 9.222 16.38-11.93-18.46-8.356 19.54 5.364-4.976-19.64 7.989 18.62 12.25-16.14-9.577 17.86 20.26-0.4803-19.93 3.645z" style="fill:#b380ff"/>
 </g>
 <g transform="matrix(.2419 0 0 .2419 -178.2 24.79)">
  <path d="m450 113.1a25 25 0 0 1 -25 25 25 25 0 0 1 -25 -25 25 25 0 0 1 25 -25 25 25 0 0 1 25 25z" style="fill:#ffdd55"/>
  <path d="m440.8 129.3-15.28-13.31-4.039 19.86 0.8813-20.24-18.04 9.222 16.38-11.93-18.46-8.356 19.54 5.364-4.976-19.64 7.989 18.62 12.25-16.14-9.577 17.86 20.26-0.4803-19.93 3.645z" style="fill:#b380ff"/>
 </g>
 <g transform="matrix(.2419 0 0 .2419 -178.2 24.79)">
  <path d="m500 113.1a25 25 0 0 1 -25 25 25 25 0 0 1 -25 -25 25 25 0 0 1 25 -25 25 25 0 0 1 25 25z" style="fill:#ffdd55"/>
  <path d="m490.8 129.3-15.28-13.31-4.039 19.86 0.8813-20.24-18.04 9.222 16.38-11.93-18.46-8.356 19.54 5.364-4.976-19.64 7.989 18.62 12.25-16.14-9.577 17.86 20.26-0.4803-19.93 3.645z" style="fill:#b380ff"/>
 </g>
 <g transform="matrix(.2419 0 0 .2419 -178.2 24.79)">
  <path d="m550 113.1a25 25 0 0 1 -25 25 25 25 0 0 1 -25 -25 25 25 0 0 1 25 -25 25 25 0 0 1 25 25z" style="fill:#ffdd55"/>
  <path d="m540.8 129.3-15.28-13.31-4.039 19.86 0.8812-20.24-18.04 9.222 16.38-11.93-18.46-8.356 19.54 5.364-4.976-19.64 7.989 18.62 12.25-16.14-9.577 17.86 20.26-0.4803-19.93 3.645z" style="fill:#b380ff"/>
 </g>
 <g transform="matrix(.2419 0 0 .2419 -178.2 24.79)">
  <path d="m600 113.1a25 25 0 0 1 -25 25 25 25 0 0 1 -25 -25 25 25 0 0 1 25 -25 25 25 0 0 1 25 25z" style="fill:#ffdd55"/>
  <path d="m586.2 134.4-11.31-16.81-9.042 18.14 6.09-19.32-19.81 4.239 18.91-7.284-15.67-12.85 17.49 10.24 0.2768-20.26 2.898 20.05 16.01-12.42-13.87 14.77 19.69 4.78-20.19-1.637z" style="fill:#b380ff"/>
 </g>
 <g transform="matrix(.2419 0 0 .2419 -178.2 24.79)">
  <path d="m650 113.1a25 25 0 0 1 -25 25 25 25 0 0 1 -25 -25 25 25 0 0 1 25 -25 25 25 0 0 1 25 25z" style="fill:#ffdd55"/>
  <path d="m640.8 129.3-15.28-13.31-4.04 19.85 0.8795-20.25-18.04 9.221 16.38-11.93-18.46-8.356 19.54 5.364-4.976-19.64 7.989 18.62 12.25-16.14-9.575 17.86 20.26-0.48-19.94 3.646z" style="fill:#b380ff"/>
 </g>
 <g transform="matrix(.2419 0 0 .2419 -178.2 24.79)">
  <path d="m700 113.1a25 25 0 0 1 -25 25 25 25 0 0 1 -25 -25 25 25 0 0 1 25 -25 25 25 0 0 1 25 25z" style="fill:#ffdd55"/>
  <path d="m686.2 134.4-11.31-16.81-9.039 18.13 6.09-19.32-19.82 4.241 18.9-7.284-15.66-12.85 17.48 10.24 0.275-20.26 2.9 20.06 16.01-12.42-13.87 14.77 19.69 4.778-20.2-1.638z" style="fill:#b380ff"/>
 </g>
</svg>
